<svg width="412" height="132" viewBox="0 0 412 132" fill="none" xmlns="http://www.w3.org/2000/svg">
<rect x="0.666626" width="410.667" height="132" rx="5" fill="#F7F7F7"/>
<rect x="16.6666" y="16" width="100" height="100" rx="5" fill="white"/>
<path d="M53.3333 63.3332V68.6665C53.3333 71.3332 54.6666 72.6665 57.3333 72.6665H59.24C59.7333 72.6665 60.2266 72.8132 60.6533 73.0665L64.5466 75.5065C67.9066 77.6132 70.6666 76.0799 70.6666 72.1199V59.8799C70.6666 55.9065 67.9066 54.3865 64.5466 56.4932L60.6533 58.9332C60.2266 59.1865 59.7333 59.3332 59.24 59.3332H57.3333C54.6666 59.3332 53.3333 60.6665 53.3333 63.3332Z" stroke="#292D32" stroke-width="1.5"/>
<path d="M74.6666 60.6667C77.04 63.8267 77.04 68.1734 74.6666 71.3334" stroke="#292D32" stroke-width="1.5" stroke-linecap="round" stroke-linejoin="round"/>
<path d="M77.1066 57.3333C80.96 62.4666 80.96 69.5333 77.1066 74.6666" stroke="#292D32" stroke-width="1.5" stroke-linecap="round" stroke-linejoin="round"/>
<path d="M151.196 45.2812H153.52L157.407 55.9844L161.284 45.2812H163.618L158.335 59.5H156.469L151.196 45.2812ZM150.024 45.2812H152.299L152.71 55.1152V59.5H150.024V45.2812ZM162.505 45.2812H164.79V59.5H162.104V55.1152L162.505 45.2812ZM173.149 57.2539V52.3809C173.149 52.0228 173.087 51.7135 172.964 51.4531C172.84 51.1927 172.651 50.9909 172.397 50.8477C172.143 50.7044 171.821 50.6328 171.43 50.6328C171.085 50.6328 170.783 50.6914 170.522 50.8086C170.268 50.9258 170.073 51.0918 169.936 51.3066C169.799 51.515 169.731 51.7559 169.731 52.0293H167.143C167.143 51.5931 167.247 51.1797 167.456 50.7891C167.664 50.3919 167.96 50.0404 168.344 49.7344C168.735 49.4219 169.2 49.1777 169.741 49.002C170.288 48.8262 170.9 48.7383 171.577 48.7383C172.378 48.7383 173.09 48.875 173.715 49.1484C174.347 49.4154 174.842 49.819 175.2 50.3594C175.564 50.8997 175.747 51.5801 175.747 52.4004V57.0098C175.747 57.5371 175.779 57.9896 175.844 58.3672C175.916 58.7383 176.02 59.0605 176.157 59.334V59.5H173.53C173.406 59.2331 173.312 58.8945 173.247 58.4844C173.182 58.0677 173.149 57.6576 173.149 57.2539ZM173.51 53.0645L173.53 54.5977H171.899C171.495 54.5977 171.141 54.64 170.835 54.7246C170.529 54.8027 170.278 54.9199 170.083 55.0762C169.887 55.2259 169.741 55.4082 169.643 55.623C169.546 55.8314 169.497 56.069 169.497 56.3359C169.497 56.5964 169.555 56.8307 169.672 57.0391C169.796 57.2474 169.972 57.4134 170.2 57.5371C170.434 57.6543 170.708 57.7129 171.02 57.7129C171.476 57.7129 171.873 57.6217 172.212 57.4395C172.55 57.2507 172.814 57.0228 173.003 56.7559C173.191 56.4889 173.292 56.235 173.305 55.9941L174.047 57.1074C173.956 57.3743 173.82 57.6576 173.637 57.957C173.455 58.2565 173.221 58.5365 172.934 58.7969C172.648 59.0573 172.303 59.2721 171.899 59.4414C171.495 59.6107 171.027 59.6953 170.493 59.6953C169.809 59.6953 169.197 59.5586 168.657 59.2852C168.116 59.0117 167.69 58.6374 167.378 58.1621C167.065 57.6868 166.909 57.1465 166.909 56.541C166.909 55.9811 167.013 55.4863 167.221 55.0566C167.43 54.627 167.739 54.2656 168.149 53.9727C168.559 53.6732 169.067 53.4486 169.672 53.2988C170.284 53.1426 170.984 53.0645 171.772 53.0645H173.51ZM180.649 51.0918V59.5H178.071V48.9336H180.512L180.649 51.0918ZM183.862 48.8652L183.823 51.2676C183.68 51.2415 183.517 51.222 183.335 51.209C183.159 51.196 182.993 51.1895 182.837 51.1895C182.439 51.1895 182.091 51.2448 181.792 51.3555C181.492 51.4596 181.241 51.6126 181.04 51.8145C180.844 52.0163 180.695 52.2637 180.59 52.5566C180.486 52.8431 180.428 53.1686 180.415 53.5332L179.858 53.4648C179.858 52.7943 179.926 52.1725 180.063 51.5996C180.2 51.0267 180.398 50.5254 180.659 50.0957C180.919 49.666 181.245 49.334 181.635 49.0996C182.033 48.8587 182.488 48.7383 183.003 48.7383C183.146 48.7383 183.299 48.7513 183.462 48.7773C183.631 48.7969 183.764 48.8262 183.862 48.8652ZM187.856 44.4902V59.5H185.278V44.4902H187.856ZM194.477 48.9336L189.878 54.0996L187.387 56.6289L186.567 54.627L188.491 52.2051L191.362 48.9336H194.477ZM191.84 59.5L188.569 54.5781L190.288 52.9082L194.829 59.5H191.84ZM200.395 59.6953C199.594 59.6953 198.875 59.5651 198.237 59.3047C197.599 59.0443 197.055 58.6829 196.606 58.2207C196.163 57.752 195.822 57.2083 195.581 56.5898C195.346 55.9648 195.229 55.2943 195.229 54.5781V54.1875C195.229 53.3737 195.346 52.6348 195.581 51.9707C195.815 51.3001 196.147 50.724 196.577 50.2422C197.006 49.7604 197.521 49.3893 198.12 49.1289C198.719 48.8685 199.38 48.7383 200.102 48.7383C200.851 48.7383 201.512 48.8652 202.085 49.1191C202.658 49.3665 203.136 49.7181 203.52 50.1738C203.904 50.6296 204.194 51.1764 204.389 51.8145C204.585 52.446 204.682 53.1458 204.682 53.9141V54.998H196.401V53.2207H202.143V53.0254C202.13 52.6152 202.052 52.2409 201.909 51.9023C201.766 51.5573 201.544 51.2839 201.245 51.082C200.945 50.8737 200.558 50.7695 200.083 50.7695C199.699 50.7695 199.363 50.8542 199.077 51.0234C198.797 51.1862 198.562 51.4206 198.374 51.7266C198.191 52.026 198.055 52.3841 197.964 52.8008C197.872 53.2174 197.827 53.6797 197.827 54.1875V54.5781C197.827 55.0208 197.885 55.431 198.003 55.8086C198.126 56.1862 198.305 56.515 198.54 56.7949C198.781 57.0684 199.067 57.2832 199.399 57.4395C199.738 57.5892 200.122 57.6641 200.551 57.6641C201.092 57.6641 201.58 57.5599 202.016 57.3516C202.459 57.1367 202.843 56.821 203.169 56.4043L204.467 57.752C204.246 58.0775 203.947 58.39 203.569 58.6895C203.198 58.9889 202.749 59.2331 202.221 59.4219C201.694 59.6042 201.085 59.6953 200.395 59.6953ZM211.411 48.9336V50.7891H205.356V48.9336H211.411ZM206.977 46.3359H209.565V56.4531C209.565 56.7656 209.607 57.0065 209.692 57.1758C209.777 57.3451 209.904 57.459 210.073 57.5176C210.242 57.5762 210.444 57.6055 210.678 57.6055C210.848 57.6055 211.004 57.5957 211.147 57.5762C211.29 57.5566 211.411 57.5371 211.508 57.5176L211.518 59.4512C211.303 59.5228 211.059 59.5814 210.786 59.627C210.519 59.6725 210.216 59.6953 209.878 59.6953C209.298 59.6953 208.79 59.5977 208.354 59.4023C207.918 59.2005 207.579 58.8783 207.339 58.4355C207.098 57.9863 206.977 57.3939 206.977 56.6582V46.3359ZM215.864 48.9336V59.5H213.276V48.9336H215.864ZM213.1 46.1699C213.1 45.7858 213.23 45.4668 213.491 45.2129C213.758 44.959 214.116 44.832 214.565 44.832C215.014 44.832 215.369 44.959 215.63 45.2129C215.896 45.4668 216.03 45.7858 216.03 46.1699C216.03 46.5475 215.896 46.8633 215.63 47.1172C215.369 47.3711 215.014 47.498 214.565 47.498C214.116 47.498 213.758 47.3711 213.491 47.1172C213.23 46.8633 213.1 46.5475 213.1 46.1699ZM220.854 51.1895V59.5H218.276V48.9336H220.698L220.854 51.1895ZM220.444 53.8359H219.682C219.689 53.0677 219.793 52.3711 219.995 51.7461C220.197 51.1211 220.48 50.584 220.844 50.1348C221.215 49.6855 221.655 49.3405 222.163 49.0996C222.671 48.8587 223.237 48.7383 223.862 48.7383C224.37 48.7383 224.829 48.8099 225.239 48.9531C225.649 49.0964 226.001 49.3242 226.294 49.6367C226.593 49.9492 226.821 50.3594 226.977 50.8672C227.14 51.3685 227.221 51.987 227.221 52.7227V59.5H224.624V52.7031C224.624 52.2214 224.552 51.8405 224.409 51.5605C224.272 51.2806 224.07 51.082 223.803 50.9648C223.543 50.8477 223.221 50.7891 222.837 50.7891C222.439 50.7891 222.091 50.8704 221.792 51.0332C221.499 51.1895 221.251 51.4076 221.049 51.6875C220.854 51.9674 220.704 52.2897 220.6 52.6543C220.496 53.0189 220.444 53.4128 220.444 53.8359ZM236.215 48.9336H238.559V59.1777C238.559 60.1348 238.351 60.9453 237.934 61.6094C237.524 62.2799 236.948 62.7878 236.206 63.1328C235.464 63.4844 234.601 63.6602 233.618 63.6602C233.195 63.6602 232.736 63.6016 232.241 63.4844C231.753 63.3672 231.281 63.1816 230.825 62.9277C230.376 62.6803 230.001 62.3581 229.702 61.9609L230.864 60.4375C231.215 60.8477 231.613 61.1569 232.055 61.3652C232.498 61.5801 232.977 61.6875 233.491 61.6875C234.012 61.6875 234.454 61.5898 234.819 61.3945C235.19 61.2057 235.473 60.9258 235.669 60.5547C235.87 60.1901 235.971 59.7409 235.971 59.207V51.3457L236.215 48.9336ZM229.077 54.3438V54.1387C229.077 53.3314 229.174 52.599 229.37 51.9414C229.565 51.2773 229.845 50.7077 230.21 50.2324C230.581 49.7572 231.027 49.3893 231.547 49.1289C232.075 48.8685 232.667 48.7383 233.325 48.7383C234.021 48.7383 234.607 48.8652 235.083 49.1191C235.564 49.373 235.962 49.7344 236.274 50.2031C236.593 50.6719 236.84 51.2285 237.016 51.873C237.199 52.5111 237.339 53.2142 237.436 53.9824V54.5391C237.345 55.2878 237.199 55.9746 236.997 56.5996C236.801 57.2246 236.541 57.7715 236.215 58.2402C235.89 58.7025 235.486 59.0605 235.005 59.3145C234.523 59.5684 233.956 59.6953 233.305 59.6953C232.654 59.6953 232.068 59.5618 231.547 59.2949C231.027 59.028 230.581 58.6536 230.21 58.1719C229.845 57.6901 229.565 57.1237 229.37 56.4727C229.174 55.8216 229.077 55.112 229.077 54.3438ZM231.655 54.1387V54.3438C231.655 54.7995 231.7 55.2259 231.792 55.623C231.883 56.0202 232.023 56.3717 232.212 56.6777C232.4 56.9772 232.638 57.2116 232.924 57.3809C233.211 57.5501 233.553 57.6348 233.95 57.6348C234.484 57.6348 234.92 57.5241 235.258 57.3027C235.603 57.0749 235.864 56.7656 236.04 56.375C236.222 55.9779 236.339 55.5319 236.391 55.0371V53.5039C236.359 53.1133 236.287 52.752 236.176 52.4199C236.072 52.0879 235.926 51.8014 235.737 51.5605C235.548 51.3197 235.307 51.1309 235.014 50.9941C234.721 50.8574 234.373 50.7891 233.969 50.7891C233.579 50.7891 233.237 50.877 232.944 51.0527C232.651 51.222 232.41 51.4596 232.221 51.7656C232.033 52.0716 231.889 52.4264 231.792 52.8301C231.7 53.2337 231.655 53.6699 231.655 54.1387Z" fill="black"/>
<path d="M151.787 81.4092L150.486 81.0752L151.128 74.7031H157.693V76.2061H152.507L152.121 79.6865C152.355 79.5518 152.651 79.4258 153.008 79.3086C153.372 79.1914 153.788 79.1328 154.256 79.1328C154.848 79.1328 155.379 79.2354 155.847 79.4404C156.316 79.6396 156.714 79.9268 157.043 80.3018C157.377 80.6768 157.631 81.1279 157.807 81.6553C157.983 82.1826 158.071 82.7715 158.071 83.4219C158.071 84.0371 157.986 84.6025 157.816 85.1182C157.652 85.6338 157.403 86.085 157.069 86.4717C156.735 86.8525 156.313 87.1484 155.803 87.3594C155.299 87.5703 154.705 87.6758 154.019 87.6758C153.504 87.6758 153.014 87.6055 152.551 87.4648C152.094 87.3184 151.684 87.0986 151.321 86.8057C150.964 86.5068 150.671 86.1377 150.442 85.6982C150.219 85.2529 150.079 84.7314 150.02 84.1338H151.567C151.637 84.6143 151.778 85.0186 151.989 85.3467C152.2 85.6748 152.475 85.9238 152.815 86.0938C153.161 86.2578 153.562 86.3398 154.019 86.3398C154.406 86.3398 154.749 86.2725 155.047 86.1377C155.346 86.0029 155.598 85.8096 155.803 85.5576C156.008 85.3057 156.164 85.001 156.269 84.6436C156.38 84.2861 156.436 83.8848 156.436 83.4395C156.436 83.0352 156.38 82.6602 156.269 82.3145C156.158 81.9688 155.991 81.667 155.768 81.4092C155.551 81.1514 155.285 80.9521 154.968 80.8115C154.652 80.665 154.289 80.5918 153.879 80.5918C153.334 80.5918 152.921 80.665 152.639 80.8115C152.364 80.958 152.08 81.1572 151.787 81.4092ZM167.888 80.082V82.0332C167.888 83.082 167.795 83.9668 167.607 84.6875C167.42 85.4082 167.15 85.9883 166.798 86.4277C166.447 86.8672 166.022 87.1865 165.524 87.3857C165.032 87.5791 164.475 87.6758 163.854 87.6758C163.362 87.6758 162.908 87.6143 162.492 87.4912C162.076 87.3682 161.701 87.1719 161.367 86.9023C161.039 86.627 160.757 86.2695 160.523 85.8301C160.289 85.3906 160.11 84.8574 159.987 84.2305C159.864 83.6035 159.802 82.8711 159.802 82.0332V80.082C159.802 79.0332 159.896 78.1543 160.084 77.4453C160.277 76.7363 160.549 76.168 160.901 75.7402C161.253 75.3066 161.674 74.9961 162.167 74.8086C162.665 74.6211 163.221 74.5273 163.837 74.5273C164.335 74.5273 164.792 74.5889 165.208 74.7119C165.63 74.8291 166.005 75.0195 166.333 75.2832C166.661 75.541 166.939 75.8867 167.168 76.3203C167.402 76.748 167.581 77.2725 167.704 77.8936C167.827 78.5146 167.888 79.2441 167.888 80.082ZM166.254 82.2969V79.8096C166.254 79.2354 166.218 78.7314 166.148 78.2979C166.084 77.8584 165.987 77.4834 165.858 77.1729C165.729 76.8623 165.565 76.6104 165.366 76.417C165.172 76.2236 164.947 76.083 164.689 75.9951C164.437 75.9014 164.153 75.8545 163.837 75.8545C163.45 75.8545 163.107 75.9277 162.808 76.0742C162.509 76.2148 162.257 76.4404 162.052 76.751C161.853 77.0615 161.701 77.4688 161.595 77.9727C161.49 78.4766 161.437 79.0889 161.437 79.8096V82.2969C161.437 82.8711 161.469 83.3779 161.534 83.8174C161.604 84.2568 161.707 84.6377 161.841 84.96C161.976 85.2764 162.14 85.5371 162.334 85.7422C162.527 85.9473 162.75 86.0996 163.002 86.1992C163.259 86.293 163.544 86.3398 163.854 86.3398C164.253 86.3398 164.601 86.2637 164.9 86.1113C165.199 85.959 165.448 85.7217 165.647 85.3994C165.852 85.0713 166.005 84.6523 166.104 84.1426C166.204 83.627 166.254 83.0117 166.254 82.2969ZM178.374 80.6357V82.165H169.602V80.6357H178.374ZM174.805 76.9004V86.2168H173.179V76.9004H174.805ZM192.805 83.4307H194.493C194.405 84.2393 194.173 84.9629 193.798 85.6016C193.423 86.2402 192.893 86.7471 192.208 87.1221C191.522 87.4912 190.667 87.6758 189.641 87.6758C188.891 87.6758 188.209 87.5352 187.593 87.2539C186.984 86.9727 186.46 86.5742 186.02 86.0586C185.581 85.5371 185.241 84.9131 185.001 84.1865C184.766 83.4541 184.649 82.6396 184.649 81.7432V80.4688C184.649 79.5723 184.766 78.7607 185.001 78.0342C185.241 77.3018 185.584 76.6748 186.029 76.1533C186.48 75.6318 187.022 75.2305 187.655 74.9492C188.288 74.668 189 74.5273 189.791 74.5273C190.757 74.5273 191.575 74.709 192.243 75.0723C192.911 75.4355 193.429 75.9395 193.798 76.584C194.173 77.2227 194.405 77.9639 194.493 78.8076H192.805C192.723 78.21 192.571 77.6973 192.348 77.2695C192.126 76.8359 191.809 76.502 191.399 76.2676C190.989 76.0332 190.453 75.916 189.791 75.916C189.222 75.916 188.721 76.0244 188.288 76.2412C187.86 76.458 187.5 76.7656 187.207 77.1641C186.92 77.5625 186.703 78.04 186.556 78.5967C186.41 79.1533 186.337 79.7715 186.337 80.4512V81.7432C186.337 82.3701 186.401 82.959 186.53 83.5098C186.665 84.0605 186.867 84.5439 187.136 84.96C187.406 85.376 187.749 85.7041 188.165 85.9443C188.581 86.1787 189.073 86.2959 189.641 86.2959C190.362 86.2959 190.936 86.1816 191.364 85.9531C191.792 85.7246 192.114 85.3965 192.331 84.9688C192.553 84.541 192.712 84.0283 192.805 83.4307ZM196.128 82.8506V82.6484C196.128 81.9629 196.227 81.3271 196.426 80.7412C196.626 80.1494 196.913 79.6367 197.288 79.2031C197.663 78.7637 198.117 78.4238 198.65 78.1836C199.183 77.9375 199.781 77.8145 200.443 77.8145C201.111 77.8145 201.712 77.9375 202.245 78.1836C202.784 78.4238 203.241 78.7637 203.616 79.2031C203.997 79.6367 204.287 80.1494 204.486 80.7412C204.685 81.3271 204.785 81.9629 204.785 82.6484V82.8506C204.785 83.5361 204.685 84.1719 204.486 84.7578C204.287 85.3438 203.997 85.8564 203.616 86.2959C203.241 86.7295 202.787 87.0693 202.254 87.3154C201.726 87.5557 201.129 87.6758 200.461 87.6758C199.793 87.6758 199.192 87.5557 198.659 87.3154C198.126 87.0693 197.669 86.7295 197.288 86.2959C196.913 85.8564 196.626 85.3438 196.426 84.7578C196.227 84.1719 196.128 83.5361 196.128 82.8506ZM197.754 82.6484V82.8506C197.754 83.3252 197.809 83.7734 197.921 84.1953C198.032 84.6113 198.199 84.9805 198.422 85.3027C198.65 85.625 198.934 85.8799 199.274 86.0674C199.614 86.249 200.009 86.3398 200.461 86.3398C200.906 86.3398 201.296 86.249 201.63 86.0674C201.969 85.8799 202.251 85.625 202.473 85.3027C202.696 84.9805 202.863 84.6113 202.974 84.1953C203.091 83.7734 203.15 83.3252 203.15 82.8506V82.6484C203.15 82.1797 203.091 81.7373 202.974 81.3213C202.863 80.8994 202.693 80.5273 202.464 80.2051C202.242 79.877 201.961 79.6191 201.621 79.4316C201.287 79.2441 200.894 79.1504 200.443 79.1504C199.998 79.1504 199.605 79.2441 199.265 79.4316C198.931 79.6191 198.65 79.877 198.422 80.2051C198.199 80.5273 198.032 80.8994 197.921 81.3213C197.809 81.7373 197.754 82.1797 197.754 82.6484ZM212.642 85.3027V77.9902H214.277V87.5H212.721L212.642 85.3027ZM212.95 83.2988L213.627 83.2812C213.627 83.9141 213.559 84.5 213.424 85.0391C213.296 85.5723 213.085 86.0352 212.792 86.4277C212.499 86.8203 212.115 87.1279 211.64 87.3506C211.166 87.5674 210.589 87.6758 209.909 87.6758C209.446 87.6758 209.021 87.6084 208.634 87.4736C208.254 87.3389 207.925 87.1309 207.65 86.8496C207.375 86.5684 207.161 86.2021 207.008 85.751C206.862 85.2998 206.789 84.7578 206.789 84.125V77.9902H208.415V84.1426C208.415 84.5703 208.462 84.9248 208.555 85.2061C208.655 85.4814 208.787 85.7012 208.951 85.8652C209.121 86.0234 209.308 86.1348 209.513 86.1992C209.724 86.2637 209.941 86.2959 210.164 86.2959C210.855 86.2959 211.403 86.1641 211.807 85.9004C212.212 85.6309 212.502 85.2705 212.677 84.8193C212.859 84.3623 212.95 83.8555 212.95 83.2988ZM218.381 79.4844V87.5H216.755V77.9902H218.338L218.381 79.4844ZM221.352 77.9375L221.343 79.4492C221.209 79.4199 221.08 79.4023 220.957 79.3965C220.839 79.3848 220.705 79.3789 220.552 79.3789C220.177 79.3789 219.846 79.4375 219.559 79.5547C219.272 79.6719 219.029 79.8359 218.83 80.0469C218.63 80.2578 218.472 80.5098 218.355 80.8027C218.244 81.0898 218.171 81.4062 218.135 81.752L217.678 82.0156C217.678 81.4414 217.734 80.9023 217.845 80.3984C217.963 79.8945 218.141 79.4492 218.381 79.0625C218.622 78.6699 218.926 78.3652 219.296 78.1484C219.671 77.9258 220.116 77.8145 220.631 77.8145C220.749 77.8145 220.883 77.8291 221.036 77.8584C221.188 77.8818 221.294 77.9082 221.352 77.9375ZM228.392 84.9775C228.392 84.7432 228.339 84.5264 228.234 84.3271C228.134 84.1221 227.926 83.9375 227.61 83.7734C227.299 83.6035 226.831 83.457 226.204 83.334C225.676 83.2227 225.199 83.0908 224.771 82.9385C224.349 82.7861 223.989 82.6016 223.69 82.3848C223.397 82.168 223.172 81.9131 223.013 81.6201C222.855 81.3271 222.776 80.9844 222.776 80.5918C222.776 80.2168 222.858 79.8623 223.022 79.5283C223.192 79.1943 223.429 78.8984 223.734 78.6406C224.045 78.3828 224.417 78.1807 224.85 78.0342C225.284 77.8877 225.767 77.8145 226.3 77.8145C227.062 77.8145 227.713 77.9492 228.252 78.2188C228.791 78.4883 229.204 78.8486 229.491 79.2998C229.778 79.7451 229.922 80.2402 229.922 80.7852H228.296C228.296 80.5215 228.216 80.2666 228.058 80.0205C227.906 79.7686 227.68 79.5605 227.381 79.3965C227.089 79.2324 226.728 79.1504 226.3 79.1504C225.849 79.1504 225.483 79.2207 225.202 79.3613C224.926 79.4961 224.724 79.6689 224.595 79.8799C224.472 80.0908 224.411 80.3135 224.411 80.5479C224.411 80.7236 224.44 80.8818 224.499 81.0225C224.563 81.1572 224.674 81.2832 224.833 81.4004C224.991 81.5117 225.214 81.6172 225.501 81.7168C225.788 81.8164 226.154 81.916 226.599 82.0156C227.379 82.1914 228.02 82.4023 228.524 82.6484C229.028 82.8945 229.403 83.1963 229.649 83.5537C229.895 83.9111 230.018 84.3447 230.018 84.8545C230.018 85.2705 229.93 85.6514 229.755 85.9971C229.585 86.3428 229.336 86.6416 229.007 86.8936C228.685 87.1396 228.298 87.333 227.847 87.4736C227.402 87.6084 226.901 87.6758 226.344 87.6758C225.506 87.6758 224.797 87.5264 224.217 87.2275C223.637 86.9287 223.198 86.542 222.899 86.0674C222.6 85.5928 222.451 85.0918 222.451 84.5645H224.086C224.109 85.0098 224.238 85.3643 224.472 85.6279C224.707 85.8857 224.994 86.0703 225.334 86.1816C225.673 86.2871 226.01 86.3398 226.344 86.3398C226.79 86.3398 227.162 86.2812 227.461 86.1641C227.765 86.0469 227.997 85.8857 228.155 85.6807C228.313 85.4756 228.392 85.2412 228.392 84.9775ZM236.1 87.6758C235.438 87.6758 234.838 87.5645 234.298 87.3418C233.765 87.1133 233.305 86.7939 232.919 86.3838C232.538 85.9736 232.245 85.4873 232.04 84.9248C231.835 84.3623 231.732 83.7471 231.732 83.0791V82.71C231.732 81.9365 231.846 81.248 232.075 80.6445C232.303 80.0352 232.614 79.5195 233.006 79.0977C233.399 78.6758 233.844 78.3564 234.342 78.1396C234.84 77.9229 235.356 77.8145 235.889 77.8145C236.569 77.8145 237.155 77.9316 237.647 78.166C238.145 78.4004 238.552 78.7285 238.869 79.1504C239.185 79.5664 239.42 80.0586 239.572 80.627C239.724 81.1895 239.8 81.8047 239.8 82.4727V83.2021H232.699V81.875H238.174V81.752C238.151 81.3301 238.063 80.9199 237.911 80.5215C237.764 80.123 237.53 79.7949 237.208 79.5371C236.885 79.2793 236.446 79.1504 235.889 79.1504C235.52 79.1504 235.18 79.2295 234.87 79.3877C234.559 79.54 234.293 79.7686 234.07 80.0732C233.847 80.3779 233.674 80.75 233.551 81.1895C233.428 81.6289 233.367 82.1357 233.367 82.71V83.0791C233.367 83.5303 233.428 83.9551 233.551 84.3535C233.68 84.7461 233.865 85.0918 234.105 85.3906C234.351 85.6895 234.647 85.9238 234.993 86.0938C235.344 86.2637 235.743 86.3486 236.188 86.3486C236.762 86.3486 237.249 86.2314 237.647 85.9971C238.046 85.7627 238.394 85.4492 238.693 85.0566L239.677 85.8389C239.472 86.1494 239.212 86.4453 238.895 86.7266C238.579 87.0078 238.189 87.2363 237.726 87.4121C237.269 87.5879 236.727 87.6758 236.1 87.6758ZM247.236 84.9775C247.236 84.7432 247.183 84.5264 247.078 84.3271C246.978 84.1221 246.77 83.9375 246.454 83.7734C246.143 83.6035 245.674 83.457 245.047 83.334C244.52 83.2227 244.043 83.0908 243.615 82.9385C243.193 82.7861 242.833 82.6016 242.534 82.3848C242.241 82.168 242.015 81.9131 241.857 81.6201C241.699 81.3271 241.62 80.9844 241.62 80.5918C241.62 80.2168 241.702 79.8623 241.866 79.5283C242.036 79.1943 242.273 78.8984 242.578 78.6406C242.888 78.3828 243.26 78.1807 243.694 78.0342C244.128 77.8877 244.611 77.8145 245.144 77.8145C245.906 77.8145 246.556 77.9492 247.095 78.2188C247.634 78.4883 248.047 78.8486 248.335 79.2998C248.622 79.7451 248.765 80.2402 248.765 80.7852H247.139C247.139 80.5215 247.06 80.2666 246.902 80.0205C246.75 79.7686 246.524 79.5605 246.225 79.3965C245.932 79.2324 245.572 79.1504 245.144 79.1504C244.693 79.1504 244.327 79.2207 244.046 79.3613C243.77 79.4961 243.568 79.6689 243.439 79.8799C243.316 80.0908 243.255 80.3135 243.255 80.5479C243.255 80.7236 243.284 80.8818 243.342 81.0225C243.407 81.1572 243.518 81.2832 243.676 81.4004C243.835 81.5117 244.057 81.6172 244.344 81.7168C244.631 81.8164 244.998 81.916 245.443 82.0156C246.222 82.1914 246.864 82.4023 247.368 82.6484C247.872 82.8945 248.247 83.1963 248.493 83.5537C248.739 83.9111 248.862 84.3447 248.862 84.8545C248.862 85.2705 248.774 85.6514 248.598 85.9971C248.428 86.3428 248.179 86.6416 247.851 86.8936C247.529 87.1396 247.142 87.333 246.691 87.4736C246.246 87.6084 245.745 87.6758 245.188 87.6758C244.35 87.6758 243.641 87.5264 243.061 87.2275C242.481 86.9287 242.042 86.542 241.743 86.0674C241.444 85.5928 241.295 85.0918 241.295 84.5645H242.929C242.953 85.0098 243.082 85.3643 243.316 85.6279C243.55 85.8857 243.838 86.0703 244.177 86.1816C244.517 86.2871 244.854 86.3398 245.188 86.3398C245.633 86.3398 246.005 86.2812 246.304 86.1641C246.609 86.0469 246.84 85.8857 246.999 85.6807C247.157 85.4756 247.236 85.2412 247.236 84.9775ZM260.446 75.8369L256.21 87.5H254.478L259.356 74.7031H260.472L260.446 75.8369ZM263.997 87.5L259.752 75.8369L259.725 74.7031H260.841L265.737 87.5H263.997ZM263.777 82.7627V84.1514H256.588V82.7627H263.777ZM269.657 86.0322L272.258 77.9902H273.92L270.501 87.5H269.411L269.657 86.0322ZM267.486 77.9902L270.167 86.0762L270.351 87.5H269.261L265.816 77.9902H267.486ZM280.951 85.874V80.9785C280.951 80.6035 280.875 80.2783 280.722 80.0029C280.576 79.7217 280.353 79.5049 280.054 79.3525C279.755 79.2002 279.386 79.124 278.947 79.124C278.537 79.124 278.176 79.1943 277.866 79.335C277.561 79.4756 277.321 79.6602 277.145 79.8887C276.975 80.1172 276.89 80.3633 276.89 80.627H275.264C275.264 80.2871 275.352 79.9502 275.528 79.6162C275.704 79.2822 275.956 78.9805 276.284 78.7109C276.618 78.4355 277.016 78.2188 277.479 78.0605C277.948 77.8965 278.469 77.8145 279.044 77.8145C279.735 77.8145 280.344 77.9316 280.872 78.166C281.405 78.4004 281.821 78.7549 282.12 79.2295C282.424 79.6982 282.577 80.2871 282.577 80.9961V85.4258C282.577 85.7422 282.603 86.0791 282.656 86.4365C282.714 86.7939 282.799 87.1016 282.911 87.3594V87.5H281.214C281.132 87.3125 281.068 87.0635 281.021 86.7529C280.974 86.4365 280.951 86.1436 280.951 85.874ZM281.232 81.7344L281.25 82.877H279.606C279.143 82.877 278.73 82.915 278.367 82.9912C278.004 83.0615 277.699 83.1699 277.453 83.3164C277.207 83.4629 277.019 83.6475 276.89 83.8701C276.761 84.0869 276.697 84.3418 276.697 84.6348C276.697 84.9336 276.764 85.2061 276.899 85.4521C277.034 85.6982 277.236 85.8945 277.505 86.041C277.781 86.1816 278.118 86.252 278.516 86.252C279.014 86.252 279.454 86.1465 279.835 85.9355C280.215 85.7246 280.517 85.4668 280.74 85.1621C280.968 84.8574 281.091 84.5615 281.109 84.2744L281.803 85.0566C281.762 85.3027 281.651 85.5752 281.469 85.874C281.288 86.1729 281.045 86.46 280.74 86.7354C280.441 87.0049 280.084 87.2305 279.668 87.4121C279.257 87.5879 278.795 87.6758 278.279 87.6758C277.634 87.6758 277.069 87.5498 276.583 87.2979C276.102 87.0459 275.727 86.709 275.458 86.2871C275.194 85.8594 275.062 85.3818 275.062 84.8545C275.062 84.3447 275.162 83.8965 275.361 83.5098C275.56 83.1172 275.847 82.792 276.222 82.5342C276.597 82.2705 277.048 82.0713 277.576 81.9365C278.103 81.8018 278.692 81.7344 279.342 81.7344H281.232ZM286.901 77.9902V87.5H285.266V77.9902H286.901ZM285.143 75.4678C285.143 75.2041 285.222 74.9814 285.38 74.7998C285.545 74.6182 285.785 74.5273 286.101 74.5273C286.412 74.5273 286.649 74.6182 286.813 74.7998C286.983 74.9814 287.068 75.2041 287.068 75.4678C287.068 75.7197 286.983 75.9365 286.813 76.1182C286.649 76.2939 286.412 76.3818 286.101 76.3818C285.785 76.3818 285.545 76.2939 285.38 76.1182C285.222 75.9365 285.143 75.7197 285.143 75.4678ZM291.278 74V87.5H289.643V74H291.278ZM299.496 85.874V80.9785C299.496 80.6035 299.42 80.2783 299.267 80.0029C299.121 79.7217 298.898 79.5049 298.599 79.3525C298.3 79.2002 297.931 79.124 297.492 79.124C297.082 79.124 296.721 79.1943 296.411 79.335C296.106 79.4756 295.866 79.6602 295.69 79.8887C295.52 80.1172 295.435 80.3633 295.435 80.627H293.809C293.809 80.2871 293.897 79.9502 294.073 79.6162C294.249 79.2822 294.501 78.9805 294.829 78.7109C295.163 78.4355 295.561 78.2188 296.024 78.0605C296.493 77.8965 297.014 77.8145 297.589 77.8145C298.28 77.8145 298.889 77.9316 299.417 78.166C299.95 78.4004 300.366 78.7549 300.665 79.2295C300.969 79.6982 301.122 80.2871 301.122 80.9961V85.4258C301.122 85.7422 301.148 86.0791 301.201 86.4365C301.259 86.7939 301.344 87.1016 301.456 87.3594V87.5H299.759C299.677 87.3125 299.613 87.0635 299.566 86.7529C299.519 86.4365 299.496 86.1436 299.496 85.874ZM299.777 81.7344L299.795 82.877H298.151C297.688 82.877 297.275 82.915 296.912 82.9912C296.548 83.0615 296.244 83.1699 295.998 83.3164C295.752 83.4629 295.564 83.6475 295.435 83.8701C295.306 84.0869 295.242 84.3418 295.242 84.6348C295.242 84.9336 295.309 85.2061 295.444 85.4521C295.579 85.6982 295.781 85.8945 296.05 86.041C296.326 86.1816 296.663 86.252 297.061 86.252C297.559 86.252 297.999 86.1465 298.38 85.9355C298.76 85.7246 299.062 85.4668 299.285 85.1621C299.513 84.8574 299.636 84.5615 299.654 84.2744L300.348 85.0566C300.307 85.3027 300.196 85.5752 300.014 85.874C299.833 86.1729 299.589 86.46 299.285 86.7354C298.986 87.0049 298.629 87.2305 298.213 87.4121C297.802 87.5879 297.339 87.6758 296.824 87.6758C296.179 87.6758 295.614 87.5498 295.128 87.2979C294.647 87.0459 294.272 86.709 294.003 86.2871C293.739 85.8594 293.607 85.3818 293.607 84.8545C293.607 84.3447 293.707 83.8965 293.906 83.5098C294.105 83.1172 294.392 82.792 294.767 82.5342C295.142 82.2705 295.593 82.0713 296.121 81.9365C296.648 81.8018 297.237 81.7344 297.887 81.7344H299.777ZM303.671 74H305.305V85.6543L305.165 87.5H303.671V74ZM311.73 82.666V82.8506C311.73 83.542 311.648 84.1836 311.484 84.7754C311.32 85.3613 311.08 85.8711 310.763 86.3047C310.447 86.7383 310.06 87.0752 309.603 87.3154C309.146 87.5557 308.622 87.6758 308.03 87.6758C307.426 87.6758 306.896 87.5732 306.439 87.3682C305.988 87.1572 305.607 86.8555 305.297 86.4629C304.986 86.0703 304.737 85.5957 304.549 85.0391C304.368 84.4824 304.242 83.8555 304.172 83.1582V82.3496C304.242 81.6465 304.368 81.0166 304.549 80.46C304.737 79.9033 304.986 79.4287 305.297 79.0361C305.607 78.6377 305.988 78.3359 306.439 78.1309C306.89 77.9199 307.415 77.8145 308.012 77.8145C308.61 77.8145 309.14 77.9316 309.603 78.166C310.066 78.3945 310.453 78.7227 310.763 79.1504C311.08 79.5781 311.32 80.0908 311.484 80.6885C311.648 81.2803 311.73 81.9395 311.73 82.666ZM310.095 82.8506V82.666C310.095 82.1914 310.051 81.7461 309.964 81.3301C309.876 80.9082 309.735 80.5391 309.542 80.2227C309.348 79.9004 309.093 79.6484 308.777 79.4668C308.461 79.2793 308.071 79.1855 307.608 79.1855C307.198 79.1855 306.84 79.2559 306.536 79.3965C306.237 79.5371 305.982 79.7275 305.771 79.9678C305.56 80.2021 305.387 80.4717 305.253 80.7764C305.124 81.0752 305.027 81.3857 304.963 81.708V83.8262C305.056 84.2363 305.209 84.6318 305.42 85.0127C305.636 85.3877 305.923 85.6953 306.281 85.9355C306.644 86.1758 307.092 86.2959 307.626 86.2959C308.065 86.2959 308.44 86.208 308.751 86.0322C309.067 85.8506 309.322 85.6016 309.515 85.2852C309.714 84.9688 309.861 84.6025 309.955 84.1865C310.048 83.7705 310.095 83.3252 310.095 82.8506ZM315.553 74V87.5H313.919V74H315.553ZM322.11 87.6758C321.448 87.6758 320.847 87.5645 320.308 87.3418C319.775 87.1133 319.315 86.7939 318.928 86.3838C318.547 85.9736 318.255 85.4873 318.049 84.9248C317.844 84.3623 317.742 83.7471 317.742 83.0791V82.71C317.742 81.9365 317.856 81.248 318.085 80.6445C318.313 80.0352 318.624 79.5195 319.016 79.0977C319.409 78.6758 319.854 78.3564 320.352 78.1396C320.85 77.9229 321.366 77.8145 321.899 77.8145C322.579 77.8145 323.165 77.9316 323.657 78.166C324.155 78.4004 324.562 78.7285 324.879 79.1504C325.195 79.5664 325.429 80.0586 325.582 80.627C325.734 81.1895 325.81 81.8047 325.81 82.4727V83.2021H318.709V81.875H324.184V81.752C324.161 81.3301 324.073 80.9199 323.921 80.5215C323.774 80.123 323.54 79.7949 323.217 79.5371C322.895 79.2793 322.456 79.1504 321.899 79.1504C321.53 79.1504 321.19 79.2295 320.88 79.3877C320.569 79.54 320.302 79.7686 320.08 80.0732C319.857 80.3779 319.684 80.75 319.561 81.1895C319.438 81.6289 319.377 82.1357 319.377 82.71V83.0791C319.377 83.5303 319.438 83.9551 319.561 84.3535C319.69 84.7461 319.875 85.0918 320.115 85.3906C320.361 85.6895 320.657 85.9238 321.003 86.0938C321.354 86.2637 321.753 86.3486 322.198 86.3486C322.772 86.3486 323.258 86.2314 323.657 85.9971C324.055 85.7627 324.404 85.4492 324.703 85.0566L325.687 85.8389C325.482 86.1494 325.221 86.4453 324.905 86.7266C324.589 87.0078 324.199 87.2363 323.736 87.4121C323.279 87.5879 322.737 87.6758 322.11 87.6758Z" fill="black"/>
</svg>
