<svg width="411" height="132" viewBox="0 0 411 132" fill="none" xmlns="http://www.w3.org/2000/svg">
<rect x="0.333313" width="410.667" height="132" rx="5" fill="#F7F7F7"/>
<rect x="16.3333" y="16" width="100" height="100" rx="5" fill="white"/>
<path d="M55 74V59.3333C55 54 56.3333 52.6666 61.6666 52.6666H71C76.3333 52.6666 77.6666 54 77.6666 59.3333V72.6666C77.6666 72.8533 77.6666 73.04 77.6533 73.2266" stroke="#292D32" stroke-width="1.5" stroke-linecap="round" stroke-linejoin="round"/>
<path d="M58.8 70H77.6666V74.6667C77.6666 77.24 75.5733 79.3333 73 79.3333H59.6666C57.0933 79.3333 55 77.24 55 74.6667V73.8C55 71.7067 56.7066 70 58.8 70Z" stroke="#292D32" stroke-width="1.5" stroke-linecap="round" stroke-linejoin="round"/>
<path d="M61 59.3334H71.6666" stroke="#292D32" stroke-width="1.5" stroke-linecap="round" stroke-linejoin="round"/>
<path d="M61 64H67.6666" stroke="#292D32" stroke-width="1.5" stroke-linecap="round" stroke-linejoin="round"/>
<path d="M158.011 54.8223H160.697C160.625 55.7728 160.361 56.6159 159.906 57.3516C159.45 58.0807 158.815 58.6536 158.001 59.0703C157.187 59.487 156.201 59.6953 155.042 59.6953C154.15 59.6953 153.346 59.5391 152.63 59.2266C151.921 58.9076 151.312 58.4551 150.804 57.8691C150.303 57.2767 149.919 56.5671 149.652 55.7402C149.385 54.9069 149.251 53.9727 149.251 52.9375V51.8535C149.251 50.8184 149.388 49.8841 149.661 49.0508C149.935 48.2174 150.326 47.5078 150.833 46.9219C151.348 46.3294 151.963 45.8737 152.679 45.5547C153.402 45.2357 154.209 45.0762 155.101 45.0762C156.26 45.0762 157.24 45.291 158.04 45.7207C158.841 46.1439 159.463 46.7266 159.906 47.4688C160.348 48.2109 160.615 49.0638 160.706 50.0273H158.021C157.969 49.4284 157.839 48.9206 157.63 48.5039C157.428 48.0872 157.122 47.7715 156.712 47.5566C156.309 47.3353 155.771 47.2246 155.101 47.2246C154.58 47.2246 154.121 47.3223 153.724 47.5176C153.333 47.7129 153.008 48.0059 152.747 48.3965C152.487 48.7806 152.292 49.2624 152.161 49.8418C152.031 50.4147 151.966 51.0788 151.966 51.834V52.9375C151.966 53.6602 152.025 54.3079 152.142 54.8809C152.259 55.4538 152.441 55.9388 152.689 56.3359C152.936 56.7331 153.255 57.0358 153.646 57.2441C154.036 57.4525 154.502 57.5566 155.042 57.5566C155.7 57.5566 156.234 57.4525 156.644 57.2441C157.061 57.0358 157.376 56.7298 157.591 56.3262C157.812 55.9225 157.952 55.4212 158.011 54.8223ZM162.122 54.3242V54.1191C162.122 53.3444 162.233 52.6315 162.454 51.9805C162.676 51.3229 162.998 50.7533 163.421 50.2715C163.844 49.7897 164.362 49.4154 164.974 49.1484C165.586 48.875 166.283 48.7383 167.064 48.7383C167.858 48.7383 168.561 48.875 169.173 49.1484C169.792 49.4154 170.312 49.7897 170.736 50.2715C171.159 50.7533 171.481 51.3229 171.702 51.9805C171.924 52.6315 172.034 53.3444 172.034 54.1191V54.3242C172.034 55.0924 171.924 55.8053 171.702 56.4629C171.481 57.1139 171.159 57.6836 170.736 58.1719C170.312 58.6536 169.795 59.028 169.183 59.2949C168.571 59.5618 167.871 59.6953 167.083 59.6953C166.302 59.6953 165.602 59.5618 164.984 59.2949C164.365 59.028 163.844 58.6536 163.421 58.1719C162.998 57.6836 162.676 57.1139 162.454 56.4629C162.233 55.8053 162.122 55.0924 162.122 54.3242ZM164.701 54.1191V54.3242C164.701 54.7865 164.746 55.2194 164.837 55.623C164.928 56.0267 165.068 56.3815 165.257 56.6875C165.446 56.9935 165.69 57.2344 165.99 57.4102C166.296 57.5794 166.66 57.6641 167.083 57.6641C167.5 57.6641 167.858 57.5794 168.158 57.4102C168.457 57.2344 168.701 56.9935 168.89 56.6875C169.085 56.3815 169.228 56.0267 169.32 55.623C169.411 55.2194 169.456 54.7865 169.456 54.3242V54.1191C169.456 53.6634 169.411 53.237 169.32 52.8398C169.228 52.4362 169.085 52.0814 168.89 51.7754C168.701 51.4629 168.454 51.2188 168.148 51.043C167.848 50.8607 167.487 50.7695 167.064 50.7695C166.647 50.7695 166.289 50.8607 165.99 51.043C165.69 51.2188 165.446 51.4629 165.257 51.7754C165.068 52.0814 164.928 52.4362 164.837 52.8398C164.746 53.237 164.701 53.6634 164.701 54.1191ZM176.439 51.1895V59.5H173.861V48.9336H176.283L176.439 51.1895ZM176.029 53.8359H175.267C175.273 53.0677 175.378 52.3711 175.579 51.7461C175.781 51.1211 176.064 50.584 176.429 50.1348C176.8 49.6855 177.24 49.3405 177.747 49.0996C178.255 48.8587 178.822 48.7383 179.447 48.7383C179.954 48.7383 180.413 48.8099 180.824 48.9531C181.234 49.0964 181.585 49.3242 181.878 49.6367C182.178 49.9492 182.406 50.3594 182.562 50.8672C182.725 51.3685 182.806 51.987 182.806 52.7227V59.5H180.208V52.7031C180.208 52.2214 180.137 51.8405 179.993 51.5605C179.857 51.2806 179.655 51.082 179.388 50.9648C179.128 50.8477 178.805 50.7891 178.421 50.7891C178.024 50.7891 177.676 50.8704 177.376 51.0332C177.083 51.1895 176.836 51.4076 176.634 51.6875C176.439 51.9674 176.289 52.2897 176.185 52.6543C176.081 53.0189 176.029 53.4128 176.029 53.8359ZM190.892 56.6094C190.892 56.388 190.833 56.1895 190.716 56.0137C190.599 55.8379 190.378 55.6784 190.052 55.5352C189.733 55.3854 189.264 55.2454 188.646 55.1152C188.099 54.998 187.594 54.8516 187.132 54.6758C186.67 54.5 186.273 54.2884 185.941 54.041C185.609 53.7871 185.348 53.4909 185.159 53.1523C184.977 52.8073 184.886 52.4102 184.886 51.9609C184.886 51.5247 184.98 51.1146 185.169 50.7305C185.358 50.3398 185.631 49.998 185.99 49.7051C186.348 49.4056 186.784 49.1712 187.298 49.002C187.812 48.8262 188.392 48.7383 189.036 48.7383C189.935 48.7383 190.706 48.8848 191.351 49.1777C192.002 49.4707 192.5 49.8743 192.845 50.3887C193.19 50.8965 193.363 51.4694 193.363 52.1074H190.784C190.784 51.8275 190.719 51.5736 190.589 51.3457C190.465 51.1178 190.273 50.9355 190.013 50.7988C189.753 50.6556 189.424 50.584 189.027 50.584C188.669 50.584 188.366 50.6426 188.118 50.7598C187.878 50.877 187.695 51.0299 187.572 51.2188C187.448 51.4076 187.386 51.6159 187.386 51.8438C187.386 52.013 187.419 52.166 187.484 52.3027C187.555 52.4329 187.669 52.5534 187.826 52.6641C187.982 52.7747 188.193 52.8757 188.46 52.9668C188.734 53.0579 189.069 53.1458 189.466 53.2305C190.254 53.3867 190.941 53.5951 191.527 53.8555C192.119 54.1094 192.581 54.4479 192.913 54.8711C193.245 55.2943 193.411 55.8346 193.411 56.4922C193.411 56.9609 193.311 57.3906 193.109 57.7812C192.907 58.1654 192.614 58.5007 192.23 58.7871C191.846 59.0736 191.387 59.2982 190.853 59.4609C190.319 59.6172 189.717 59.6953 189.046 59.6953C188.076 59.6953 187.256 59.5228 186.585 59.1777C185.915 58.8262 185.407 58.3835 185.062 57.8496C184.717 57.3092 184.544 56.7493 184.544 56.1699H187.015C187.034 56.5801 187.145 56.9089 187.347 57.1562C187.549 57.4036 187.803 57.5827 188.109 57.6934C188.421 57.7975 188.75 57.8496 189.095 57.8496C189.486 57.8496 189.814 57.7975 190.081 57.6934C190.348 57.5827 190.55 57.4362 190.687 57.2539C190.824 57.0651 190.892 56.8503 190.892 56.6094ZM201.663 56.9902V48.9336H204.261V59.5H201.82L201.663 56.9902ZM201.995 54.8027L202.796 54.7832C202.796 55.4928 202.718 56.1471 202.562 56.7461C202.406 57.3451 202.161 57.8659 201.829 58.3086C201.504 58.7448 201.09 59.0866 200.589 59.334C200.088 59.5749 199.495 59.6953 198.812 59.6953C198.291 59.6953 197.816 59.6237 197.386 59.4805C196.956 59.3307 196.585 59.0996 196.273 58.7871C195.967 58.4681 195.729 58.0612 195.56 57.5664C195.391 57.0651 195.306 56.4629 195.306 55.7598V48.9336H197.884V55.7793C197.884 56.1309 197.923 56.4238 198.001 56.6582C198.086 56.8926 198.2 57.0846 198.343 57.2344C198.493 57.3776 198.665 57.4818 198.861 57.5469C199.062 57.6055 199.277 57.6348 199.505 57.6348C200.13 57.6348 200.622 57.5111 200.98 57.2637C201.344 57.0098 201.605 56.6712 201.761 56.248C201.917 55.8184 201.995 55.3366 201.995 54.8027ZM209.281 44.5V59.5H206.693V44.5H209.281ZM216.742 48.9336V50.7891H210.687V48.9336H216.742ZM212.308 46.3359H214.896V56.4531C214.896 56.7656 214.938 57.0065 215.023 57.1758C215.107 57.3451 215.234 57.459 215.404 57.5176C215.573 57.5762 215.775 57.6055 216.009 57.6055C216.178 57.6055 216.335 57.5957 216.478 57.5762C216.621 57.5566 216.742 57.5371 216.839 57.5176L216.849 59.4512C216.634 59.5228 216.39 59.5814 216.117 59.627C215.85 59.6725 215.547 59.6953 215.208 59.6953C214.629 59.6953 214.121 59.5977 213.685 59.4023C213.249 59.2005 212.91 58.8783 212.669 58.4355C212.428 57.9863 212.308 57.3939 212.308 56.6582V46.3359ZM221.195 48.9336V59.5H218.607V48.9336H221.195ZM218.431 46.1699C218.431 45.7858 218.561 45.4668 218.822 45.2129C219.089 44.959 219.447 44.832 219.896 44.832C220.345 44.832 220.7 44.959 220.96 45.2129C221.227 45.4668 221.361 45.7858 221.361 46.1699C221.361 46.5475 221.227 46.8633 220.96 47.1172C220.7 47.3711 220.345 47.498 219.896 47.498C219.447 47.498 219.089 47.3711 218.822 47.1172C218.561 46.8633 218.431 46.5475 218.431 46.1699ZM226.185 51.1895V59.5H223.607V48.9336H226.029L226.185 51.1895ZM225.775 53.8359H225.013C225.02 53.0677 225.124 52.3711 225.326 51.7461C225.527 51.1211 225.811 50.584 226.175 50.1348C226.546 49.6855 226.986 49.3405 227.493 49.0996C228.001 48.8587 228.568 48.7383 229.193 48.7383C229.701 48.7383 230.159 48.8099 230.57 48.9531C230.98 49.0964 231.331 49.3242 231.624 49.6367C231.924 49.9492 232.152 50.3594 232.308 50.8672C232.471 51.3685 232.552 51.987 232.552 52.7227V59.5H229.954V52.7031C229.954 52.2214 229.883 51.8405 229.74 51.5605C229.603 51.2806 229.401 51.082 229.134 50.9648C228.874 50.8477 228.551 50.7891 228.167 50.7891C227.77 50.7891 227.422 50.8704 227.122 51.0332C226.829 51.1895 226.582 51.4076 226.38 51.6875C226.185 51.9674 226.035 52.2897 225.931 52.6543C225.827 53.0189 225.775 53.4128 225.775 53.8359ZM241.546 48.9336H243.89V59.1777C243.89 60.1348 243.682 60.9453 243.265 61.6094C242.855 62.2799 242.279 62.7878 241.536 63.1328C240.794 63.4844 239.932 63.6602 238.949 63.6602C238.525 63.6602 238.066 63.6016 237.572 63.4844C237.083 63.3672 236.611 63.1816 236.156 62.9277C235.706 62.6803 235.332 62.3581 235.033 61.9609L236.195 60.4375C236.546 60.8477 236.943 61.1569 237.386 61.3652C237.829 61.5801 238.307 61.6875 238.822 61.6875C239.342 61.6875 239.785 61.5898 240.15 61.3945C240.521 61.2057 240.804 60.9258 240.999 60.5547C241.201 60.1901 241.302 59.7409 241.302 59.207V51.3457L241.546 48.9336ZM234.408 54.3438V54.1387C234.408 53.3314 234.505 52.599 234.701 51.9414C234.896 51.2773 235.176 50.7077 235.54 50.2324C235.911 49.7572 236.357 49.3893 236.878 49.1289C237.406 48.8685 237.998 48.7383 238.656 48.7383C239.352 48.7383 239.938 48.8652 240.413 49.1191C240.895 49.373 241.292 49.7344 241.605 50.2031C241.924 50.6719 242.171 51.2285 242.347 51.873C242.529 52.5111 242.669 53.2142 242.767 53.9824V54.5391C242.676 55.2878 242.529 55.9746 242.327 56.5996C242.132 57.2246 241.872 57.7715 241.546 58.2402C241.221 58.7025 240.817 59.0605 240.335 59.3145C239.853 59.5684 239.287 59.6953 238.636 59.6953C237.985 59.6953 237.399 59.5618 236.878 59.2949C236.357 59.028 235.911 58.6536 235.54 58.1719C235.176 57.6901 234.896 57.1237 234.701 56.4727C234.505 55.8216 234.408 55.112 234.408 54.3438ZM236.986 54.1387V54.3438C236.986 54.7995 237.031 55.2259 237.122 55.623C237.214 56.0202 237.353 56.3717 237.542 56.6777C237.731 56.9772 237.969 57.2116 238.255 57.3809C238.542 57.5501 238.883 57.6348 239.281 57.6348C239.814 57.6348 240.251 57.5241 240.589 57.3027C240.934 57.0749 241.195 56.7656 241.37 56.375C241.553 55.9779 241.67 55.5319 241.722 55.0371V53.5039C241.689 53.1133 241.618 52.752 241.507 52.4199C241.403 52.0879 241.256 51.8014 241.068 51.5605C240.879 51.3197 240.638 51.1309 240.345 50.9941C240.052 50.8574 239.704 50.7891 239.3 50.7891C238.909 50.7891 238.568 50.877 238.275 51.0527C237.982 51.222 237.741 51.4596 237.552 51.7656C237.363 52.0716 237.22 52.4264 237.122 52.8301C237.031 53.2337 236.986 53.6699 236.986 54.1387Z" fill="black"/>
<path d="M151.453 81.4092L150.153 81.0752L150.794 74.7031H157.36V76.2061H152.174L151.787 79.6865C152.022 79.5518 152.318 79.4258 152.675 79.3086C153.038 79.1914 153.454 79.1328 153.923 79.1328C154.515 79.1328 155.045 79.2354 155.514 79.4404C155.983 79.6396 156.381 79.9268 156.709 80.3018C157.043 80.6768 157.298 81.1279 157.474 81.6553C157.65 82.1826 157.738 82.7715 157.738 83.4219C157.738 84.0371 157.653 84.6025 157.483 85.1182C157.319 85.6338 157.07 86.085 156.736 86.4717C156.402 86.8525 155.98 87.1484 155.47 87.3594C154.966 87.5703 154.371 87.6758 153.686 87.6758C153.17 87.6758 152.681 87.6055 152.218 87.4648C151.761 87.3184 151.351 87.0986 150.988 86.8057C150.63 86.5068 150.337 86.1377 150.109 85.6982C149.886 85.2529 149.745 84.7314 149.687 84.1338H151.234C151.304 84.6143 151.445 85.0186 151.656 85.3467C151.867 85.6748 152.142 85.9238 152.482 86.0938C152.827 86.2578 153.229 86.3398 153.686 86.3398C154.073 86.3398 154.415 86.2725 154.714 86.1377C155.013 86.0029 155.265 85.8096 155.47 85.5576C155.675 85.3057 155.83 85.001 155.936 84.6436C156.047 84.2861 156.103 83.8848 156.103 83.4395C156.103 83.0352 156.047 82.6602 155.936 82.3145C155.825 81.9688 155.658 81.667 155.435 81.4092C155.218 81.1514 154.951 80.9521 154.635 80.8115C154.319 80.665 153.955 80.5918 153.545 80.5918C153 80.5918 152.587 80.665 152.306 80.8115C152.031 80.958 151.746 81.1572 151.453 81.4092ZM167.555 80.082V82.0332C167.555 83.082 167.461 83.9668 167.274 84.6875C167.086 85.4082 166.817 85.9883 166.465 86.4277C166.114 86.8672 165.689 87.1865 165.191 87.3857C164.699 87.5791 164.142 87.6758 163.521 87.6758C163.029 87.6758 162.575 87.6143 162.159 87.4912C161.742 87.3682 161.367 87.1719 161.034 86.9023C160.705 86.627 160.424 86.2695 160.19 85.8301C159.955 85.3906 159.777 84.8574 159.654 84.2305C159.531 83.6035 159.469 82.8711 159.469 82.0332V80.082C159.469 79.0332 159.563 78.1543 159.75 77.4453C159.944 76.7363 160.216 76.168 160.568 75.7402C160.919 75.3066 161.341 74.9961 161.833 74.8086C162.331 74.6211 162.888 74.5273 163.503 74.5273C164.001 74.5273 164.458 74.5889 164.874 74.7119C165.296 74.8291 165.671 75.0195 165.999 75.2832C166.327 75.541 166.606 75.8867 166.834 76.3203C167.069 76.748 167.247 77.2725 167.37 77.8936C167.493 78.5146 167.555 79.2441 167.555 80.082ZM165.92 82.2969V79.8096C165.92 79.2354 165.885 78.7314 165.815 78.2979C165.75 77.8584 165.654 77.4834 165.525 77.1729C165.396 76.8623 165.232 76.6104 165.033 76.417C164.839 76.2236 164.614 76.083 164.356 75.9951C164.104 75.9014 163.82 75.8545 163.503 75.8545C163.117 75.8545 162.774 75.9277 162.475 76.0742C162.176 76.2148 161.924 76.4404 161.719 76.751C161.52 77.0615 161.367 77.4688 161.262 77.9727C161.157 78.4766 161.104 79.0889 161.104 79.8096V82.2969C161.104 82.8711 161.136 83.3779 161.201 83.8174C161.271 84.2568 161.373 84.6377 161.508 84.96C161.643 85.2764 161.807 85.5371 162 85.7422C162.194 85.9473 162.416 86.0996 162.668 86.1992C162.926 86.293 163.21 86.3398 163.521 86.3398C163.919 86.3398 164.268 86.2637 164.567 86.1113C164.866 85.959 165.115 85.7217 165.314 85.3994C165.519 85.0713 165.671 84.6523 165.771 84.1426C165.87 83.627 165.92 83.0117 165.92 82.2969ZM178.04 80.6357V82.165H169.269V80.6357H178.04ZM174.472 76.9004V86.2168H172.846V76.9004H174.472ZM192.472 83.4307H194.159C194.072 84.2393 193.84 84.9629 193.465 85.6016C193.09 86.2402 192.56 86.7471 191.874 87.1221C191.189 87.4912 190.333 87.6758 189.308 87.6758C188.558 87.6758 187.875 87.5352 187.26 87.2539C186.651 86.9727 186.126 86.5742 185.687 86.0586C185.247 85.5371 184.908 84.9131 184.667 84.1865C184.433 83.4541 184.316 82.6396 184.316 81.7432V80.4688C184.316 79.5723 184.433 78.7607 184.667 78.0342C184.908 77.3018 185.25 76.6748 185.696 76.1533C186.147 75.6318 186.689 75.2305 187.322 74.9492C187.954 74.668 188.666 74.5273 189.457 74.5273C190.424 74.5273 191.242 74.709 191.909 75.0723C192.577 75.4355 193.096 75.9395 193.465 76.584C193.84 77.2227 194.072 77.9639 194.159 78.8076H192.472C192.39 78.21 192.238 77.6973 192.015 77.2695C191.792 76.8359 191.476 76.502 191.066 76.2676C190.656 76.0332 190.119 75.916 189.457 75.916C188.889 75.916 188.388 76.0244 187.954 76.2412C187.527 76.458 187.166 76.7656 186.873 77.1641C186.586 77.5625 186.369 78.04 186.223 78.5967C186.076 79.1533 186.003 79.7715 186.003 80.4512V81.7432C186.003 82.3701 186.068 82.959 186.197 83.5098C186.331 84.0605 186.534 84.5439 186.803 84.96C187.073 85.376 187.415 85.7041 187.831 85.9443C188.247 86.1787 188.74 86.2959 189.308 86.2959C190.029 86.2959 190.603 86.1816 191.031 85.9531C191.458 85.7246 191.781 85.3965 191.997 84.9688C192.22 84.541 192.378 84.0283 192.472 83.4307ZM195.794 82.8506V82.6484C195.794 81.9629 195.894 81.3271 196.093 80.7412C196.292 80.1494 196.579 79.6367 196.954 79.2031C197.329 78.7637 197.784 78.4238 198.317 78.1836C198.85 77.9375 199.448 77.8145 200.11 77.8145C200.778 77.8145 201.378 77.9375 201.911 78.1836C202.451 78.4238 202.908 78.7637 203.283 79.2031C203.663 79.6367 203.953 80.1494 204.153 80.7412C204.352 81.3271 204.451 81.9629 204.451 82.6484V82.8506C204.451 83.5361 204.352 84.1719 204.153 84.7578C203.953 85.3438 203.663 85.8564 203.283 86.2959C202.908 86.7295 202.453 87.0693 201.92 87.3154C201.393 87.5557 200.795 87.6758 200.127 87.6758C199.459 87.6758 198.859 87.5557 198.326 87.3154C197.792 87.0693 197.335 86.7295 196.954 86.2959C196.579 85.8564 196.292 85.3438 196.093 84.7578C195.894 84.1719 195.794 83.5361 195.794 82.8506ZM197.42 82.6484V82.8506C197.42 83.3252 197.476 83.7734 197.587 84.1953C197.699 84.6113 197.866 84.9805 198.088 85.3027C198.317 85.625 198.601 85.8799 198.941 86.0674C199.281 86.249 199.676 86.3398 200.127 86.3398C200.573 86.3398 200.962 86.249 201.296 86.0674C201.636 85.8799 201.917 85.625 202.14 85.3027C202.363 84.9805 202.53 84.6113 202.641 84.1953C202.758 83.7734 202.817 83.3252 202.817 82.8506V82.6484C202.817 82.1797 202.758 81.7373 202.641 81.3213C202.53 80.8994 202.36 80.5273 202.131 80.2051C201.909 79.877 201.627 79.6191 201.287 79.4316C200.953 79.2441 200.561 79.1504 200.11 79.1504C199.664 79.1504 199.272 79.2441 198.932 79.4316C198.598 79.6191 198.317 79.877 198.088 80.2051C197.866 80.5273 197.699 80.8994 197.587 81.3213C197.476 81.7373 197.42 82.1797 197.42 82.6484ZM212.309 85.3027V77.9902H213.944V87.5H212.388L212.309 85.3027ZM212.617 83.2988L213.293 83.2812C213.293 83.9141 213.226 84.5 213.091 85.0391C212.962 85.5723 212.751 86.0352 212.458 86.4277C212.165 86.8203 211.782 87.1279 211.307 87.3506C210.832 87.5674 210.255 87.6758 209.576 87.6758C209.113 87.6758 208.688 87.6084 208.301 87.4736C207.92 87.3389 207.592 87.1309 207.317 86.8496C207.041 86.5684 206.827 86.2021 206.675 85.751C206.529 85.2998 206.455 84.7578 206.455 84.125V77.9902H208.081V84.1426C208.081 84.5703 208.128 84.9248 208.222 85.2061C208.322 85.4814 208.453 85.7012 208.617 85.8652C208.787 86.0234 208.975 86.1348 209.18 86.1992C209.391 86.2637 209.608 86.2959 209.83 86.2959C210.522 86.2959 211.07 86.1641 211.474 85.9004C211.878 85.6309 212.168 85.2705 212.344 84.8193C212.526 84.3623 212.617 83.8555 212.617 83.2988ZM218.048 79.4844V87.5H216.422V77.9902H218.004L218.048 79.4844ZM221.019 77.9375L221.01 79.4492C220.875 79.4199 220.746 79.4023 220.623 79.3965C220.506 79.3848 220.371 79.3789 220.219 79.3789C219.844 79.3789 219.513 79.4375 219.226 79.5547C218.939 79.6719 218.696 79.8359 218.496 80.0469C218.297 80.2578 218.139 80.5098 218.022 80.8027C217.91 81.0898 217.837 81.4062 217.802 81.752L217.345 82.0156C217.345 81.4414 217.401 80.9023 217.512 80.3984C217.629 79.8945 217.808 79.4492 218.048 79.0625C218.288 78.6699 218.593 78.3652 218.962 78.1484C219.337 77.9258 219.783 77.8145 220.298 77.8145C220.415 77.8145 220.55 77.8291 220.702 77.8584C220.855 77.8818 220.96 77.9082 221.019 77.9375ZM228.059 84.9775C228.059 84.7432 228.006 84.5264 227.901 84.3271C227.801 84.1221 227.593 83.9375 227.277 83.7734C226.966 83.6035 226.497 83.457 225.87 83.334C225.343 83.2227 224.866 83.0908 224.438 82.9385C224.016 82.7861 223.656 82.6016 223.357 82.3848C223.064 82.168 222.838 81.9131 222.68 81.6201C222.522 81.3271 222.443 80.9844 222.443 80.5918C222.443 80.2168 222.525 79.8623 222.689 79.5283C222.859 79.1943 223.096 78.8984 223.401 78.6406C223.711 78.3828 224.083 78.1807 224.517 78.0342C224.951 77.8877 225.434 77.8145 225.967 77.8145C226.729 77.8145 227.379 77.9492 227.918 78.2188C228.457 78.4883 228.87 78.8486 229.158 79.2998C229.445 79.7451 229.588 80.2402 229.588 80.7852H227.962C227.962 80.5215 227.883 80.2666 227.725 80.0205C227.573 79.7686 227.347 79.5605 227.048 79.3965C226.755 79.2324 226.395 79.1504 225.967 79.1504C225.516 79.1504 225.15 79.2207 224.868 79.3613C224.593 79.4961 224.391 79.6689 224.262 79.8799C224.139 80.0908 224.077 80.3135 224.077 80.5479C224.077 80.7236 224.107 80.8818 224.165 81.0225C224.23 81.1572 224.341 81.2832 224.499 81.4004C224.658 81.5117 224.88 81.6172 225.167 81.7168C225.454 81.8164 225.821 81.916 226.266 82.0156C227.045 82.1914 227.687 82.4023 228.191 82.6484C228.695 82.8945 229.07 83.1963 229.316 83.5537C229.562 83.9111 229.685 84.3447 229.685 84.8545C229.685 85.2705 229.597 85.6514 229.421 85.9971C229.251 86.3428 229.002 86.6416 228.674 86.8936C228.352 87.1396 227.965 87.333 227.514 87.4736C227.069 87.6084 226.568 87.6758 226.011 87.6758C225.173 87.6758 224.464 87.5264 223.884 87.2275C223.304 86.9287 222.865 86.542 222.566 86.0674C222.267 85.5928 222.117 85.0918 222.117 84.5645H223.752C223.776 85.0098 223.905 85.3643 224.139 85.6279C224.373 85.8857 224.66 86.0703 225 86.1816C225.34 86.2871 225.677 86.3398 226.011 86.3398C226.456 86.3398 226.828 86.2812 227.127 86.1641C227.432 86.0469 227.663 85.8857 227.822 85.6807C227.98 85.4756 228.059 85.2412 228.059 84.9775ZM235.767 87.6758C235.105 87.6758 234.504 87.5645 233.965 87.3418C233.432 87.1133 232.972 86.7939 232.585 86.3838C232.204 85.9736 231.911 85.4873 231.706 84.9248C231.501 84.3623 231.399 83.7471 231.399 83.0791V82.71C231.399 81.9365 231.513 81.248 231.742 80.6445C231.97 80.0352 232.281 79.5195 232.673 79.0977C233.066 78.6758 233.511 78.3564 234.009 78.1396C234.507 77.9229 235.023 77.8145 235.556 77.8145C236.236 77.8145 236.822 77.9316 237.314 78.166C237.812 78.4004 238.219 78.7285 238.535 79.1504C238.852 79.5664 239.086 80.0586 239.239 80.627C239.391 81.1895 239.467 81.8047 239.467 82.4727V83.2021H232.366V81.875H237.841V81.752C237.818 81.3301 237.73 80.9199 237.577 80.5215C237.431 80.123 237.197 79.7949 236.874 79.5371C236.552 79.2793 236.113 79.1504 235.556 79.1504C235.187 79.1504 234.847 79.2295 234.536 79.3877C234.226 79.54 233.959 79.7686 233.737 80.0732C233.514 80.3779 233.341 80.75 233.218 81.1895C233.095 81.6289 233.034 82.1357 233.034 82.71V83.0791C233.034 83.5303 233.095 83.9551 233.218 84.3535C233.347 84.7461 233.532 85.0918 233.772 85.3906C234.018 85.6895 234.314 85.9238 234.659 86.0938C235.011 86.2637 235.409 86.3486 235.855 86.3486C236.429 86.3486 236.915 86.2314 237.314 85.9971C237.712 85.7627 238.061 85.4492 238.36 85.0566L239.344 85.8389C239.139 86.1494 238.878 86.4453 238.562 86.7266C238.245 87.0078 237.856 87.2363 237.393 87.4121C236.936 87.5879 236.394 87.6758 235.767 87.6758ZM246.903 84.9775C246.903 84.7432 246.85 84.5264 246.744 84.3271C246.645 84.1221 246.437 83.9375 246.12 83.7734C245.81 83.6035 245.341 83.457 244.714 83.334C244.187 83.2227 243.709 83.0908 243.282 82.9385C242.86 82.7861 242.499 82.6016 242.201 82.3848C241.908 82.168 241.682 81.9131 241.524 81.6201C241.366 81.3271 241.286 80.9844 241.286 80.5918C241.286 80.2168 241.368 79.8623 241.533 79.5283C241.702 79.1943 241.94 78.8984 242.244 78.6406C242.555 78.3828 242.927 78.1807 243.361 78.0342C243.794 77.8877 244.278 77.8145 244.811 77.8145C245.573 77.8145 246.223 77.9492 246.762 78.2188C247.301 78.4883 247.714 78.8486 248.001 79.2998C248.288 79.7451 248.432 80.2402 248.432 80.7852H246.806C246.806 80.5215 246.727 80.2666 246.569 80.0205C246.416 79.7686 246.191 79.5605 245.892 79.3965C245.599 79.2324 245.239 79.1504 244.811 79.1504C244.36 79.1504 243.993 79.2207 243.712 79.3613C243.437 79.4961 243.235 79.6689 243.106 79.8799C242.983 80.0908 242.921 80.3135 242.921 80.5479C242.921 80.7236 242.951 80.8818 243.009 81.0225C243.074 81.1572 243.185 81.2832 243.343 81.4004C243.501 81.5117 243.724 81.6172 244.011 81.7168C244.298 81.8164 244.664 81.916 245.11 82.0156C245.889 82.1914 246.531 82.4023 247.034 82.6484C247.538 82.8945 247.913 83.1963 248.159 83.5537C248.406 83.9111 248.529 84.3447 248.529 84.8545C248.529 85.2705 248.441 85.6514 248.265 85.9971C248.095 86.3428 247.846 86.6416 247.518 86.8936C247.196 87.1396 246.809 87.333 246.358 87.4736C245.912 87.6084 245.411 87.6758 244.855 87.6758C244.017 87.6758 243.308 87.5264 242.728 87.2275C242.148 86.9287 241.708 86.542 241.409 86.0674C241.111 85.5928 240.961 85.0918 240.961 84.5645H242.596C242.619 85.0098 242.748 85.3643 242.983 85.6279C243.217 85.8857 243.504 86.0703 243.844 86.1816C244.184 86.2871 244.521 86.3398 244.855 86.3398C245.3 86.3398 245.672 86.2812 245.971 86.1641C246.276 86.0469 246.507 85.8857 246.665 85.6807C246.824 85.4756 246.903 85.2412 246.903 84.9775ZM260.113 75.8369L255.876 87.5H254.145L259.023 74.7031H260.139L260.113 75.8369ZM263.663 87.5L259.418 75.8369L259.392 74.7031H260.508L265.404 87.5H263.663ZM263.444 82.7627V84.1514H256.254V82.7627H263.444ZM269.324 86.0322L271.925 77.9902H273.586L270.167 87.5H269.077L269.324 86.0322ZM267.153 77.9902L269.833 86.0762L270.018 87.5H268.928L265.483 77.9902H267.153ZM280.617 85.874V80.9785C280.617 80.6035 280.541 80.2783 280.389 80.0029C280.242 79.7217 280.02 79.5049 279.721 79.3525C279.422 79.2002 279.053 79.124 278.614 79.124C278.203 79.124 277.843 79.1943 277.533 79.335C277.228 79.4756 276.988 79.6602 276.812 79.8887C276.642 80.1172 276.557 80.3633 276.557 80.627H274.931C274.931 80.2871 275.019 79.9502 275.195 79.6162C275.37 79.2822 275.622 78.9805 275.951 78.7109C276.284 78.4355 276.683 78.2188 277.146 78.0605C277.615 77.8965 278.136 77.8145 278.71 77.8145C279.402 77.8145 280.011 77.9316 280.538 78.166C281.072 78.4004 281.488 78.7549 281.786 79.2295C282.091 79.6982 282.243 80.2871 282.243 80.9961V85.4258C282.243 85.7422 282.27 86.0791 282.323 86.4365C282.381 86.7939 282.466 87.1016 282.577 87.3594V87.5H280.881C280.799 87.3125 280.735 87.0635 280.688 86.7529C280.641 86.4365 280.617 86.1436 280.617 85.874ZM280.899 81.7344L280.916 82.877H279.273C278.81 82.877 278.397 82.915 278.034 82.9912C277.67 83.0615 277.366 83.1699 277.119 83.3164C276.873 83.4629 276.686 83.6475 276.557 83.8701C276.428 84.0869 276.364 84.3418 276.364 84.6348C276.364 84.9336 276.431 85.2061 276.566 85.4521C276.701 85.6982 276.903 85.8945 277.172 86.041C277.448 86.1816 277.784 86.252 278.183 86.252C278.681 86.252 279.12 86.1465 279.501 85.9355C279.882 85.7246 280.184 85.4668 280.407 85.1621C280.635 84.8574 280.758 84.5615 280.776 84.2744L281.47 85.0566C281.429 85.3027 281.318 85.5752 281.136 85.874C280.954 86.1729 280.711 86.46 280.407 86.7354C280.108 87.0049 279.75 87.2305 279.334 87.4121C278.924 87.5879 278.461 87.6758 277.946 87.6758C277.301 87.6758 276.736 87.5498 276.249 87.2979C275.769 87.0459 275.394 86.709 275.124 86.2871C274.861 85.8594 274.729 85.3818 274.729 84.8545C274.729 84.3447 274.828 83.8965 275.028 83.5098C275.227 83.1172 275.514 82.792 275.889 82.5342C276.264 82.2705 276.715 82.0713 277.242 81.9365C277.77 81.8018 278.359 81.7344 279.009 81.7344H280.899ZM286.568 77.9902V87.5H284.933V77.9902H286.568ZM284.81 75.4678C284.81 75.2041 284.889 74.9814 285.047 74.7998C285.211 74.6182 285.451 74.5273 285.768 74.5273C286.078 74.5273 286.316 74.6182 286.48 74.7998C286.65 74.9814 286.735 75.2041 286.735 75.4678C286.735 75.7197 286.65 75.9365 286.48 76.1182C286.316 76.2939 286.078 76.3818 285.768 76.3818C285.451 76.3818 285.211 76.2939 285.047 76.1182C284.889 75.9365 284.81 75.7197 284.81 75.4678ZM290.945 74V87.5H289.31V74H290.945ZM299.162 85.874V80.9785C299.162 80.6035 299.086 80.2783 298.934 80.0029C298.787 79.7217 298.565 79.5049 298.266 79.3525C297.967 79.2002 297.598 79.124 297.159 79.124C296.748 79.124 296.388 79.1943 296.077 79.335C295.773 79.4756 295.533 79.6602 295.357 79.8887C295.187 80.1172 295.102 80.3633 295.102 80.627H293.476C293.476 80.2871 293.564 79.9502 293.74 79.6162C293.915 79.2822 294.167 78.9805 294.495 78.7109C294.829 78.4355 295.228 78.2188 295.691 78.0605C296.159 77.8965 296.681 77.8145 297.255 77.8145C297.947 77.8145 298.556 77.9316 299.083 78.166C299.617 78.4004 300.033 78.7549 300.331 79.2295C300.636 79.6982 300.788 80.2871 300.788 80.9961V85.4258C300.788 85.7422 300.815 86.0791 300.867 86.4365C300.926 86.7939 301.011 87.1016 301.122 87.3594V87.5H299.426C299.344 87.3125 299.28 87.0635 299.233 86.7529C299.186 86.4365 299.162 86.1436 299.162 85.874ZM299.444 81.7344L299.461 82.877H297.818C297.355 82.877 296.942 82.915 296.578 82.9912C296.215 83.0615 295.91 83.1699 295.664 83.3164C295.418 83.4629 295.231 83.6475 295.102 83.8701C294.973 84.0869 294.909 84.3418 294.909 84.6348C294.909 84.9336 294.976 85.2061 295.111 85.4521C295.245 85.6982 295.448 85.8945 295.717 86.041C295.992 86.1816 296.329 86.252 296.728 86.252C297.226 86.252 297.665 86.1465 298.046 85.9355C298.427 85.7246 298.729 85.4668 298.951 85.1621C299.18 84.8574 299.303 84.5615 299.321 84.2744L300.015 85.0566C299.974 85.3027 299.863 85.5752 299.681 85.874C299.499 86.1729 299.256 86.46 298.951 86.7354C298.653 87.0049 298.295 87.2305 297.879 87.4121C297.469 87.5879 297.006 87.6758 296.491 87.6758C295.846 87.6758 295.281 87.5498 294.794 87.2979C294.314 87.0459 293.939 86.709 293.669 86.2871C293.406 85.8594 293.274 85.3818 293.274 84.8545C293.274 84.3447 293.373 83.8965 293.573 83.5098C293.772 83.1172 294.059 82.792 294.434 82.5342C294.809 82.2705 295.26 82.0713 295.787 81.9365C296.315 81.8018 296.904 81.7344 297.554 81.7344H299.444ZM303.337 74H304.972V85.6543L304.831 87.5H303.337V74ZM311.397 82.666V82.8506C311.397 83.542 311.315 84.1836 311.151 84.7754C310.987 85.3613 310.746 85.8711 310.43 86.3047C310.114 86.7383 309.727 87.0752 309.27 87.3154C308.813 87.5557 308.288 87.6758 307.697 87.6758C307.093 87.6758 306.563 87.5732 306.106 87.3682C305.655 87.1572 305.274 86.8555 304.963 86.4629C304.653 86.0703 304.404 85.5957 304.216 85.0391C304.034 84.4824 303.909 83.8555 303.838 83.1582V82.3496C303.909 81.6465 304.034 81.0166 304.216 80.46C304.404 79.9033 304.653 79.4287 304.963 79.0361C305.274 78.6377 305.655 78.3359 306.106 78.1309C306.557 77.9199 307.081 77.8145 307.679 77.8145C308.277 77.8145 308.807 77.9316 309.27 78.166C309.733 78.3945 310.119 78.7227 310.43 79.1504C310.746 79.5781 310.987 80.0908 311.151 80.6885C311.315 81.2803 311.397 81.9395 311.397 82.666ZM309.762 82.8506V82.666C309.762 82.1914 309.718 81.7461 309.63 81.3301C309.542 80.9082 309.402 80.5391 309.208 80.2227C309.015 79.9004 308.76 79.6484 308.444 79.4668C308.127 79.2793 307.738 79.1855 307.275 79.1855C306.865 79.1855 306.507 79.2559 306.202 79.3965C305.904 79.5371 305.649 79.7275 305.438 79.9678C305.227 80.2021 305.054 80.4717 304.919 80.7764C304.79 81.0752 304.694 81.3857 304.629 81.708V83.8262C304.723 84.2363 304.875 84.6318 305.086 85.0127C305.303 85.3877 305.59 85.6953 305.948 85.9355C306.311 86.1758 306.759 86.2959 307.292 86.2959C307.732 86.2959 308.107 86.208 308.417 86.0322C308.734 85.8506 308.989 85.6016 309.182 85.2852C309.381 84.9688 309.528 84.6025 309.621 84.1865C309.715 83.7705 309.762 83.3252 309.762 82.8506ZM315.22 74V87.5H313.585V74H315.22ZM321.777 87.6758C321.115 87.6758 320.514 87.5645 319.975 87.3418C319.442 87.1133 318.982 86.7939 318.595 86.3838C318.214 85.9736 317.921 85.4873 317.716 84.9248C317.511 84.3623 317.409 83.7471 317.409 83.0791V82.71C317.409 81.9365 317.523 81.248 317.751 80.6445C317.98 80.0352 318.29 79.5195 318.683 79.0977C319.076 78.6758 319.521 78.3564 320.019 78.1396C320.517 77.9229 321.033 77.8145 321.566 77.8145C322.245 77.8145 322.831 77.9316 323.324 78.166C323.822 78.4004 324.229 78.7285 324.545 79.1504C324.862 79.5664 325.096 80.0586 325.248 80.627C325.401 81.1895 325.477 81.8047 325.477 82.4727V83.2021H318.375V81.875H323.851V81.752C323.827 81.3301 323.74 80.9199 323.587 80.5215C323.441 80.123 323.206 79.7949 322.884 79.5371C322.562 79.2793 322.122 79.1504 321.566 79.1504C321.197 79.1504 320.857 79.2295 320.546 79.3877C320.236 79.54 319.969 79.7686 319.746 80.0732C319.524 80.3779 319.351 80.75 319.228 81.1895C319.105 81.6289 319.043 82.1357 319.043 82.71V83.0791C319.043 83.5303 319.105 83.9551 319.228 84.3535C319.357 84.7461 319.541 85.0918 319.782 85.3906C320.028 85.6895 320.324 85.9238 320.669 86.0938C321.021 86.2637 321.419 86.3486 321.865 86.3486C322.439 86.3486 322.925 86.2314 323.324 85.9971C323.722 85.7627 324.071 85.4492 324.369 85.0566L325.354 85.8389C325.149 86.1494 324.888 86.4453 324.572 86.7266C324.255 87.0078 323.866 87.2363 323.403 87.4121C322.946 87.5879 322.404 87.6758 321.777 87.6758Z" fill="black"/>
</svg>
