<svg width="412" height="132" viewBox="0 0 412 132" fill="none" xmlns="http://www.w3.org/2000/svg">
<rect x="0.666626" width="410.667" height="132" rx="5" fill="#F7F7F7"/>
<rect x="16.6666" y="16" width="100" height="100" rx="5" fill="white"/>
<path d="M68.6666 65.9999C68.6666 70.2399 65.24 73.6666 61 73.6666C56.76 73.6666 53.3333 70.2399 53.3333 65.9999C53.3333 61.7599 56.76 58.3333 61 58.3333" stroke="#292D32" stroke-width="1.5" stroke-linecap="round" stroke-linejoin="round"/>
<path d="M63.9999 66C63.9999 61.5867 67.5866 58 71.9999 58C76.4133 58 79.9999 61.5867 79.9999 66C79.9999 70.4133 76.4133 74 71.9999 74" stroke="#292D32" stroke-width="1.5" stroke-linecap="round" stroke-linejoin="round"/>
<path d="M154.272 59.5H151.206L151.225 57.3906H154.272C155.099 57.3906 155.792 57.2083 156.352 56.8438C156.912 56.4727 157.335 55.9421 157.622 55.252C157.908 54.5553 158.051 53.722 158.051 52.752V52.0195C158.051 51.2708 157.97 50.61 157.807 50.0371C157.644 49.4642 157.404 48.9824 157.085 48.5918C156.772 48.2012 156.385 47.9049 155.922 47.7031C155.46 47.5013 154.93 47.4004 154.331 47.4004H151.147V45.2812H154.331C155.281 45.2812 156.147 45.4408 156.928 45.7598C157.716 46.0788 158.396 46.5378 158.969 47.1367C159.549 47.7292 159.991 48.4388 160.297 49.2656C160.61 50.0924 160.766 51.0169 160.766 52.0391V52.752C160.766 53.7676 160.61 54.6921 160.297 55.5254C159.991 56.3522 159.549 57.0618 158.969 57.6543C158.396 58.2467 157.713 58.7025 156.919 59.0215C156.124 59.3405 155.242 59.5 154.272 59.5ZM152.71 45.2812V59.5H150.024V45.2812H152.71ZM165.59 48.9336V59.5H163.003V48.9336H165.59ZM162.827 46.1699C162.827 45.7858 162.957 45.4668 163.217 45.2129C163.484 44.959 163.842 44.832 164.292 44.832C164.741 44.832 165.096 44.959 165.356 45.2129C165.623 45.4668 165.756 45.7858 165.756 46.1699C165.756 46.5475 165.623 46.8633 165.356 47.1172C165.096 47.3711 164.741 47.498 164.292 47.498C163.842 47.498 163.484 47.3711 163.217 47.1172C162.957 46.8633 162.827 46.5475 162.827 46.1699ZM174.77 48.9336H177.114V59.1777C177.114 60.1348 176.906 60.9453 176.489 61.6094C176.079 62.2799 175.503 62.7878 174.76 63.1328C174.018 63.4844 173.156 63.6602 172.172 63.6602C171.749 63.6602 171.29 63.6016 170.796 63.4844C170.307 63.3672 169.835 63.1816 169.38 62.9277C168.93 62.6803 168.556 62.3581 168.256 61.9609L169.419 60.4375C169.77 60.8477 170.167 61.1569 170.61 61.3652C171.053 61.5801 171.531 61.6875 172.046 61.6875C172.566 61.6875 173.009 61.5898 173.374 61.3945C173.745 61.2057 174.028 60.9258 174.223 60.5547C174.425 60.1901 174.526 59.7409 174.526 59.207V51.3457L174.77 48.9336ZM167.631 54.3438V54.1387C167.631 53.3314 167.729 52.599 167.924 51.9414C168.12 51.2773 168.4 50.7077 168.764 50.2324C169.135 49.7572 169.581 49.3893 170.102 49.1289C170.63 48.8685 171.222 48.7383 171.88 48.7383C172.576 48.7383 173.162 48.8652 173.637 49.1191C174.119 49.373 174.516 49.7344 174.829 50.2031C175.148 50.6719 175.395 51.2285 175.571 51.873C175.753 52.5111 175.893 53.2142 175.991 53.9824V54.5391C175.9 55.2878 175.753 55.9746 175.551 56.5996C175.356 57.2246 175.096 57.7715 174.77 58.2402C174.445 58.7025 174.041 59.0605 173.559 59.3145C173.077 59.5684 172.511 59.6953 171.86 59.6953C171.209 59.6953 170.623 59.5618 170.102 59.2949C169.581 59.028 169.135 58.6536 168.764 58.1719C168.4 57.6901 168.12 57.1237 167.924 56.4727C167.729 55.8216 167.631 55.112 167.631 54.3438ZM170.21 54.1387V54.3438C170.21 54.7995 170.255 55.2259 170.346 55.623C170.437 56.0202 170.577 56.3717 170.766 56.6777C170.955 56.9772 171.193 57.2116 171.479 57.3809C171.766 57.5501 172.107 57.6348 172.505 57.6348C173.038 57.6348 173.475 57.5241 173.813 57.3027C174.158 57.0749 174.419 56.7656 174.594 56.375C174.777 55.9779 174.894 55.5319 174.946 55.0371V53.5039C174.913 53.1133 174.842 52.752 174.731 52.4199C174.627 52.0879 174.48 51.8014 174.292 51.5605C174.103 51.3197 173.862 51.1309 173.569 50.9941C173.276 50.8574 172.928 50.7891 172.524 50.7891C172.133 50.7891 171.792 50.877 171.499 51.0527C171.206 51.222 170.965 51.4596 170.776 51.7656C170.587 52.0716 170.444 52.4264 170.346 52.8301C170.255 53.2337 170.21 53.6699 170.21 54.1387ZM182.172 48.9336V59.5H179.585V48.9336H182.172ZM179.409 46.1699C179.409 45.7858 179.539 45.4668 179.799 45.2129C180.066 44.959 180.424 44.832 180.874 44.832C181.323 44.832 181.678 44.959 181.938 45.2129C182.205 45.4668 182.339 45.7858 182.339 46.1699C182.339 46.5475 182.205 46.8633 181.938 47.1172C181.678 47.3711 181.323 47.498 180.874 47.498C180.424 47.498 180.066 47.3711 179.799 47.1172C179.539 46.8633 179.409 46.5475 179.409 46.1699ZM189.633 48.9336V50.7891H183.579V48.9336H189.633ZM185.2 46.3359H187.788V56.4531C187.788 56.7656 187.83 57.0065 187.915 57.1758C187.999 57.3451 188.126 57.459 188.296 57.5176C188.465 57.5762 188.667 57.6055 188.901 57.6055C189.07 57.6055 189.227 57.5957 189.37 57.5762C189.513 57.5566 189.633 57.5371 189.731 57.5176L189.741 59.4512C189.526 59.5228 189.282 59.5814 189.008 59.627C188.741 59.6725 188.439 59.6953 188.1 59.6953C187.521 59.6953 187.013 59.5977 186.577 59.4023C186.141 59.2005 185.802 58.8783 185.561 58.4355C185.32 57.9863 185.2 57.3939 185.2 56.6582V46.3359ZM197.172 57.2539V52.3809C197.172 52.0228 197.111 51.7135 196.987 51.4531C196.863 51.1927 196.674 50.9909 196.421 50.8477C196.167 50.7044 195.844 50.6328 195.454 50.6328C195.109 50.6328 194.806 50.6914 194.546 50.8086C194.292 50.9258 194.096 51.0918 193.96 51.3066C193.823 51.515 193.755 51.7559 193.755 52.0293H191.167C191.167 51.5931 191.271 51.1797 191.479 50.7891C191.687 50.3919 191.984 50.0404 192.368 49.7344C192.758 49.4219 193.224 49.1777 193.764 49.002C194.311 48.8262 194.923 48.7383 195.6 48.7383C196.401 48.7383 197.114 48.875 197.739 49.1484C198.37 49.4154 198.865 49.819 199.223 50.3594C199.588 50.8997 199.77 51.5801 199.77 52.4004V57.0098C199.77 57.5371 199.803 57.9896 199.868 58.3672C199.939 58.7383 200.044 59.0605 200.18 59.334V59.5H197.553C197.43 59.2331 197.335 58.8945 197.27 58.4844C197.205 58.0677 197.172 57.6576 197.172 57.2539ZM197.534 53.0645L197.553 54.5977H195.922C195.519 54.5977 195.164 54.64 194.858 54.7246C194.552 54.8027 194.301 54.9199 194.106 55.0762C193.911 55.2259 193.764 55.4082 193.667 55.623C193.569 55.8314 193.52 56.069 193.52 56.3359C193.52 56.5964 193.579 56.8307 193.696 57.0391C193.82 57.2474 193.995 57.4134 194.223 57.5371C194.458 57.6543 194.731 57.7129 195.044 57.7129C195.499 57.7129 195.896 57.6217 196.235 57.4395C196.574 57.2507 196.837 57.0228 197.026 56.7559C197.215 56.4889 197.316 56.235 197.329 55.9941L198.071 57.1074C197.98 57.3743 197.843 57.6576 197.661 57.957C197.478 58.2565 197.244 58.5365 196.958 58.7969C196.671 59.0573 196.326 59.2721 195.922 59.4414C195.519 59.6107 195.05 59.6953 194.516 59.6953C193.833 59.6953 193.221 59.5586 192.68 59.2852C192.14 59.0117 191.714 58.6374 191.401 58.1621C191.089 57.6868 190.932 57.1465 190.932 56.541C190.932 55.9811 191.036 55.4863 191.245 55.0566C191.453 54.627 191.762 54.2656 192.172 53.9727C192.583 53.6732 193.09 53.4486 193.696 53.2988C194.308 53.1426 195.008 53.0645 195.796 53.0645H197.534ZM204.829 44.5V59.5H202.241V44.5H204.829ZM213.637 45.2812H215.962L219.848 55.9844L223.725 45.2812H226.059L220.776 59.5H218.911L213.637 45.2812ZM212.465 45.2812H214.741L215.151 55.1152V59.5H212.465V45.2812ZM224.946 45.2812H227.231V59.5H224.546V55.1152L224.946 45.2812ZM235.59 57.2539V52.3809C235.59 52.0228 235.529 51.7135 235.405 51.4531C235.281 51.1927 235.092 50.9909 234.839 50.8477C234.585 50.7044 234.262 50.6328 233.872 50.6328C233.527 50.6328 233.224 50.6914 232.964 50.8086C232.71 50.9258 232.514 51.0918 232.378 51.3066C232.241 51.515 232.172 51.7559 232.172 52.0293H229.585C229.585 51.5931 229.689 51.1797 229.897 50.7891C230.105 50.3919 230.402 50.0404 230.786 49.7344C231.176 49.4219 231.642 49.1777 232.182 49.002C232.729 48.8262 233.341 48.7383 234.018 48.7383C234.819 48.7383 235.532 48.875 236.157 49.1484C236.788 49.4154 237.283 49.819 237.641 50.3594C238.006 50.8997 238.188 51.5801 238.188 52.4004V57.0098C238.188 57.5371 238.221 57.9896 238.286 58.3672C238.357 58.7383 238.462 59.0605 238.598 59.334V59.5H235.971C235.848 59.2331 235.753 58.8945 235.688 58.4844C235.623 58.0677 235.59 57.6576 235.59 57.2539ZM235.952 53.0645L235.971 54.5977H234.34C233.937 54.5977 233.582 54.64 233.276 54.7246C232.97 54.8027 232.719 54.9199 232.524 55.0762C232.329 55.2259 232.182 55.4082 232.085 55.623C231.987 55.8314 231.938 56.069 231.938 56.3359C231.938 56.5964 231.997 56.8307 232.114 57.0391C232.238 57.2474 232.413 57.4134 232.641 57.5371C232.876 57.6543 233.149 57.7129 233.462 57.7129C233.917 57.7129 234.314 57.6217 234.653 57.4395C234.991 57.2507 235.255 57.0228 235.444 56.7559C235.633 56.4889 235.734 56.235 235.747 55.9941L236.489 57.1074C236.398 57.3743 236.261 57.6576 236.079 57.957C235.896 58.2565 235.662 58.5365 235.376 58.7969C235.089 59.0573 234.744 59.2721 234.34 59.4414C233.937 59.6107 233.468 59.6953 232.934 59.6953C232.251 59.6953 231.639 59.5586 231.098 59.2852C230.558 59.0117 230.131 58.6374 229.819 58.1621C229.506 57.6868 229.35 57.1465 229.35 56.541C229.35 55.9811 229.454 55.4863 229.663 55.0566C229.871 54.627 230.18 54.2656 230.59 53.9727C231.001 53.6732 231.508 53.4486 232.114 53.2988C232.726 53.1426 233.426 53.0645 234.214 53.0645H235.952ZM243.09 51.0918V59.5H240.512V48.9336H242.954L243.09 51.0918ZM246.303 48.8652L246.264 51.2676C246.121 51.2415 245.958 51.222 245.776 51.209C245.6 51.196 245.434 51.1895 245.278 51.1895C244.881 51.1895 244.533 51.2448 244.233 51.3555C243.934 51.4596 243.683 51.6126 243.481 51.8145C243.286 52.0163 243.136 52.2637 243.032 52.5566C242.928 52.8431 242.869 53.1686 242.856 53.5332L242.299 53.4648C242.299 52.7943 242.368 52.1725 242.505 51.5996C242.641 51.0267 242.84 50.5254 243.1 50.0957C243.361 49.666 243.686 49.334 244.077 49.0996C244.474 48.8587 244.93 48.7383 245.444 48.7383C245.587 48.7383 245.74 48.7513 245.903 48.7773C246.072 48.7969 246.206 48.8262 246.303 48.8652ZM250.297 44.4902V59.5H247.719V44.4902H250.297ZM256.919 48.9336L252.319 54.0996L249.829 56.6289L249.008 54.627L250.932 52.2051L253.803 48.9336H256.919ZM254.282 59.5L251.01 54.5781L252.729 52.9082L257.27 59.5H254.282ZM262.837 59.6953C262.036 59.6953 261.316 59.5651 260.678 59.3047C260.04 59.0443 259.497 58.6829 259.047 58.2207C258.605 57.752 258.263 57.2083 258.022 56.5898C257.788 55.9648 257.671 55.2943 257.671 54.5781V54.1875C257.671 53.3737 257.788 52.6348 258.022 51.9707C258.256 51.3001 258.589 50.724 259.018 50.2422C259.448 49.7604 259.962 49.3893 260.561 49.1289C261.16 48.8685 261.821 48.7383 262.544 48.7383C263.292 48.7383 263.953 48.8652 264.526 49.1191C265.099 49.3665 265.577 49.7181 265.962 50.1738C266.346 50.6296 266.635 51.1764 266.831 51.8145C267.026 52.446 267.124 53.1458 267.124 53.9141V54.998H258.842V53.2207H264.585V53.0254C264.572 52.6152 264.493 52.2409 264.35 51.9023C264.207 51.5573 263.986 51.2839 263.686 51.082C263.387 50.8737 262.999 50.7695 262.524 50.7695C262.14 50.7695 261.805 50.8542 261.518 51.0234C261.238 51.1862 261.004 51.4206 260.815 51.7266C260.633 52.026 260.496 52.3841 260.405 52.8008C260.314 53.2174 260.268 53.6797 260.268 54.1875V54.5781C260.268 55.0208 260.327 55.431 260.444 55.8086C260.568 56.1862 260.747 56.515 260.981 56.7949C261.222 57.0684 261.508 57.2832 261.84 57.4395C262.179 57.5892 262.563 57.6641 262.993 57.6641C263.533 57.6641 264.021 57.5599 264.458 57.3516C264.9 57.1367 265.284 56.821 265.61 56.4043L266.909 57.752C266.687 58.0775 266.388 58.39 266.01 58.6895C265.639 58.9889 265.19 59.2331 264.663 59.4219C264.135 59.6042 263.527 59.6953 262.837 59.6953ZM273.852 48.9336V50.7891H267.797V48.9336H273.852ZM269.419 46.3359H272.006V56.4531C272.006 56.7656 272.049 57.0065 272.133 57.1758C272.218 57.3451 272.345 57.459 272.514 57.5176C272.684 57.5762 272.885 57.6055 273.12 57.6055C273.289 57.6055 273.445 57.5957 273.589 57.5762C273.732 57.5566 273.852 57.5371 273.95 57.5176L273.96 59.4512C273.745 59.5228 273.501 59.5814 273.227 59.627C272.96 59.6725 272.658 59.6953 272.319 59.6953C271.74 59.6953 271.232 59.5977 270.796 59.4023C270.359 59.2005 270.021 58.8783 269.78 58.4355C269.539 57.9863 269.419 57.3939 269.419 56.6582V46.3359ZM278.305 48.9336V59.5H275.717V48.9336H278.305ZM275.542 46.1699C275.542 45.7858 275.672 45.4668 275.932 45.2129C276.199 44.959 276.557 44.832 277.006 44.832C277.456 44.832 277.811 44.959 278.071 45.2129C278.338 45.4668 278.471 45.7858 278.471 46.1699C278.471 46.5475 278.338 46.8633 278.071 47.1172C277.811 47.3711 277.456 47.498 277.006 47.498C276.557 47.498 276.199 47.3711 275.932 47.1172C275.672 46.8633 275.542 46.5475 275.542 46.1699ZM283.296 51.1895V59.5H280.717V48.9336H283.139L283.296 51.1895ZM282.885 53.8359H282.124C282.13 53.0677 282.234 52.3711 282.436 51.7461C282.638 51.1211 282.921 50.584 283.286 50.1348C283.657 49.6855 284.096 49.3405 284.604 49.0996C285.112 48.8587 285.678 48.7383 286.303 48.7383C286.811 48.7383 287.27 48.8099 287.68 48.9531C288.09 49.0964 288.442 49.3242 288.735 49.6367C289.034 49.9492 289.262 50.3594 289.419 50.8672C289.581 51.3685 289.663 51.987 289.663 52.7227V59.5H287.065V52.7031C287.065 52.2214 286.993 51.8405 286.85 51.5605C286.714 51.2806 286.512 51.082 286.245 50.9648C285.984 50.8477 285.662 50.7891 285.278 50.7891C284.881 50.7891 284.533 50.8704 284.233 51.0332C283.94 51.1895 283.693 51.4076 283.491 51.6875C283.296 51.9674 283.146 52.2897 283.042 52.6543C282.937 53.0189 282.885 53.4128 282.885 53.8359ZM298.657 48.9336H301.001V59.1777C301.001 60.1348 300.792 60.9453 300.376 61.6094C299.965 62.2799 299.389 62.7878 298.647 63.1328C297.905 63.4844 297.042 63.6602 296.059 63.6602C295.636 63.6602 295.177 63.6016 294.682 63.4844C294.194 63.3672 293.722 63.1816 293.266 62.9277C292.817 62.6803 292.443 62.3581 292.143 61.9609L293.305 60.4375C293.657 60.8477 294.054 61.1569 294.497 61.3652C294.939 61.5801 295.418 61.6875 295.932 61.6875C296.453 61.6875 296.896 61.5898 297.26 61.3945C297.631 61.2057 297.915 60.9258 298.11 60.5547C298.312 60.1901 298.413 59.7409 298.413 59.207V51.3457L298.657 48.9336ZM291.518 54.3438V54.1387C291.518 53.3314 291.616 52.599 291.811 51.9414C292.006 51.2773 292.286 50.7077 292.651 50.2324C293.022 49.7572 293.468 49.3893 293.989 49.1289C294.516 48.8685 295.109 48.7383 295.766 48.7383C296.463 48.7383 297.049 48.8652 297.524 49.1191C298.006 49.373 298.403 49.7344 298.715 50.2031C299.034 50.6719 299.282 51.2285 299.458 51.873C299.64 52.5111 299.78 53.2142 299.878 53.9824V54.5391C299.786 55.2878 299.64 55.9746 299.438 56.5996C299.243 57.2246 298.982 57.7715 298.657 58.2402C298.331 58.7025 297.928 59.0605 297.446 59.3145C296.964 59.5684 296.398 59.6953 295.747 59.6953C295.096 59.6953 294.51 59.5618 293.989 59.2949C293.468 59.028 293.022 58.6536 292.651 58.1719C292.286 57.6901 292.006 57.1237 291.811 56.4727C291.616 55.8216 291.518 55.112 291.518 54.3438ZM294.096 54.1387V54.3438C294.096 54.7995 294.142 55.2259 294.233 55.623C294.324 56.0202 294.464 56.3717 294.653 56.6777C294.842 56.9772 295.079 57.2116 295.366 57.3809C295.652 57.5501 295.994 57.6348 296.391 57.6348C296.925 57.6348 297.361 57.5241 297.7 57.3027C298.045 57.0749 298.305 56.7656 298.481 56.375C298.663 55.9779 298.781 55.5319 298.833 55.0371V53.5039C298.8 53.1133 298.728 52.752 298.618 52.4199C298.514 52.0879 298.367 51.8014 298.178 51.5605C297.99 51.3197 297.749 51.1309 297.456 50.9941C297.163 50.8574 296.814 50.7891 296.411 50.7891C296.02 50.7891 295.678 50.877 295.385 51.0527C295.092 51.222 294.852 51.4596 294.663 51.7656C294.474 52.0716 294.331 52.4264 294.233 52.8301C294.142 53.2337 294.096 53.6699 294.096 54.1387Z" fill="black"/>
<path d="M151.787 81.4092L150.486 81.0752L151.128 74.7031H157.693V76.2061H152.507L152.121 79.6865C152.355 79.5518 152.651 79.4258 153.008 79.3086C153.372 79.1914 153.788 79.1328 154.256 79.1328C154.848 79.1328 155.379 79.2354 155.847 79.4404C156.316 79.6396 156.714 79.9268 157.043 80.3018C157.377 80.6768 157.631 81.1279 157.807 81.6553C157.983 82.1826 158.071 82.7715 158.071 83.4219C158.071 84.0371 157.986 84.6025 157.816 85.1182C157.652 85.6338 157.403 86.085 157.069 86.4717C156.735 86.8525 156.313 87.1484 155.803 87.3594C155.299 87.5703 154.705 87.6758 154.019 87.6758C153.504 87.6758 153.014 87.6055 152.551 87.4648C152.094 87.3184 151.684 87.0986 151.321 86.8057C150.964 86.5068 150.671 86.1377 150.442 85.6982C150.219 85.2529 150.079 84.7314 150.02 84.1338H151.567C151.637 84.6143 151.778 85.0186 151.989 85.3467C152.2 85.6748 152.475 85.9238 152.815 86.0938C153.161 86.2578 153.562 86.3398 154.019 86.3398C154.406 86.3398 154.749 86.2725 155.047 86.1377C155.346 86.0029 155.598 85.8096 155.803 85.5576C156.008 85.3057 156.164 85.001 156.269 84.6436C156.38 84.2861 156.436 83.8848 156.436 83.4395C156.436 83.0352 156.38 82.6602 156.269 82.3145C156.158 81.9688 155.991 81.667 155.768 81.4092C155.551 81.1514 155.285 80.9521 154.968 80.8115C154.652 80.665 154.289 80.5918 153.879 80.5918C153.334 80.5918 152.921 80.665 152.639 80.8115C152.364 80.958 152.08 81.1572 151.787 81.4092ZM167.888 80.082V82.0332C167.888 83.082 167.795 83.9668 167.607 84.6875C167.42 85.4082 167.15 85.9883 166.798 86.4277C166.447 86.8672 166.022 87.1865 165.524 87.3857C165.032 87.5791 164.475 87.6758 163.854 87.6758C163.362 87.6758 162.908 87.6143 162.492 87.4912C162.076 87.3682 161.701 87.1719 161.367 86.9023C161.039 86.627 160.757 86.2695 160.523 85.8301C160.289 85.3906 160.11 84.8574 159.987 84.2305C159.864 83.6035 159.802 82.8711 159.802 82.0332V80.082C159.802 79.0332 159.896 78.1543 160.084 77.4453C160.277 76.7363 160.549 76.168 160.901 75.7402C161.253 75.3066 161.674 74.9961 162.167 74.8086C162.665 74.6211 163.221 74.5273 163.837 74.5273C164.335 74.5273 164.792 74.5889 165.208 74.7119C165.63 74.8291 166.005 75.0195 166.333 75.2832C166.661 75.541 166.939 75.8867 167.168 76.3203C167.402 76.748 167.581 77.2725 167.704 77.8936C167.827 78.5146 167.888 79.2441 167.888 80.082ZM166.254 82.2969V79.8096C166.254 79.2354 166.218 78.7314 166.148 78.2979C166.084 77.8584 165.987 77.4834 165.858 77.1729C165.729 76.8623 165.565 76.6104 165.366 76.417C165.172 76.2236 164.947 76.083 164.689 75.9951C164.437 75.9014 164.153 75.8545 163.837 75.8545C163.45 75.8545 163.107 75.9277 162.808 76.0742C162.509 76.2148 162.257 76.4404 162.052 76.751C161.853 77.0615 161.701 77.4688 161.595 77.9727C161.49 78.4766 161.437 79.0889 161.437 79.8096V82.2969C161.437 82.8711 161.469 83.3779 161.534 83.8174C161.604 84.2568 161.707 84.6377 161.841 84.96C161.976 85.2764 162.14 85.5371 162.334 85.7422C162.527 85.9473 162.75 86.0996 163.002 86.1992C163.259 86.293 163.544 86.3398 163.854 86.3398C164.253 86.3398 164.601 86.2637 164.9 86.1113C165.199 85.959 165.448 85.7217 165.647 85.3994C165.852 85.0713 166.005 84.6523 166.104 84.1426C166.204 83.627 166.254 83.0117 166.254 82.2969ZM178.374 80.6357V82.165H169.602V80.6357H178.374ZM174.805 76.9004V86.2168H173.179V76.9004H174.805ZM192.805 83.4307H194.493C194.405 84.2393 194.173 84.9629 193.798 85.6016C193.423 86.2402 192.893 86.7471 192.208 87.1221C191.522 87.4912 190.667 87.6758 189.641 87.6758C188.891 87.6758 188.209 87.5352 187.593 87.2539C186.984 86.9727 186.46 86.5742 186.02 86.0586C185.581 85.5371 185.241 84.9131 185.001 84.1865C184.766 83.4541 184.649 82.6396 184.649 81.7432V80.4688C184.649 79.5723 184.766 78.7607 185.001 78.0342C185.241 77.3018 185.584 76.6748 186.029 76.1533C186.48 75.6318 187.022 75.2305 187.655 74.9492C188.288 74.668 189 74.5273 189.791 74.5273C190.757 74.5273 191.575 74.709 192.243 75.0723C192.911 75.4355 193.429 75.9395 193.798 76.584C194.173 77.2227 194.405 77.9639 194.493 78.8076H192.805C192.723 78.21 192.571 77.6973 192.348 77.2695C192.126 76.8359 191.809 76.502 191.399 76.2676C190.989 76.0332 190.453 75.916 189.791 75.916C189.222 75.916 188.721 76.0244 188.288 76.2412C187.86 76.458 187.5 76.7656 187.207 77.1641C186.92 77.5625 186.703 78.04 186.556 78.5967C186.41 79.1533 186.337 79.7715 186.337 80.4512V81.7432C186.337 82.3701 186.401 82.959 186.53 83.5098C186.665 84.0605 186.867 84.5439 187.136 84.96C187.406 85.376 187.749 85.7041 188.165 85.9443C188.581 86.1787 189.073 86.2959 189.641 86.2959C190.362 86.2959 190.936 86.1816 191.364 85.9531C191.792 85.7246 192.114 85.3965 192.331 84.9688C192.553 84.541 192.712 84.0283 192.805 83.4307ZM196.128 82.8506V82.6484C196.128 81.9629 196.227 81.3271 196.426 80.7412C196.626 80.1494 196.913 79.6367 197.288 79.2031C197.663 78.7637 198.117 78.4238 198.65 78.1836C199.183 77.9375 199.781 77.8145 200.443 77.8145C201.111 77.8145 201.712 77.9375 202.245 78.1836C202.784 78.4238 203.241 78.7637 203.616 79.2031C203.997 79.6367 204.287 80.1494 204.486 80.7412C204.685 81.3271 204.785 81.9629 204.785 82.6484V82.8506C204.785 83.5361 204.685 84.1719 204.486 84.7578C204.287 85.3438 203.997 85.8564 203.616 86.2959C203.241 86.7295 202.787 87.0693 202.254 87.3154C201.726 87.5557 201.129 87.6758 200.461 87.6758C199.793 87.6758 199.192 87.5557 198.659 87.3154C198.126 87.0693 197.669 86.7295 197.288 86.2959C196.913 85.8564 196.626 85.3438 196.426 84.7578C196.227 84.1719 196.128 83.5361 196.128 82.8506ZM197.754 82.6484V82.8506C197.754 83.3252 197.809 83.7734 197.921 84.1953C198.032 84.6113 198.199 84.9805 198.422 85.3027C198.65 85.625 198.934 85.8799 199.274 86.0674C199.614 86.249 200.009 86.3398 200.461 86.3398C200.906 86.3398 201.296 86.249 201.63 86.0674C201.969 85.8799 202.251 85.625 202.473 85.3027C202.696 84.9805 202.863 84.6113 202.974 84.1953C203.091 83.7734 203.15 83.3252 203.15 82.8506V82.6484C203.15 82.1797 203.091 81.7373 202.974 81.3213C202.863 80.8994 202.693 80.5273 202.464 80.2051C202.242 79.877 201.961 79.6191 201.621 79.4316C201.287 79.2441 200.894 79.1504 200.443 79.1504C199.998 79.1504 199.605 79.2441 199.265 79.4316C198.931 79.6191 198.65 79.877 198.422 80.2051C198.199 80.5273 198.032 80.8994 197.921 81.3213C197.809 81.7373 197.754 82.1797 197.754 82.6484ZM212.642 85.3027V77.9902H214.277V87.5H212.721L212.642 85.3027ZM212.95 83.2988L213.627 83.2812C213.627 83.9141 213.559 84.5 213.424 85.0391C213.296 85.5723 213.085 86.0352 212.792 86.4277C212.499 86.8203 212.115 87.1279 211.64 87.3506C211.166 87.5674 210.589 87.6758 209.909 87.6758C209.446 87.6758 209.021 87.6084 208.634 87.4736C208.254 87.3389 207.925 87.1309 207.65 86.8496C207.375 86.5684 207.161 86.2021 207.008 85.751C206.862 85.2998 206.789 84.7578 206.789 84.125V77.9902H208.415V84.1426C208.415 84.5703 208.462 84.9248 208.555 85.2061C208.655 85.4814 208.787 85.7012 208.951 85.8652C209.121 86.0234 209.308 86.1348 209.513 86.1992C209.724 86.2637 209.941 86.2959 210.164 86.2959C210.855 86.2959 211.403 86.1641 211.807 85.9004C212.212 85.6309 212.502 85.2705 212.677 84.8193C212.859 84.3623 212.95 83.8555 212.95 83.2988ZM218.381 79.4844V87.5H216.755V77.9902H218.338L218.381 79.4844ZM221.352 77.9375L221.343 79.4492C221.209 79.4199 221.08 79.4023 220.957 79.3965C220.839 79.3848 220.705 79.3789 220.552 79.3789C220.177 79.3789 219.846 79.4375 219.559 79.5547C219.272 79.6719 219.029 79.8359 218.83 80.0469C218.63 80.2578 218.472 80.5098 218.355 80.8027C218.244 81.0898 218.171 81.4062 218.135 81.752L217.678 82.0156C217.678 81.4414 217.734 80.9023 217.845 80.3984C217.963 79.8945 218.141 79.4492 218.381 79.0625C218.622 78.6699 218.926 78.3652 219.296 78.1484C219.671 77.9258 220.116 77.8145 220.631 77.8145C220.749 77.8145 220.883 77.8291 221.036 77.8584C221.188 77.8818 221.294 77.9082 221.352 77.9375ZM228.392 84.9775C228.392 84.7432 228.339 84.5264 228.234 84.3271C228.134 84.1221 227.926 83.9375 227.61 83.7734C227.299 83.6035 226.831 83.457 226.204 83.334C225.676 83.2227 225.199 83.0908 224.771 82.9385C224.349 82.7861 223.989 82.6016 223.69 82.3848C223.397 82.168 223.172 81.9131 223.013 81.6201C222.855 81.3271 222.776 80.9844 222.776 80.5918C222.776 80.2168 222.858 79.8623 223.022 79.5283C223.192 79.1943 223.429 78.8984 223.734 78.6406C224.045 78.3828 224.417 78.1807 224.85 78.0342C225.284 77.8877 225.767 77.8145 226.3 77.8145C227.062 77.8145 227.713 77.9492 228.252 78.2188C228.791 78.4883 229.204 78.8486 229.491 79.2998C229.778 79.7451 229.922 80.2402 229.922 80.7852H228.296C228.296 80.5215 228.216 80.2666 228.058 80.0205C227.906 79.7686 227.68 79.5605 227.381 79.3965C227.089 79.2324 226.728 79.1504 226.3 79.1504C225.849 79.1504 225.483 79.2207 225.202 79.3613C224.926 79.4961 224.724 79.6689 224.595 79.8799C224.472 80.0908 224.411 80.3135 224.411 80.5479C224.411 80.7236 224.44 80.8818 224.499 81.0225C224.563 81.1572 224.674 81.2832 224.833 81.4004C224.991 81.5117 225.214 81.6172 225.501 81.7168C225.788 81.8164 226.154 81.916 226.599 82.0156C227.379 82.1914 228.02 82.4023 228.524 82.6484C229.028 82.8945 229.403 83.1963 229.649 83.5537C229.895 83.9111 230.018 84.3447 230.018 84.8545C230.018 85.2705 229.93 85.6514 229.755 85.9971C229.585 86.3428 229.336 86.6416 229.007 86.8936C228.685 87.1396 228.298 87.333 227.847 87.4736C227.402 87.6084 226.901 87.6758 226.344 87.6758C225.506 87.6758 224.797 87.5264 224.217 87.2275C223.637 86.9287 223.198 86.542 222.899 86.0674C222.6 85.5928 222.451 85.0918 222.451 84.5645H224.086C224.109 85.0098 224.238 85.3643 224.472 85.6279C224.707 85.8857 224.994 86.0703 225.334 86.1816C225.673 86.2871 226.01 86.3398 226.344 86.3398C226.79 86.3398 227.162 86.2812 227.461 86.1641C227.765 86.0469 227.997 85.8857 228.155 85.6807C228.313 85.4756 228.392 85.2412 228.392 84.9775ZM236.1 87.6758C235.438 87.6758 234.838 87.5645 234.298 87.3418C233.765 87.1133 233.305 86.7939 232.919 86.3838C232.538 85.9736 232.245 85.4873 232.04 84.9248C231.835 84.3623 231.732 83.7471 231.732 83.0791V82.71C231.732 81.9365 231.846 81.248 232.075 80.6445C232.303 80.0352 232.614 79.5195 233.006 79.0977C233.399 78.6758 233.844 78.3564 234.342 78.1396C234.84 77.9229 235.356 77.8145 235.889 77.8145C236.569 77.8145 237.155 77.9316 237.647 78.166C238.145 78.4004 238.552 78.7285 238.869 79.1504C239.185 79.5664 239.42 80.0586 239.572 80.627C239.724 81.1895 239.8 81.8047 239.8 82.4727V83.2021H232.699V81.875H238.174V81.752C238.151 81.3301 238.063 80.9199 237.911 80.5215C237.764 80.123 237.53 79.7949 237.208 79.5371C236.885 79.2793 236.446 79.1504 235.889 79.1504C235.52 79.1504 235.18 79.2295 234.87 79.3877C234.559 79.54 234.293 79.7686 234.07 80.0732C233.847 80.3779 233.674 80.75 233.551 81.1895C233.428 81.6289 233.367 82.1357 233.367 82.71V83.0791C233.367 83.5303 233.428 83.9551 233.551 84.3535C233.68 84.7461 233.865 85.0918 234.105 85.3906C234.351 85.6895 234.647 85.9238 234.993 86.0938C235.344 86.2637 235.743 86.3486 236.188 86.3486C236.762 86.3486 237.249 86.2314 237.647 85.9971C238.046 85.7627 238.394 85.4492 238.693 85.0566L239.677 85.8389C239.472 86.1494 239.212 86.4453 238.895 86.7266C238.579 87.0078 238.189 87.2363 237.726 87.4121C237.269 87.5879 236.727 87.6758 236.1 87.6758ZM247.236 84.9775C247.236 84.7432 247.183 84.5264 247.078 84.3271C246.978 84.1221 246.77 83.9375 246.454 83.7734C246.143 83.6035 245.674 83.457 245.047 83.334C244.52 83.2227 244.043 83.0908 243.615 82.9385C243.193 82.7861 242.833 82.6016 242.534 82.3848C242.241 82.168 242.015 81.9131 241.857 81.6201C241.699 81.3271 241.62 80.9844 241.62 80.5918C241.62 80.2168 241.702 79.8623 241.866 79.5283C242.036 79.1943 242.273 78.8984 242.578 78.6406C242.888 78.3828 243.26 78.1807 243.694 78.0342C244.128 77.8877 244.611 77.8145 245.144 77.8145C245.906 77.8145 246.556 77.9492 247.095 78.2188C247.634 78.4883 248.047 78.8486 248.335 79.2998C248.622 79.7451 248.765 80.2402 248.765 80.7852H247.139C247.139 80.5215 247.06 80.2666 246.902 80.0205C246.75 79.7686 246.524 79.5605 246.225 79.3965C245.932 79.2324 245.572 79.1504 245.144 79.1504C244.693 79.1504 244.327 79.2207 244.046 79.3613C243.77 79.4961 243.568 79.6689 243.439 79.8799C243.316 80.0908 243.255 80.3135 243.255 80.5479C243.255 80.7236 243.284 80.8818 243.342 81.0225C243.407 81.1572 243.518 81.2832 243.676 81.4004C243.835 81.5117 244.057 81.6172 244.344 81.7168C244.631 81.8164 244.998 81.916 245.443 82.0156C246.222 82.1914 246.864 82.4023 247.368 82.6484C247.872 82.8945 248.247 83.1963 248.493 83.5537C248.739 83.9111 248.862 84.3447 248.862 84.8545C248.862 85.2705 248.774 85.6514 248.598 85.9971C248.428 86.3428 248.179 86.6416 247.851 86.8936C247.529 87.1396 247.142 87.333 246.691 87.4736C246.246 87.6084 245.745 87.6758 245.188 87.6758C244.35 87.6758 243.641 87.5264 243.061 87.2275C242.481 86.9287 242.042 86.542 241.743 86.0674C241.444 85.5928 241.295 85.0918 241.295 84.5645H242.929C242.953 85.0098 243.082 85.3643 243.316 85.6279C243.55 85.8857 243.838 86.0703 244.177 86.1816C244.517 86.2871 244.854 86.3398 245.188 86.3398C245.633 86.3398 246.005 86.2812 246.304 86.1641C246.609 86.0469 246.84 85.8857 246.999 85.6807C247.157 85.4756 247.236 85.2412 247.236 84.9775ZM260.446 75.8369L256.21 87.5H254.478L259.356 74.7031H260.472L260.446 75.8369ZM263.997 87.5L259.752 75.8369L259.725 74.7031H260.841L265.737 87.5H263.997ZM263.777 82.7627V84.1514H256.588V82.7627H263.777ZM269.657 86.0322L272.258 77.9902H273.92L270.501 87.5H269.411L269.657 86.0322ZM267.486 77.9902L270.167 86.0762L270.351 87.5H269.261L265.816 77.9902H267.486ZM280.951 85.874V80.9785C280.951 80.6035 280.875 80.2783 280.722 80.0029C280.576 79.7217 280.353 79.5049 280.054 79.3525C279.755 79.2002 279.386 79.124 278.947 79.124C278.537 79.124 278.176 79.1943 277.866 79.335C277.561 79.4756 277.321 79.6602 277.145 79.8887C276.975 80.1172 276.89 80.3633 276.89 80.627H275.264C275.264 80.2871 275.352 79.9502 275.528 79.6162C275.704 79.2822 275.956 78.9805 276.284 78.7109C276.618 78.4355 277.016 78.2188 277.479 78.0605C277.948 77.8965 278.469 77.8145 279.044 77.8145C279.735 77.8145 280.344 77.9316 280.872 78.166C281.405 78.4004 281.821 78.7549 282.12 79.2295C282.424 79.6982 282.577 80.2871 282.577 80.9961V85.4258C282.577 85.7422 282.603 86.0791 282.656 86.4365C282.714 86.7939 282.799 87.1016 282.911 87.3594V87.5H281.214C281.132 87.3125 281.068 87.0635 281.021 86.7529C280.974 86.4365 280.951 86.1436 280.951 85.874ZM281.232 81.7344L281.25 82.877H279.606C279.143 82.877 278.73 82.915 278.367 82.9912C278.004 83.0615 277.699 83.1699 277.453 83.3164C277.207 83.4629 277.019 83.6475 276.89 83.8701C276.761 84.0869 276.697 84.3418 276.697 84.6348C276.697 84.9336 276.764 85.2061 276.899 85.4521C277.034 85.6982 277.236 85.8945 277.505 86.041C277.781 86.1816 278.118 86.252 278.516 86.252C279.014 86.252 279.454 86.1465 279.835 85.9355C280.215 85.7246 280.517 85.4668 280.74 85.1621C280.968 84.8574 281.091 84.5615 281.109 84.2744L281.803 85.0566C281.762 85.3027 281.651 85.5752 281.469 85.874C281.288 86.1729 281.045 86.46 280.74 86.7354C280.441 87.0049 280.084 87.2305 279.668 87.4121C279.257 87.5879 278.795 87.6758 278.279 87.6758C277.634 87.6758 277.069 87.5498 276.583 87.2979C276.102 87.0459 275.727 86.709 275.458 86.2871C275.194 85.8594 275.062 85.3818 275.062 84.8545C275.062 84.3447 275.162 83.8965 275.361 83.5098C275.56 83.1172 275.847 82.792 276.222 82.5342C276.597 82.2705 277.048 82.0713 277.576 81.9365C278.103 81.8018 278.692 81.7344 279.342 81.7344H281.232ZM286.901 77.9902V87.5H285.266V77.9902H286.901ZM285.143 75.4678C285.143 75.2041 285.222 74.9814 285.38 74.7998C285.545 74.6182 285.785 74.5273 286.101 74.5273C286.412 74.5273 286.649 74.6182 286.813 74.7998C286.983 74.9814 287.068 75.2041 287.068 75.4678C287.068 75.7197 286.983 75.9365 286.813 76.1182C286.649 76.2939 286.412 76.3818 286.101 76.3818C285.785 76.3818 285.545 76.2939 285.38 76.1182C285.222 75.9365 285.143 75.7197 285.143 75.4678ZM291.278 74V87.5H289.643V74H291.278ZM299.496 85.874V80.9785C299.496 80.6035 299.42 80.2783 299.267 80.0029C299.121 79.7217 298.898 79.5049 298.599 79.3525C298.3 79.2002 297.931 79.124 297.492 79.124C297.082 79.124 296.721 79.1943 296.411 79.335C296.106 79.4756 295.866 79.6602 295.69 79.8887C295.52 80.1172 295.435 80.3633 295.435 80.627H293.809C293.809 80.2871 293.897 79.9502 294.073 79.6162C294.249 79.2822 294.501 78.9805 294.829 78.7109C295.163 78.4355 295.561 78.2188 296.024 78.0605C296.493 77.8965 297.014 77.8145 297.589 77.8145C298.28 77.8145 298.889 77.9316 299.417 78.166C299.95 78.4004 300.366 78.7549 300.665 79.2295C300.969 79.6982 301.122 80.2871 301.122 80.9961V85.4258C301.122 85.7422 301.148 86.0791 301.201 86.4365C301.259 86.7939 301.344 87.1016 301.456 87.3594V87.5H299.759C299.677 87.3125 299.613 87.0635 299.566 86.7529C299.519 86.4365 299.496 86.1436 299.496 85.874ZM299.777 81.7344L299.795 82.877H298.151C297.688 82.877 297.275 82.915 296.912 82.9912C296.548 83.0615 296.244 83.1699 295.998 83.3164C295.752 83.4629 295.564 83.6475 295.435 83.8701C295.306 84.0869 295.242 84.3418 295.242 84.6348C295.242 84.9336 295.309 85.2061 295.444 85.4521C295.579 85.6982 295.781 85.8945 296.05 86.041C296.326 86.1816 296.663 86.252 297.061 86.252C297.559 86.252 297.999 86.1465 298.38 85.9355C298.76 85.7246 299.062 85.4668 299.285 85.1621C299.513 84.8574 299.636 84.5615 299.654 84.2744L300.348 85.0566C300.307 85.3027 300.196 85.5752 300.014 85.874C299.833 86.1729 299.589 86.46 299.285 86.7354C298.986 87.0049 298.629 87.2305 298.213 87.4121C297.802 87.5879 297.339 87.6758 296.824 87.6758C296.179 87.6758 295.614 87.5498 295.128 87.2979C294.647 87.0459 294.272 86.709 294.003 86.2871C293.739 85.8594 293.607 85.3818 293.607 84.8545C293.607 84.3447 293.707 83.8965 293.906 83.5098C294.105 83.1172 294.392 82.792 294.767 82.5342C295.142 82.2705 295.593 82.0713 296.121 81.9365C296.648 81.8018 297.237 81.7344 297.887 81.7344H299.777ZM303.671 74H305.305V85.6543L305.165 87.5H303.671V74ZM311.73 82.666V82.8506C311.73 83.542 311.648 84.1836 311.484 84.7754C311.32 85.3613 311.08 85.8711 310.763 86.3047C310.447 86.7383 310.06 87.0752 309.603 87.3154C309.146 87.5557 308.622 87.6758 308.03 87.6758C307.426 87.6758 306.896 87.5732 306.439 87.3682C305.988 87.1572 305.607 86.8555 305.297 86.4629C304.986 86.0703 304.737 85.5957 304.549 85.0391C304.368 84.4824 304.242 83.8555 304.172 83.1582V82.3496C304.242 81.6465 304.368 81.0166 304.549 80.46C304.737 79.9033 304.986 79.4287 305.297 79.0361C305.607 78.6377 305.988 78.3359 306.439 78.1309C306.89 77.9199 307.415 77.8145 308.012 77.8145C308.61 77.8145 309.14 77.9316 309.603 78.166C310.066 78.3945 310.453 78.7227 310.763 79.1504C311.08 79.5781 311.32 80.0908 311.484 80.6885C311.648 81.2803 311.73 81.9395 311.73 82.666ZM310.095 82.8506V82.666C310.095 82.1914 310.051 81.7461 309.964 81.3301C309.876 80.9082 309.735 80.5391 309.542 80.2227C309.348 79.9004 309.093 79.6484 308.777 79.4668C308.461 79.2793 308.071 79.1855 307.608 79.1855C307.198 79.1855 306.84 79.2559 306.536 79.3965C306.237 79.5371 305.982 79.7275 305.771 79.9678C305.56 80.2021 305.387 80.4717 305.253 80.7764C305.124 81.0752 305.027 81.3857 304.963 81.708V83.8262C305.056 84.2363 305.209 84.6318 305.42 85.0127C305.636 85.3877 305.923 85.6953 306.281 85.9355C306.644 86.1758 307.092 86.2959 307.626 86.2959C308.065 86.2959 308.44 86.208 308.751 86.0322C309.067 85.8506 309.322 85.6016 309.515 85.2852C309.714 84.9688 309.861 84.6025 309.955 84.1865C310.048 83.7705 310.095 83.3252 310.095 82.8506ZM315.553 74V87.5H313.919V74H315.553ZM322.11 87.6758C321.448 87.6758 320.847 87.5645 320.308 87.3418C319.775 87.1133 319.315 86.7939 318.928 86.3838C318.547 85.9736 318.255 85.4873 318.049 84.9248C317.844 84.3623 317.742 83.7471 317.742 83.0791V82.71C317.742 81.9365 317.856 81.248 318.085 80.6445C318.313 80.0352 318.624 79.5195 319.016 79.0977C319.409 78.6758 319.854 78.3564 320.352 78.1396C320.85 77.9229 321.366 77.8145 321.899 77.8145C322.579 77.8145 323.165 77.9316 323.657 78.166C324.155 78.4004 324.562 78.7285 324.879 79.1504C325.195 79.5664 325.429 80.0586 325.582 80.627C325.734 81.1895 325.81 81.8047 325.81 82.4727V83.2021H318.709V81.875H324.184V81.752C324.161 81.3301 324.073 80.9199 323.921 80.5215C323.774 80.123 323.54 79.7949 323.217 79.5371C322.895 79.2793 322.456 79.1504 321.899 79.1504C321.53 79.1504 321.19 79.2295 320.88 79.3877C320.569 79.54 320.302 79.7686 320.08 80.0732C319.857 80.3779 319.684 80.75 319.561 81.1895C319.438 81.6289 319.377 82.1357 319.377 82.71V83.0791C319.377 83.5303 319.438 83.9551 319.561 84.3535C319.69 84.7461 319.875 85.0918 320.115 85.3906C320.361 85.6895 320.657 85.9238 321.003 86.0938C321.354 86.2637 321.753 86.3486 322.198 86.3486C322.772 86.3486 323.258 86.2314 323.657 85.9971C324.055 85.7627 324.404 85.4492 324.703 85.0566L325.687 85.8389C325.482 86.1494 325.221 86.4453 324.905 86.7266C324.589 87.0078 324.199 87.2363 323.736 87.4121C323.279 87.5879 322.737 87.6758 322.11 87.6758Z" fill="black"/>
</svg>
