<svg width="411" height="132" viewBox="0 0 411 132" fill="none" xmlns="http://www.w3.org/2000/svg">
<rect x="0.333313" width="410.667" height="132" rx="5" fill="#F7F7F7"/>
<rect x="16.3333" y="16" width="100" height="100" rx="5" fill="white"/>
<path d="M54.3333 73.9734L57.7333 73.9867C58.9466 73.9867 60.08 73.3867 60.7466 72.3867L69.2667 59.6134C69.9333 58.6134 71.0666 58.0001 72.28 58.0134L78.3467 58.0401" stroke="#292D32" stroke-width="1.5" stroke-linecap="round" stroke-linejoin="round"/>
<path d="M75.6666 76.6401L78.3333 73.9734" stroke="#292D32" stroke-width="1.5" stroke-linecap="round" stroke-linejoin="round"/>
<path d="M62.1867 61.4933L60.7466 59.4933C60.0666 58.5466 58.9733 57.9867 57.8133 58L54.3333 58.0133" stroke="#292D32" stroke-width="1.5" stroke-linecap="round" stroke-linejoin="round"/>
<path d="M67.6266 70.5066L69.2533 72.5999C69.9333 73.4799 71 73.9999 72.12 73.9999L78.3467 73.9732" stroke="#292D32" stroke-width="1.5" stroke-linecap="round" stroke-linejoin="round"/>
<path d="M78.3333 58.0268L75.6666 55.3601" stroke="#292D32" stroke-width="1.5" stroke-linecap="round" stroke-linejoin="round"/>
<path d="M153.939 59.5H150.872L150.892 57.3906H153.939C154.766 57.3906 155.459 57.2083 156.019 56.8438C156.579 56.4727 157.002 55.9421 157.288 55.252C157.575 54.5553 157.718 53.722 157.718 52.752V52.0195C157.718 51.2708 157.637 50.61 157.474 50.0371C157.311 49.4642 157.07 48.9824 156.751 48.5918C156.439 48.2012 156.051 47.9049 155.589 47.7031C155.127 47.5013 154.596 47.4004 153.997 47.4004H150.814V45.2812H153.997C154.948 45.2812 155.814 45.4408 156.595 45.7598C157.383 46.0788 158.063 46.5378 158.636 47.1367C159.215 47.7292 159.658 48.4388 159.964 49.2656C160.277 50.0924 160.433 51.0169 160.433 52.0391V52.752C160.433 53.7676 160.277 54.6921 159.964 55.5254C159.658 56.3522 159.215 57.0618 158.636 57.6543C158.063 58.2467 157.38 58.7025 156.585 59.0215C155.791 59.3405 154.909 59.5 153.939 59.5ZM152.376 45.2812V59.5H149.691V45.2812H152.376ZM167.269 59.6953C166.468 59.6953 165.749 59.5651 165.111 59.3047C164.473 59.0443 163.929 58.6829 163.48 58.2207C163.037 57.752 162.695 57.2083 162.454 56.5898C162.22 55.9648 162.103 55.2943 162.103 54.5781V54.1875C162.103 53.3737 162.22 52.6348 162.454 51.9707C162.689 51.3001 163.021 50.724 163.451 50.2422C163.88 49.7604 164.395 49.3893 164.993 49.1289C165.592 48.8685 166.253 48.7383 166.976 48.7383C167.725 48.7383 168.385 48.8652 168.958 49.1191C169.531 49.3665 170.01 49.7181 170.394 50.1738C170.778 50.6296 171.068 51.1764 171.263 51.8145C171.458 52.446 171.556 53.1458 171.556 53.9141V54.998H163.275V53.2207H169.017V53.0254C169.004 52.6152 168.926 52.2409 168.783 51.9023C168.639 51.5573 168.418 51.2839 168.118 51.082C167.819 50.8737 167.432 50.7695 166.956 50.7695C166.572 50.7695 166.237 50.8542 165.951 51.0234C165.671 51.1862 165.436 51.4206 165.247 51.7266C165.065 52.026 164.928 52.3841 164.837 52.8008C164.746 53.2174 164.701 53.6797 164.701 54.1875V54.5781C164.701 55.0208 164.759 55.431 164.876 55.8086C165 56.1862 165.179 56.515 165.413 56.7949C165.654 57.0684 165.941 57.2832 166.273 57.4395C166.611 57.5892 166.995 57.6641 167.425 57.6641C167.965 57.6641 168.454 57.5599 168.89 57.3516C169.333 57.1367 169.717 56.821 170.042 56.4043L171.341 57.752C171.12 58.0775 170.82 58.39 170.443 58.6895C170.072 58.9889 169.622 59.2331 169.095 59.4219C168.568 59.6042 167.959 59.6953 167.269 59.6953ZM176.654 57.5469L179.115 48.9336H181.81L178.187 59.5H176.546L176.654 57.5469ZM174.857 48.9336L177.347 57.5664L177.435 59.5H175.784L172.152 48.9336H174.857ZM187.777 59.6953C186.976 59.6953 186.256 59.5651 185.618 59.3047C184.98 59.0443 184.437 58.6829 183.988 58.2207C183.545 57.752 183.203 57.2083 182.962 56.5898C182.728 55.9648 182.611 55.2943 182.611 54.5781V54.1875C182.611 53.3737 182.728 52.6348 182.962 51.9707C183.197 51.3001 183.529 50.724 183.958 50.2422C184.388 49.7604 184.902 49.3893 185.501 49.1289C186.1 48.8685 186.761 48.7383 187.484 48.7383C188.232 48.7383 188.893 48.8652 189.466 49.1191C190.039 49.3665 190.518 49.7181 190.902 50.1738C191.286 50.6296 191.576 51.1764 191.771 51.8145C191.966 52.446 192.064 53.1458 192.064 53.9141V54.998H183.783V53.2207H189.525V53.0254C189.512 52.6152 189.434 52.2409 189.29 51.9023C189.147 51.5573 188.926 51.2839 188.626 51.082C188.327 50.8737 187.939 50.7695 187.464 50.7695C187.08 50.7695 186.745 50.8542 186.458 51.0234C186.178 51.1862 185.944 51.4206 185.755 51.7266C185.573 52.026 185.436 52.3841 185.345 52.8008C185.254 53.2174 185.208 53.6797 185.208 54.1875V54.5781C185.208 55.0208 185.267 55.431 185.384 55.8086C185.508 56.1862 185.687 56.515 185.921 56.7949C186.162 57.0684 186.449 57.2832 186.781 57.4395C187.119 57.5892 187.503 57.6641 187.933 57.6641C188.473 57.6641 188.962 57.5599 189.398 57.3516C189.84 57.1367 190.225 56.821 190.55 56.4043L191.849 57.752C191.628 58.0775 191.328 58.39 190.951 58.6895C190.579 58.9889 190.13 59.2331 189.603 59.4219C189.076 59.6042 188.467 59.6953 187.777 59.6953ZM196.527 44.5V59.5H193.939V44.5H196.527ZM198.529 54.3242V54.1191C198.529 53.3444 198.639 52.6315 198.861 51.9805C199.082 51.3229 199.404 50.7533 199.827 50.2715C200.251 49.7897 200.768 49.4154 201.38 49.1484C201.992 48.875 202.689 48.7383 203.47 48.7383C204.264 48.7383 204.967 48.875 205.579 49.1484C206.198 49.4154 206.719 49.7897 207.142 50.2715C207.565 50.7533 207.887 51.3229 208.109 51.9805C208.33 52.6315 208.441 53.3444 208.441 54.1191V54.3242C208.441 55.0924 208.33 55.8053 208.109 56.4629C207.887 57.1139 207.565 57.6836 207.142 58.1719C206.719 58.6536 206.201 59.028 205.589 59.2949C204.977 59.5618 204.277 59.6953 203.49 59.6953C202.708 59.6953 202.008 59.5618 201.39 59.2949C200.771 59.028 200.251 58.6536 199.827 58.1719C199.404 57.6836 199.082 57.1139 198.861 56.4629C198.639 55.8053 198.529 55.0924 198.529 54.3242ZM201.107 54.1191V54.3242C201.107 54.7865 201.152 55.2194 201.243 55.623C201.335 56.0267 201.475 56.3815 201.663 56.6875C201.852 56.9935 202.096 57.2344 202.396 57.4102C202.702 57.5794 203.066 57.6641 203.49 57.6641C203.906 57.6641 204.264 57.5794 204.564 57.4102C204.863 57.2344 205.107 56.9935 205.296 56.6875C205.492 56.3815 205.635 56.0267 205.726 55.623C205.817 55.2194 205.863 54.7865 205.863 54.3242V54.1191C205.863 53.6634 205.817 53.237 205.726 52.8398C205.635 52.4362 205.492 52.0814 205.296 51.7754C205.107 51.4629 204.86 51.2188 204.554 51.043C204.255 50.8607 203.893 50.7695 203.47 50.7695C203.053 50.7695 202.695 50.8607 202.396 51.043C202.096 51.2188 201.852 51.4629 201.663 51.7754C201.475 52.0814 201.335 52.4362 201.243 52.8398C201.152 53.237 201.107 53.6634 201.107 54.1191ZM212.894 50.9648V63.5625H210.306V48.9336H212.699L212.894 50.9648ZM219.681 54.1094V54.3145C219.681 55.0827 219.59 55.7956 219.408 56.4531C219.232 57.1042 218.971 57.6738 218.626 58.1621C218.281 58.6439 217.852 59.0215 217.337 59.2949C216.829 59.5618 216.243 59.6953 215.579 59.6953C214.928 59.6953 214.362 59.5716 213.88 59.3242C213.398 59.0703 212.992 58.7122 212.659 58.25C212.327 57.7878 212.061 57.2507 211.859 56.6387C211.663 56.0202 211.517 55.3464 211.419 54.6172V53.9629C211.517 53.1882 211.663 52.485 211.859 51.8535C212.061 51.2155 212.327 50.6654 212.659 50.2031C212.992 49.7344 213.395 49.373 213.87 49.1191C214.352 48.8652 214.915 48.7383 215.56 48.7383C216.23 48.7383 216.82 48.8652 217.327 49.1191C217.842 49.373 218.275 49.7376 218.626 50.2129C218.978 50.6882 219.242 51.2546 219.417 51.9121C219.593 52.5697 219.681 53.3021 219.681 54.1094ZM217.093 54.3145V54.1094C217.093 53.6406 217.051 53.2077 216.966 52.8105C216.881 52.4069 216.751 52.0553 216.576 51.7559C216.4 51.4499 216.172 51.2122 215.892 51.043C215.612 50.8737 215.273 50.7891 214.876 50.7891C214.479 50.7891 214.137 50.8542 213.851 50.9844C213.564 51.1146 213.33 51.3001 213.148 51.541C212.965 51.7819 212.822 52.0684 212.718 52.4004C212.62 52.7259 212.555 53.0872 212.523 53.4844V55.1055C212.581 55.5872 212.695 56.0202 212.865 56.4043C213.034 56.7884 213.281 57.0944 213.607 57.3223C213.939 57.5501 214.368 57.6641 214.896 57.6641C215.293 57.6641 215.631 57.5762 215.911 57.4004C216.191 57.2246 216.419 56.9837 216.595 56.6777C216.771 56.3652 216.898 56.0072 216.976 55.6035C217.054 55.1999 217.093 54.7702 217.093 54.3145ZM224.134 51.1016V59.5H221.556V48.9336H223.988L224.134 51.1016ZM223.753 53.8359H222.962C222.962 53.1003 223.05 52.4232 223.226 51.8047C223.408 51.1862 223.675 50.6491 224.027 50.1934C224.378 49.7311 224.811 49.373 225.326 49.1191C225.846 48.8652 226.449 48.7383 227.132 48.7383C227.607 48.7383 228.044 48.8099 228.441 48.9531C228.838 49.0898 229.18 49.3079 229.466 49.6074C229.759 49.9004 229.984 50.2845 230.14 50.7598C230.296 51.2285 230.374 51.7917 230.374 52.4492V59.5H227.796V52.7129C227.796 52.2181 227.725 51.8307 227.581 51.5508C227.445 51.2708 227.246 51.0755 226.986 50.9648C226.725 50.8477 226.413 50.7891 226.048 50.7891C225.645 50.7891 225.296 50.8704 225.003 51.0332C224.717 51.1895 224.479 51.4076 224.29 51.6875C224.108 51.9674 223.971 52.2897 223.88 52.6543C223.796 53.0189 223.753 53.4128 223.753 53.8359ZM230.179 53.3574L229.115 53.5527C229.121 52.8887 229.212 52.2669 229.388 51.6875C229.564 51.1016 229.821 50.5905 230.159 50.1543C230.505 49.7116 230.931 49.3665 231.439 49.1191C231.953 48.8652 232.546 48.7383 233.216 48.7383C233.737 48.7383 234.206 48.8132 234.622 48.9629C235.046 49.1061 235.407 49.3372 235.706 49.6562C236.006 49.9688 236.234 50.3757 236.39 50.877C236.553 51.3783 236.634 51.9902 236.634 52.7129V59.5H234.036V52.7031C234.036 52.1888 233.965 51.7949 233.822 51.5215C233.685 51.248 233.486 51.0592 233.226 50.9551C232.965 50.8444 232.659 50.7891 232.308 50.7891C231.95 50.7891 231.637 50.8574 231.37 50.9941C231.11 51.1243 230.889 51.3066 230.706 51.541C230.531 51.7754 230.397 52.0488 230.306 52.3613C230.221 52.6673 230.179 52.9993 230.179 53.3574ZM243.695 59.6953C242.894 59.6953 242.174 59.5651 241.536 59.3047C240.898 59.0443 240.355 58.6829 239.906 58.2207C239.463 57.752 239.121 57.2083 238.88 56.5898C238.646 55.9648 238.529 55.2943 238.529 54.5781V54.1875C238.529 53.3737 238.646 52.6348 238.88 51.9707C239.115 51.3001 239.447 50.724 239.876 50.2422C240.306 49.7604 240.82 49.3893 241.419 49.1289C242.018 48.8685 242.679 48.7383 243.402 48.7383C244.15 48.7383 244.811 48.8652 245.384 49.1191C245.957 49.3665 246.436 49.7181 246.82 50.1738C247.204 50.6296 247.493 51.1764 247.689 51.8145C247.884 52.446 247.982 53.1458 247.982 53.9141V54.998H239.701V53.2207H245.443V53.0254C245.43 52.6152 245.352 52.2409 245.208 51.9023C245.065 51.5573 244.844 51.2839 244.544 51.082C244.245 50.8737 243.857 50.7695 243.382 50.7695C242.998 50.7695 242.663 50.8542 242.376 51.0234C242.096 51.1862 241.862 51.4206 241.673 51.7266C241.491 52.026 241.354 52.3841 241.263 52.8008C241.172 53.2174 241.126 53.6797 241.126 54.1875V54.5781C241.126 55.0208 241.185 55.431 241.302 55.8086C241.426 56.1862 241.605 56.515 241.839 56.7949C242.08 57.0684 242.367 57.2832 242.699 57.4395C243.037 57.5892 243.421 57.6641 243.851 57.6641C244.391 57.6641 244.88 57.5599 245.316 57.3516C245.758 57.1367 246.143 56.821 246.468 56.4043L247.767 57.752C247.546 58.0775 247.246 58.39 246.868 58.6895C246.497 58.9889 246.048 59.2331 245.521 59.4219C244.993 59.6042 244.385 59.6953 243.695 59.6953ZM252.24 51.1895V59.5H249.661V48.9336H252.083L252.24 51.1895ZM251.829 53.8359H251.068C251.074 53.0677 251.178 52.3711 251.38 51.7461C251.582 51.1211 251.865 50.584 252.23 50.1348C252.601 49.6855 253.04 49.3405 253.548 49.0996C254.056 48.8587 254.622 48.7383 255.247 48.7383C255.755 48.7383 256.214 48.8099 256.624 48.9531C257.034 49.0964 257.386 49.3242 257.679 49.6367C257.978 49.9492 258.206 50.3594 258.363 50.8672C258.525 51.3685 258.607 51.987 258.607 52.7227V59.5H256.009V52.7031C256.009 52.2214 255.937 51.8405 255.794 51.5605C255.658 51.2806 255.456 51.082 255.189 50.9648C254.928 50.8477 254.606 50.7891 254.222 50.7891C253.825 50.7891 253.477 50.8704 253.177 51.0332C252.884 51.1895 252.637 51.4076 252.435 51.6875C252.24 51.9674 252.09 52.2897 251.986 52.6543C251.881 53.0189 251.829 53.4128 251.829 53.8359ZM265.882 48.9336V50.7891H259.827V48.9336H265.882ZM261.449 46.3359H264.036V56.4531C264.036 56.7656 264.079 57.0065 264.163 57.1758C264.248 57.3451 264.375 57.459 264.544 57.5176C264.714 57.5762 264.915 57.6055 265.15 57.6055C265.319 57.6055 265.475 57.5957 265.618 57.5762C265.762 57.5566 265.882 57.5371 265.98 57.5176L265.99 59.4512C265.775 59.5228 265.531 59.5814 265.257 59.627C264.99 59.6725 264.687 59.6953 264.349 59.6953C263.77 59.6953 263.262 59.5977 262.826 59.4023C262.389 59.2005 262.051 58.8783 261.81 58.4355C261.569 57.9863 261.449 57.3939 261.449 56.6582V46.3359Z" fill="black"/>
<path d="M151.453 81.4092L150.153 81.0752L150.794 74.7031H157.36V76.2061H152.174L151.787 79.6865C152.022 79.5518 152.318 79.4258 152.675 79.3086C153.038 79.1914 153.454 79.1328 153.923 79.1328C154.515 79.1328 155.045 79.2354 155.514 79.4404C155.983 79.6396 156.381 79.9268 156.709 80.3018C157.043 80.6768 157.298 81.1279 157.474 81.6553C157.65 82.1826 157.738 82.7715 157.738 83.4219C157.738 84.0371 157.653 84.6025 157.483 85.1182C157.319 85.6338 157.07 86.085 156.736 86.4717C156.402 86.8525 155.98 87.1484 155.47 87.3594C154.966 87.5703 154.371 87.6758 153.686 87.6758C153.17 87.6758 152.681 87.6055 152.218 87.4648C151.761 87.3184 151.351 87.0986 150.988 86.8057C150.63 86.5068 150.337 86.1377 150.109 85.6982C149.886 85.2529 149.745 84.7314 149.687 84.1338H151.234C151.304 84.6143 151.445 85.0186 151.656 85.3467C151.867 85.6748 152.142 85.9238 152.482 86.0938C152.827 86.2578 153.229 86.3398 153.686 86.3398C154.073 86.3398 154.415 86.2725 154.714 86.1377C155.013 86.0029 155.265 85.8096 155.47 85.5576C155.675 85.3057 155.83 85.001 155.936 84.6436C156.047 84.2861 156.103 83.8848 156.103 83.4395C156.103 83.0352 156.047 82.6602 155.936 82.3145C155.825 81.9688 155.658 81.667 155.435 81.4092C155.218 81.1514 154.951 80.9521 154.635 80.8115C154.319 80.665 153.955 80.5918 153.545 80.5918C153 80.5918 152.587 80.665 152.306 80.8115C152.031 80.958 151.746 81.1572 151.453 81.4092ZM167.555 80.082V82.0332C167.555 83.082 167.461 83.9668 167.274 84.6875C167.086 85.4082 166.817 85.9883 166.465 86.4277C166.114 86.8672 165.689 87.1865 165.191 87.3857C164.699 87.5791 164.142 87.6758 163.521 87.6758C163.029 87.6758 162.575 87.6143 162.159 87.4912C161.742 87.3682 161.367 87.1719 161.034 86.9023C160.705 86.627 160.424 86.2695 160.19 85.8301C159.955 85.3906 159.777 84.8574 159.654 84.2305C159.531 83.6035 159.469 82.8711 159.469 82.0332V80.082C159.469 79.0332 159.563 78.1543 159.75 77.4453C159.944 76.7363 160.216 76.168 160.568 75.7402C160.919 75.3066 161.341 74.9961 161.833 74.8086C162.331 74.6211 162.888 74.5273 163.503 74.5273C164.001 74.5273 164.458 74.5889 164.874 74.7119C165.296 74.8291 165.671 75.0195 165.999 75.2832C166.327 75.541 166.606 75.8867 166.834 76.3203C167.069 76.748 167.247 77.2725 167.37 77.8936C167.493 78.5146 167.555 79.2441 167.555 80.082ZM165.92 82.2969V79.8096C165.92 79.2354 165.885 78.7314 165.815 78.2979C165.75 77.8584 165.654 77.4834 165.525 77.1729C165.396 76.8623 165.232 76.6104 165.033 76.417C164.839 76.2236 164.614 76.083 164.356 75.9951C164.104 75.9014 163.82 75.8545 163.503 75.8545C163.117 75.8545 162.774 75.9277 162.475 76.0742C162.176 76.2148 161.924 76.4404 161.719 76.751C161.52 77.0615 161.367 77.4688 161.262 77.9727C161.157 78.4766 161.104 79.0889 161.104 79.8096V82.2969C161.104 82.8711 161.136 83.3779 161.201 83.8174C161.271 84.2568 161.373 84.6377 161.508 84.96C161.643 85.2764 161.807 85.5371 162 85.7422C162.194 85.9473 162.416 86.0996 162.668 86.1992C162.926 86.293 163.21 86.3398 163.521 86.3398C163.919 86.3398 164.268 86.2637 164.567 86.1113C164.866 85.959 165.115 85.7217 165.314 85.3994C165.519 85.0713 165.671 84.6523 165.771 84.1426C165.87 83.627 165.92 83.0117 165.92 82.2969ZM178.04 80.6357V82.165H169.269V80.6357H178.04ZM174.472 76.9004V86.2168H172.846V76.9004H174.472ZM192.472 83.4307H194.159C194.072 84.2393 193.84 84.9629 193.465 85.6016C193.09 86.2402 192.56 86.7471 191.874 87.1221C191.189 87.4912 190.333 87.6758 189.308 87.6758C188.558 87.6758 187.875 87.5352 187.26 87.2539C186.651 86.9727 186.126 86.5742 185.687 86.0586C185.247 85.5371 184.908 84.9131 184.667 84.1865C184.433 83.4541 184.316 82.6396 184.316 81.7432V80.4688C184.316 79.5723 184.433 78.7607 184.667 78.0342C184.908 77.3018 185.25 76.6748 185.696 76.1533C186.147 75.6318 186.689 75.2305 187.322 74.9492C187.954 74.668 188.666 74.5273 189.457 74.5273C190.424 74.5273 191.242 74.709 191.909 75.0723C192.577 75.4355 193.096 75.9395 193.465 76.584C193.84 77.2227 194.072 77.9639 194.159 78.8076H192.472C192.39 78.21 192.238 77.6973 192.015 77.2695C191.792 76.8359 191.476 76.502 191.066 76.2676C190.656 76.0332 190.119 75.916 189.457 75.916C188.889 75.916 188.388 76.0244 187.954 76.2412C187.527 76.458 187.166 76.7656 186.873 77.1641C186.586 77.5625 186.369 78.04 186.223 78.5967C186.076 79.1533 186.003 79.7715 186.003 80.4512V81.7432C186.003 82.3701 186.068 82.959 186.197 83.5098C186.331 84.0605 186.534 84.5439 186.803 84.96C187.073 85.376 187.415 85.7041 187.831 85.9443C188.247 86.1787 188.74 86.2959 189.308 86.2959C190.029 86.2959 190.603 86.1816 191.031 85.9531C191.458 85.7246 191.781 85.3965 191.997 84.9688C192.22 84.541 192.378 84.0283 192.472 83.4307ZM195.794 82.8506V82.6484C195.794 81.9629 195.894 81.3271 196.093 80.7412C196.292 80.1494 196.579 79.6367 196.954 79.2031C197.329 78.7637 197.784 78.4238 198.317 78.1836C198.85 77.9375 199.448 77.8145 200.11 77.8145C200.778 77.8145 201.378 77.9375 201.911 78.1836C202.451 78.4238 202.908 78.7637 203.283 79.2031C203.663 79.6367 203.953 80.1494 204.153 80.7412C204.352 81.3271 204.451 81.9629 204.451 82.6484V82.8506C204.451 83.5361 204.352 84.1719 204.153 84.7578C203.953 85.3438 203.663 85.8564 203.283 86.2959C202.908 86.7295 202.453 87.0693 201.92 87.3154C201.393 87.5557 200.795 87.6758 200.127 87.6758C199.459 87.6758 198.859 87.5557 198.326 87.3154C197.792 87.0693 197.335 86.7295 196.954 86.2959C196.579 85.8564 196.292 85.3438 196.093 84.7578C195.894 84.1719 195.794 83.5361 195.794 82.8506ZM197.42 82.6484V82.8506C197.42 83.3252 197.476 83.7734 197.587 84.1953C197.699 84.6113 197.866 84.9805 198.088 85.3027C198.317 85.625 198.601 85.8799 198.941 86.0674C199.281 86.249 199.676 86.3398 200.127 86.3398C200.573 86.3398 200.962 86.249 201.296 86.0674C201.636 85.8799 201.917 85.625 202.14 85.3027C202.363 84.9805 202.53 84.6113 202.641 84.1953C202.758 83.7734 202.817 83.3252 202.817 82.8506V82.6484C202.817 82.1797 202.758 81.7373 202.641 81.3213C202.53 80.8994 202.36 80.5273 202.131 80.2051C201.909 79.877 201.627 79.6191 201.287 79.4316C200.953 79.2441 200.561 79.1504 200.11 79.1504C199.664 79.1504 199.272 79.2441 198.932 79.4316C198.598 79.6191 198.317 79.877 198.088 80.2051C197.866 80.5273 197.699 80.8994 197.587 81.3213C197.476 81.7373 197.42 82.1797 197.42 82.6484ZM212.309 85.3027V77.9902H213.944V87.5H212.388L212.309 85.3027ZM212.617 83.2988L213.293 83.2812C213.293 83.9141 213.226 84.5 213.091 85.0391C212.962 85.5723 212.751 86.0352 212.458 86.4277C212.165 86.8203 211.782 87.1279 211.307 87.3506C210.832 87.5674 210.255 87.6758 209.576 87.6758C209.113 87.6758 208.688 87.6084 208.301 87.4736C207.92 87.3389 207.592 87.1309 207.317 86.8496C207.041 86.5684 206.827 86.2021 206.675 85.751C206.529 85.2998 206.455 84.7578 206.455 84.125V77.9902H208.081V84.1426C208.081 84.5703 208.128 84.9248 208.222 85.2061C208.322 85.4814 208.453 85.7012 208.617 85.8652C208.787 86.0234 208.975 86.1348 209.18 86.1992C209.391 86.2637 209.608 86.2959 209.83 86.2959C210.522 86.2959 211.07 86.1641 211.474 85.9004C211.878 85.6309 212.168 85.2705 212.344 84.8193C212.526 84.3623 212.617 83.8555 212.617 83.2988ZM218.048 79.4844V87.5H216.422V77.9902H218.004L218.048 79.4844ZM221.019 77.9375L221.01 79.4492C220.875 79.4199 220.746 79.4023 220.623 79.3965C220.506 79.3848 220.371 79.3789 220.219 79.3789C219.844 79.3789 219.513 79.4375 219.226 79.5547C218.939 79.6719 218.696 79.8359 218.496 80.0469C218.297 80.2578 218.139 80.5098 218.022 80.8027C217.91 81.0898 217.837 81.4062 217.802 81.752L217.345 82.0156C217.345 81.4414 217.401 80.9023 217.512 80.3984C217.629 79.8945 217.808 79.4492 218.048 79.0625C218.288 78.6699 218.593 78.3652 218.962 78.1484C219.337 77.9258 219.783 77.8145 220.298 77.8145C220.415 77.8145 220.55 77.8291 220.702 77.8584C220.855 77.8818 220.96 77.9082 221.019 77.9375ZM228.059 84.9775C228.059 84.7432 228.006 84.5264 227.901 84.3271C227.801 84.1221 227.593 83.9375 227.277 83.7734C226.966 83.6035 226.497 83.457 225.87 83.334C225.343 83.2227 224.866 83.0908 224.438 82.9385C224.016 82.7861 223.656 82.6016 223.357 82.3848C223.064 82.168 222.838 81.9131 222.68 81.6201C222.522 81.3271 222.443 80.9844 222.443 80.5918C222.443 80.2168 222.525 79.8623 222.689 79.5283C222.859 79.1943 223.096 78.8984 223.401 78.6406C223.711 78.3828 224.083 78.1807 224.517 78.0342C224.951 77.8877 225.434 77.8145 225.967 77.8145C226.729 77.8145 227.379 77.9492 227.918 78.2188C228.457 78.4883 228.87 78.8486 229.158 79.2998C229.445 79.7451 229.588 80.2402 229.588 80.7852H227.962C227.962 80.5215 227.883 80.2666 227.725 80.0205C227.573 79.7686 227.347 79.5605 227.048 79.3965C226.755 79.2324 226.395 79.1504 225.967 79.1504C225.516 79.1504 225.15 79.2207 224.868 79.3613C224.593 79.4961 224.391 79.6689 224.262 79.8799C224.139 80.0908 224.077 80.3135 224.077 80.5479C224.077 80.7236 224.107 80.8818 224.165 81.0225C224.23 81.1572 224.341 81.2832 224.499 81.4004C224.658 81.5117 224.88 81.6172 225.167 81.7168C225.454 81.8164 225.821 81.916 226.266 82.0156C227.045 82.1914 227.687 82.4023 228.191 82.6484C228.695 82.8945 229.07 83.1963 229.316 83.5537C229.562 83.9111 229.685 84.3447 229.685 84.8545C229.685 85.2705 229.597 85.6514 229.421 85.9971C229.251 86.3428 229.002 86.6416 228.674 86.8936C228.352 87.1396 227.965 87.333 227.514 87.4736C227.069 87.6084 226.568 87.6758 226.011 87.6758C225.173 87.6758 224.464 87.5264 223.884 87.2275C223.304 86.9287 222.865 86.542 222.566 86.0674C222.267 85.5928 222.117 85.0918 222.117 84.5645H223.752C223.776 85.0098 223.905 85.3643 224.139 85.6279C224.373 85.8857 224.66 86.0703 225 86.1816C225.34 86.2871 225.677 86.3398 226.011 86.3398C226.456 86.3398 226.828 86.2812 227.127 86.1641C227.432 86.0469 227.663 85.8857 227.822 85.6807C227.98 85.4756 228.059 85.2412 228.059 84.9775ZM235.767 87.6758C235.105 87.6758 234.504 87.5645 233.965 87.3418C233.432 87.1133 232.972 86.7939 232.585 86.3838C232.204 85.9736 231.911 85.4873 231.706 84.9248C231.501 84.3623 231.399 83.7471 231.399 83.0791V82.71C231.399 81.9365 231.513 81.248 231.742 80.6445C231.97 80.0352 232.281 79.5195 232.673 79.0977C233.066 78.6758 233.511 78.3564 234.009 78.1396C234.507 77.9229 235.023 77.8145 235.556 77.8145C236.236 77.8145 236.822 77.9316 237.314 78.166C237.812 78.4004 238.219 78.7285 238.535 79.1504C238.852 79.5664 239.086 80.0586 239.239 80.627C239.391 81.1895 239.467 81.8047 239.467 82.4727V83.2021H232.366V81.875H237.841V81.752C237.818 81.3301 237.73 80.9199 237.577 80.5215C237.431 80.123 237.197 79.7949 236.874 79.5371C236.552 79.2793 236.113 79.1504 235.556 79.1504C235.187 79.1504 234.847 79.2295 234.536 79.3877C234.226 79.54 233.959 79.7686 233.737 80.0732C233.514 80.3779 233.341 80.75 233.218 81.1895C233.095 81.6289 233.034 82.1357 233.034 82.71V83.0791C233.034 83.5303 233.095 83.9551 233.218 84.3535C233.347 84.7461 233.532 85.0918 233.772 85.3906C234.018 85.6895 234.314 85.9238 234.659 86.0938C235.011 86.2637 235.409 86.3486 235.855 86.3486C236.429 86.3486 236.915 86.2314 237.314 85.9971C237.712 85.7627 238.061 85.4492 238.36 85.0566L239.344 85.8389C239.139 86.1494 238.878 86.4453 238.562 86.7266C238.245 87.0078 237.856 87.2363 237.393 87.4121C236.936 87.5879 236.394 87.6758 235.767 87.6758ZM246.903 84.9775C246.903 84.7432 246.85 84.5264 246.744 84.3271C246.645 84.1221 246.437 83.9375 246.12 83.7734C245.81 83.6035 245.341 83.457 244.714 83.334C244.187 83.2227 243.709 83.0908 243.282 82.9385C242.86 82.7861 242.499 82.6016 242.201 82.3848C241.908 82.168 241.682 81.9131 241.524 81.6201C241.366 81.3271 241.286 80.9844 241.286 80.5918C241.286 80.2168 241.368 79.8623 241.533 79.5283C241.702 79.1943 241.94 78.8984 242.244 78.6406C242.555 78.3828 242.927 78.1807 243.361 78.0342C243.794 77.8877 244.278 77.8145 244.811 77.8145C245.573 77.8145 246.223 77.9492 246.762 78.2188C247.301 78.4883 247.714 78.8486 248.001 79.2998C248.288 79.7451 248.432 80.2402 248.432 80.7852H246.806C246.806 80.5215 246.727 80.2666 246.569 80.0205C246.416 79.7686 246.191 79.5605 245.892 79.3965C245.599 79.2324 245.239 79.1504 244.811 79.1504C244.36 79.1504 243.993 79.2207 243.712 79.3613C243.437 79.4961 243.235 79.6689 243.106 79.8799C242.983 80.0908 242.921 80.3135 242.921 80.5479C242.921 80.7236 242.951 80.8818 243.009 81.0225C243.074 81.1572 243.185 81.2832 243.343 81.4004C243.501 81.5117 243.724 81.6172 244.011 81.7168C244.298 81.8164 244.664 81.916 245.11 82.0156C245.889 82.1914 246.531 82.4023 247.034 82.6484C247.538 82.8945 247.913 83.1963 248.159 83.5537C248.406 83.9111 248.529 84.3447 248.529 84.8545C248.529 85.2705 248.441 85.6514 248.265 85.9971C248.095 86.3428 247.846 86.6416 247.518 86.8936C247.196 87.1396 246.809 87.333 246.358 87.4736C245.912 87.6084 245.411 87.6758 244.855 87.6758C244.017 87.6758 243.308 87.5264 242.728 87.2275C242.148 86.9287 241.708 86.542 241.409 86.0674C241.111 85.5928 240.961 85.0918 240.961 84.5645H242.596C242.619 85.0098 242.748 85.3643 242.983 85.6279C243.217 85.8857 243.504 86.0703 243.844 86.1816C244.184 86.2871 244.521 86.3398 244.855 86.3398C245.3 86.3398 245.672 86.2812 245.971 86.1641C246.276 86.0469 246.507 85.8857 246.665 85.6807C246.824 85.4756 246.903 85.2412 246.903 84.9775ZM260.113 75.8369L255.876 87.5H254.145L259.023 74.7031H260.139L260.113 75.8369ZM263.663 87.5L259.418 75.8369L259.392 74.7031H260.508L265.404 87.5H263.663ZM263.444 82.7627V84.1514H256.254V82.7627H263.444ZM269.324 86.0322L271.925 77.9902H273.586L270.167 87.5H269.077L269.324 86.0322ZM267.153 77.9902L269.833 86.0762L270.018 87.5H268.928L265.483 77.9902H267.153ZM280.617 85.874V80.9785C280.617 80.6035 280.541 80.2783 280.389 80.0029C280.242 79.7217 280.02 79.5049 279.721 79.3525C279.422 79.2002 279.053 79.124 278.614 79.124C278.203 79.124 277.843 79.1943 277.533 79.335C277.228 79.4756 276.988 79.6602 276.812 79.8887C276.642 80.1172 276.557 80.3633 276.557 80.627H274.931C274.931 80.2871 275.019 79.9502 275.195 79.6162C275.37 79.2822 275.622 78.9805 275.951 78.7109C276.284 78.4355 276.683 78.2188 277.146 78.0605C277.615 77.8965 278.136 77.8145 278.71 77.8145C279.402 77.8145 280.011 77.9316 280.538 78.166C281.072 78.4004 281.488 78.7549 281.786 79.2295C282.091 79.6982 282.243 80.2871 282.243 80.9961V85.4258C282.243 85.7422 282.27 86.0791 282.323 86.4365C282.381 86.7939 282.466 87.1016 282.577 87.3594V87.5H280.881C280.799 87.3125 280.735 87.0635 280.688 86.7529C280.641 86.4365 280.617 86.1436 280.617 85.874ZM280.899 81.7344L280.916 82.877H279.273C278.81 82.877 278.397 82.915 278.034 82.9912C277.67 83.0615 277.366 83.1699 277.119 83.3164C276.873 83.4629 276.686 83.6475 276.557 83.8701C276.428 84.0869 276.364 84.3418 276.364 84.6348C276.364 84.9336 276.431 85.2061 276.566 85.4521C276.701 85.6982 276.903 85.8945 277.172 86.041C277.448 86.1816 277.784 86.252 278.183 86.252C278.681 86.252 279.12 86.1465 279.501 85.9355C279.882 85.7246 280.184 85.4668 280.407 85.1621C280.635 84.8574 280.758 84.5615 280.776 84.2744L281.47 85.0566C281.429 85.3027 281.318 85.5752 281.136 85.874C280.954 86.1729 280.711 86.46 280.407 86.7354C280.108 87.0049 279.75 87.2305 279.334 87.4121C278.924 87.5879 278.461 87.6758 277.946 87.6758C277.301 87.6758 276.736 87.5498 276.249 87.2979C275.769 87.0459 275.394 86.709 275.124 86.2871C274.861 85.8594 274.729 85.3818 274.729 84.8545C274.729 84.3447 274.828 83.8965 275.028 83.5098C275.227 83.1172 275.514 82.792 275.889 82.5342C276.264 82.2705 276.715 82.0713 277.242 81.9365C277.77 81.8018 278.359 81.7344 279.009 81.7344H280.899ZM286.568 77.9902V87.5H284.933V77.9902H286.568ZM284.81 75.4678C284.81 75.2041 284.889 74.9814 285.047 74.7998C285.211 74.6182 285.451 74.5273 285.768 74.5273C286.078 74.5273 286.316 74.6182 286.48 74.7998C286.65 74.9814 286.735 75.2041 286.735 75.4678C286.735 75.7197 286.65 75.9365 286.48 76.1182C286.316 76.2939 286.078 76.3818 285.768 76.3818C285.451 76.3818 285.211 76.2939 285.047 76.1182C284.889 75.9365 284.81 75.7197 284.81 75.4678ZM290.945 74V87.5H289.31V74H290.945ZM299.162 85.874V80.9785C299.162 80.6035 299.086 80.2783 298.934 80.0029C298.787 79.7217 298.565 79.5049 298.266 79.3525C297.967 79.2002 297.598 79.124 297.159 79.124C296.748 79.124 296.388 79.1943 296.077 79.335C295.773 79.4756 295.533 79.6602 295.357 79.8887C295.187 80.1172 295.102 80.3633 295.102 80.627H293.476C293.476 80.2871 293.564 79.9502 293.74 79.6162C293.915 79.2822 294.167 78.9805 294.495 78.7109C294.829 78.4355 295.228 78.2188 295.691 78.0605C296.159 77.8965 296.681 77.8145 297.255 77.8145C297.947 77.8145 298.556 77.9316 299.083 78.166C299.617 78.4004 300.033 78.7549 300.331 79.2295C300.636 79.6982 300.788 80.2871 300.788 80.9961V85.4258C300.788 85.7422 300.815 86.0791 300.867 86.4365C300.926 86.7939 301.011 87.1016 301.122 87.3594V87.5H299.426C299.344 87.3125 299.28 87.0635 299.233 86.7529C299.186 86.4365 299.162 86.1436 299.162 85.874ZM299.444 81.7344L299.461 82.877H297.818C297.355 82.877 296.942 82.915 296.578 82.9912C296.215 83.0615 295.91 83.1699 295.664 83.3164C295.418 83.4629 295.231 83.6475 295.102 83.8701C294.973 84.0869 294.909 84.3418 294.909 84.6348C294.909 84.9336 294.976 85.2061 295.111 85.4521C295.245 85.6982 295.448 85.8945 295.717 86.041C295.992 86.1816 296.329 86.252 296.728 86.252C297.226 86.252 297.665 86.1465 298.046 85.9355C298.427 85.7246 298.729 85.4668 298.951 85.1621C299.18 84.8574 299.303 84.5615 299.321 84.2744L300.015 85.0566C299.974 85.3027 299.863 85.5752 299.681 85.874C299.499 86.1729 299.256 86.46 298.951 86.7354C298.653 87.0049 298.295 87.2305 297.879 87.4121C297.469 87.5879 297.006 87.6758 296.491 87.6758C295.846 87.6758 295.281 87.5498 294.794 87.2979C294.314 87.0459 293.939 86.709 293.669 86.2871C293.406 85.8594 293.274 85.3818 293.274 84.8545C293.274 84.3447 293.373 83.8965 293.573 83.5098C293.772 83.1172 294.059 82.792 294.434 82.5342C294.809 82.2705 295.26 82.0713 295.787 81.9365C296.315 81.8018 296.904 81.7344 297.554 81.7344H299.444ZM303.337 74H304.972V85.6543L304.831 87.5H303.337V74ZM311.397 82.666V82.8506C311.397 83.542 311.315 84.1836 311.151 84.7754C310.987 85.3613 310.746 85.8711 310.43 86.3047C310.114 86.7383 309.727 87.0752 309.27 87.3154C308.813 87.5557 308.288 87.6758 307.697 87.6758C307.093 87.6758 306.563 87.5732 306.106 87.3682C305.655 87.1572 305.274 86.8555 304.963 86.4629C304.653 86.0703 304.404 85.5957 304.216 85.0391C304.034 84.4824 303.909 83.8555 303.838 83.1582V82.3496C303.909 81.6465 304.034 81.0166 304.216 80.46C304.404 79.9033 304.653 79.4287 304.963 79.0361C305.274 78.6377 305.655 78.3359 306.106 78.1309C306.557 77.9199 307.081 77.8145 307.679 77.8145C308.277 77.8145 308.807 77.9316 309.27 78.166C309.733 78.3945 310.119 78.7227 310.43 79.1504C310.746 79.5781 310.987 80.0908 311.151 80.6885C311.315 81.2803 311.397 81.9395 311.397 82.666ZM309.762 82.8506V82.666C309.762 82.1914 309.718 81.7461 309.63 81.3301C309.542 80.9082 309.402 80.5391 309.208 80.2227C309.015 79.9004 308.76 79.6484 308.444 79.4668C308.127 79.2793 307.738 79.1855 307.275 79.1855C306.865 79.1855 306.507 79.2559 306.202 79.3965C305.904 79.5371 305.649 79.7275 305.438 79.9678C305.227 80.2021 305.054 80.4717 304.919 80.7764C304.79 81.0752 304.694 81.3857 304.629 81.708V83.8262C304.723 84.2363 304.875 84.6318 305.086 85.0127C305.303 85.3877 305.59 85.6953 305.948 85.9355C306.311 86.1758 306.759 86.2959 307.292 86.2959C307.732 86.2959 308.107 86.208 308.417 86.0322C308.734 85.8506 308.989 85.6016 309.182 85.2852C309.381 84.9688 309.528 84.6025 309.621 84.1865C309.715 83.7705 309.762 83.3252 309.762 82.8506ZM315.22 74V87.5H313.585V74H315.22ZM321.777 87.6758C321.115 87.6758 320.514 87.5645 319.975 87.3418C319.442 87.1133 318.982 86.7939 318.595 86.3838C318.214 85.9736 317.921 85.4873 317.716 84.9248C317.511 84.3623 317.409 83.7471 317.409 83.0791V82.71C317.409 81.9365 317.523 81.248 317.751 80.6445C317.98 80.0352 318.29 79.5195 318.683 79.0977C319.076 78.6758 319.521 78.3564 320.019 78.1396C320.517 77.9229 321.033 77.8145 321.566 77.8145C322.245 77.8145 322.831 77.9316 323.324 78.166C323.822 78.4004 324.229 78.7285 324.545 79.1504C324.862 79.5664 325.096 80.0586 325.248 80.627C325.401 81.1895 325.477 81.8047 325.477 82.4727V83.2021H318.375V81.875H323.851V81.752C323.827 81.3301 323.74 80.9199 323.587 80.5215C323.441 80.123 323.206 79.7949 322.884 79.5371C322.562 79.2793 322.122 79.1504 321.566 79.1504C321.197 79.1504 320.857 79.2295 320.546 79.3877C320.236 79.54 319.969 79.7686 319.746 80.0732C319.524 80.3779 319.351 80.75 319.228 81.1895C319.105 81.6289 319.043 82.1357 319.043 82.71V83.0791C319.043 83.5303 319.105 83.9551 319.228 84.3535C319.357 84.7461 319.541 85.0918 319.782 85.3906C320.028 85.6895 320.324 85.9238 320.669 86.0938C321.021 86.2637 321.419 86.3486 321.865 86.3486C322.439 86.3486 322.925 86.2314 323.324 85.9971C323.722 85.7627 324.071 85.4492 324.369 85.0566L325.354 85.8389C325.149 86.1494 324.888 86.4453 324.572 86.7266C324.255 87.0078 323.866 87.2363 323.403 87.4121C322.946 87.5879 322.404 87.6758 321.777 87.6758Z" fill="black"/>
</svg>
