<svg width="411" height="132" viewBox="0 0 411 132" fill="none" xmlns="http://www.w3.org/2000/svg">
<rect x="0.333313" width="410.667" height="132" rx="5" fill="#F7F7F7"/>
<rect x="16.3333" y="16" width="100" height="100" rx="5" fill="white"/>
<path d="M73.3734 63.9334L78.3333 58.9734L73.3734 54.0134" stroke="#292D32" stroke-width="1.5" stroke-linecap="round" stroke-linejoin="round"/>
<path d="M54.3333 58.9734H78.3333" stroke="#292D32" stroke-width="1.5" stroke-linecap="round" stroke-linejoin="round"/>
<path d="M59.2933 68.0667L54.3333 73.0267L59.2933 77.9867" stroke="#292D32" stroke-width="1.5" stroke-linecap="round" stroke-linejoin="round"/>
<path d="M78.3333 73.0269H54.3333" stroke="#292D32" stroke-width="1.5" stroke-linecap="round" stroke-linejoin="round"/>
<path d="M157.132 55.8086C157.132 55.5352 157.09 55.291 157.005 55.0762C156.927 54.8548 156.781 54.6562 156.566 54.4805C156.357 54.2982 156.061 54.1224 155.677 53.9531C155.299 53.7773 154.811 53.5951 154.212 53.4062C153.548 53.1979 152.93 52.9635 152.357 52.7031C151.784 52.4427 151.279 52.14 150.843 51.7949C150.413 51.4499 150.078 51.0527 149.837 50.6035C149.596 50.1478 149.476 49.6204 149.476 49.0215C149.476 48.4355 149.6 47.9017 149.847 47.4199C150.101 46.9382 150.459 46.5247 150.921 46.1797C151.383 45.8281 151.927 45.5579 152.552 45.3691C153.184 45.1803 153.88 45.0859 154.642 45.0859C155.697 45.0859 156.608 45.278 157.376 45.6621C158.151 46.0462 158.75 46.5671 159.173 47.2246C159.596 47.8822 159.808 48.6211 159.808 49.4414H157.132C157.132 48.9987 157.038 48.6081 156.849 48.2695C156.667 47.931 156.387 47.6641 156.009 47.4688C155.638 47.2734 155.169 47.1758 154.603 47.1758C154.056 47.1758 153.6 47.2572 153.236 47.4199C152.878 47.5827 152.607 47.804 152.425 48.084C152.249 48.3639 152.161 48.6764 152.161 49.0215C152.161 49.2819 152.223 49.5163 152.347 49.7246C152.471 49.9264 152.656 50.1185 152.904 50.3008C153.151 50.4766 153.457 50.6426 153.822 50.7988C154.193 50.9486 154.622 51.0983 155.111 51.248C155.892 51.4824 156.576 51.7428 157.161 52.0293C157.754 52.3158 158.245 52.6413 158.636 53.0059C159.033 53.3704 159.329 53.7806 159.525 54.2363C159.727 54.6921 159.827 55.2096 159.827 55.7891C159.827 56.401 159.707 56.9479 159.466 57.4297C159.225 57.9115 158.88 58.3216 158.431 58.6602C157.982 58.9987 157.441 59.2559 156.81 59.4316C156.185 59.6074 155.485 59.6953 154.71 59.6953C154.02 59.6953 153.337 59.6042 152.659 59.4219C151.989 59.2331 151.38 58.9531 150.833 58.582C150.286 58.2044 149.85 57.7292 149.525 57.1562C149.199 56.5768 149.036 55.8997 149.036 55.125H151.732C151.732 55.5742 151.803 55.9583 151.947 56.2773C152.096 56.5898 152.305 56.847 152.572 57.0488C152.845 57.2441 153.164 57.3874 153.529 57.4785C153.893 57.5697 154.287 57.6152 154.71 57.6152C155.257 57.6152 155.706 57.5404 156.058 57.3906C156.416 57.2344 156.683 57.0195 156.859 56.7461C157.041 56.4727 157.132 56.1602 157.132 55.8086ZM166.449 59.6953C165.648 59.6953 164.928 59.5651 164.29 59.3047C163.652 59.0443 163.109 58.6829 162.659 58.2207C162.217 57.752 161.875 57.2083 161.634 56.5898C161.4 55.9648 161.283 55.2943 161.283 54.5781V54.1875C161.283 53.3737 161.4 52.6348 161.634 51.9707C161.868 51.3001 162.201 50.724 162.63 50.2422C163.06 49.7604 163.574 49.3893 164.173 49.1289C164.772 48.8685 165.433 48.7383 166.156 48.7383C166.904 48.7383 167.565 48.8652 168.138 49.1191C168.711 49.3665 169.189 49.7181 169.574 50.1738C169.958 50.6296 170.247 51.1764 170.443 51.8145C170.638 52.446 170.736 53.1458 170.736 53.9141V54.998H162.454V53.2207H168.197V53.0254C168.184 52.6152 168.105 52.2409 167.962 51.9023C167.819 51.5573 167.598 51.2839 167.298 51.082C166.999 50.8737 166.611 50.7695 166.136 50.7695C165.752 50.7695 165.417 50.8542 165.13 51.0234C164.85 51.1862 164.616 51.4206 164.427 51.7266C164.245 52.026 164.108 52.3841 164.017 52.8008C163.926 53.2174 163.88 53.6797 163.88 54.1875V54.5781C163.88 55.0208 163.939 55.431 164.056 55.8086C164.18 56.1862 164.359 56.515 164.593 56.7949C164.834 57.0684 165.12 57.2832 165.452 57.4395C165.791 57.5892 166.175 57.6641 166.605 57.6641C167.145 57.6641 167.633 57.5599 168.07 57.3516C168.512 57.1367 168.896 56.821 169.222 56.4043L170.521 57.752C170.299 58.0775 170 58.39 169.622 58.6895C169.251 58.9889 168.802 59.2331 168.275 59.4219C167.747 59.6042 167.139 59.6953 166.449 59.6953ZM175.199 44.5V59.5H172.611V44.5H175.199ZM181.038 59.5H178.441V47.957C178.441 47.1628 178.594 46.4954 178.9 45.9551C179.206 45.4082 179.642 44.9948 180.208 44.7148C180.775 44.4349 181.442 44.2949 182.21 44.2949C182.464 44.2949 182.705 44.3112 182.933 44.3438C183.167 44.3763 183.398 44.4219 183.626 44.4805L183.577 46.4434C183.454 46.4108 183.317 46.388 183.167 46.375C183.024 46.362 182.865 46.3555 182.689 46.3555C182.337 46.3555 182.038 46.4173 181.79 46.541C181.543 46.6647 181.354 46.847 181.224 47.0879C181.1 47.3223 181.038 47.612 181.038 47.957V59.5ZM183.177 48.9336V50.7891H176.849V48.9336H183.177ZM194.193 59.5H191.126L191.146 57.3906H194.193C195.02 57.3906 195.713 57.2083 196.273 56.8438C196.833 56.4727 197.256 55.9421 197.542 55.252C197.829 54.5553 197.972 53.722 197.972 52.752V52.0195C197.972 51.2708 197.891 50.61 197.728 50.0371C197.565 49.4642 197.324 48.9824 197.005 48.5918C196.693 48.2012 196.305 47.9049 195.843 47.7031C195.381 47.5013 194.85 47.4004 194.251 47.4004H191.068V45.2812H194.251C195.202 45.2812 196.068 45.4408 196.849 45.7598C197.637 46.0788 198.317 46.5378 198.89 47.1367C199.469 47.7292 199.912 48.4388 200.218 49.2656C200.531 50.0924 200.687 51.0169 200.687 52.0391V52.752C200.687 53.7676 200.531 54.6921 200.218 55.5254C199.912 56.3522 199.469 57.0618 198.89 57.6543C198.317 58.2467 197.633 58.7025 196.839 59.0215C196.045 59.3405 195.163 59.5 194.193 59.5ZM192.63 45.2812V59.5H189.945V45.2812H192.63ZM207.523 59.6953C206.722 59.6953 206.003 59.5651 205.365 59.3047C204.727 59.0443 204.183 58.6829 203.734 58.2207C203.291 57.752 202.949 57.2083 202.708 56.5898C202.474 55.9648 202.357 55.2943 202.357 54.5781V54.1875C202.357 53.3737 202.474 52.6348 202.708 51.9707C202.943 51.3001 203.275 50.724 203.704 50.2422C204.134 49.7604 204.648 49.3893 205.247 49.1289C205.846 48.8685 206.507 48.7383 207.23 48.7383C207.978 48.7383 208.639 48.8652 209.212 49.1191C209.785 49.3665 210.264 49.7181 210.648 50.1738C211.032 50.6296 211.322 51.1764 211.517 51.8145C211.712 52.446 211.81 53.1458 211.81 53.9141V54.998H203.529V53.2207H209.271V53.0254C209.258 52.6152 209.18 52.2409 209.036 51.9023C208.893 51.5573 208.672 51.2839 208.372 51.082C208.073 50.8737 207.686 50.7695 207.21 50.7695C206.826 50.7695 206.491 50.8542 206.204 51.0234C205.924 51.1862 205.69 51.4206 205.501 51.7266C205.319 52.026 205.182 52.3841 205.091 52.8008C205 53.2174 204.954 53.6797 204.954 54.1875V54.5781C204.954 55.0208 205.013 55.431 205.13 55.8086C205.254 56.1862 205.433 56.515 205.667 56.7949C205.908 57.0684 206.195 57.2832 206.527 57.4395C206.865 57.5892 207.249 57.6641 207.679 57.6641C208.219 57.6641 208.708 57.5599 209.144 57.3516C209.587 57.1367 209.971 56.821 210.296 56.4043L211.595 57.752C211.374 58.0775 211.074 58.39 210.697 58.6895C210.326 58.9889 209.876 59.2331 209.349 59.4219C208.822 59.6042 208.213 59.6953 207.523 59.6953ZM216.908 57.5469L219.368 48.9336H222.064L218.441 59.5H216.8L216.908 57.5469ZM215.111 48.9336L217.601 57.5664L217.689 59.5H216.038L212.406 48.9336H215.111ZM228.031 59.6953C227.23 59.6953 226.51 59.5651 225.872 59.3047C225.234 59.0443 224.691 58.6829 224.242 58.2207C223.799 57.752 223.457 57.2083 223.216 56.5898C222.982 55.9648 222.865 55.2943 222.865 54.5781V54.1875C222.865 53.3737 222.982 52.6348 223.216 51.9707C223.451 51.3001 223.783 50.724 224.212 50.2422C224.642 49.7604 225.156 49.3893 225.755 49.1289C226.354 48.8685 227.015 48.7383 227.738 48.7383C228.486 48.7383 229.147 48.8652 229.72 49.1191C230.293 49.3665 230.771 49.7181 231.156 50.1738C231.54 50.6296 231.829 51.1764 232.025 51.8145C232.22 52.446 232.318 53.1458 232.318 53.9141V54.998H224.036V53.2207H229.779V53.0254C229.766 52.6152 229.687 52.2409 229.544 51.9023C229.401 51.5573 229.18 51.2839 228.88 51.082C228.581 50.8737 228.193 50.7695 227.718 50.7695C227.334 50.7695 226.999 50.8542 226.712 51.0234C226.432 51.1862 226.198 51.4206 226.009 51.7266C225.827 52.026 225.69 52.3841 225.599 52.8008C225.508 53.2174 225.462 53.6797 225.462 54.1875V54.5781C225.462 55.0208 225.521 55.431 225.638 55.8086C225.762 56.1862 225.941 56.515 226.175 56.7949C226.416 57.0684 226.702 57.2832 227.034 57.4395C227.373 57.5892 227.757 57.6641 228.187 57.6641C228.727 57.6641 229.215 57.5599 229.652 57.3516C230.094 57.1367 230.478 56.821 230.804 56.4043L232.103 57.752C231.881 58.0775 231.582 58.39 231.204 58.6895C230.833 58.9889 230.384 59.2331 229.857 59.4219C229.329 59.6042 228.721 59.6953 228.031 59.6953ZM236.781 44.5V59.5H234.193V44.5H236.781ZM238.783 54.3242V54.1191C238.783 53.3444 238.893 52.6315 239.115 51.9805C239.336 51.3229 239.658 50.7533 240.081 50.2715C240.505 49.7897 241.022 49.4154 241.634 49.1484C242.246 48.875 242.943 48.7383 243.724 48.7383C244.518 48.7383 245.221 48.875 245.833 49.1484C246.452 49.4154 246.973 49.7897 247.396 50.2715C247.819 50.7533 248.141 51.3229 248.363 51.9805C248.584 52.6315 248.695 53.3444 248.695 54.1191V54.3242C248.695 55.0924 248.584 55.8053 248.363 56.4629C248.141 57.1139 247.819 57.6836 247.396 58.1719C246.973 58.6536 246.455 59.028 245.843 59.2949C245.231 59.5618 244.531 59.6953 243.743 59.6953C242.962 59.6953 242.262 59.5618 241.644 59.2949C241.025 59.028 240.505 58.6536 240.081 58.1719C239.658 57.6836 239.336 57.1139 239.115 56.4629C238.893 55.8053 238.783 55.0924 238.783 54.3242ZM241.361 54.1191V54.3242C241.361 54.7865 241.406 55.2194 241.497 55.623C241.589 56.0267 241.728 56.3815 241.917 56.6875C242.106 56.9935 242.35 57.2344 242.65 57.4102C242.956 57.5794 243.32 57.6641 243.743 57.6641C244.16 57.6641 244.518 57.5794 244.818 57.4102C245.117 57.2344 245.361 56.9935 245.55 56.6875C245.745 56.3815 245.889 56.0267 245.98 55.623C246.071 55.2194 246.117 54.7865 246.117 54.3242V54.1191C246.117 53.6634 246.071 53.237 245.98 52.8398C245.889 52.4362 245.745 52.0814 245.55 51.7754C245.361 51.4629 245.114 51.2188 244.808 51.043C244.508 50.8607 244.147 50.7695 243.724 50.7695C243.307 50.7695 242.949 50.8607 242.65 51.043C242.35 51.2188 242.106 51.4629 241.917 51.7754C241.728 52.0814 241.589 52.4362 241.497 52.8398C241.406 53.237 241.361 53.6634 241.361 54.1191ZM253.148 50.9648V63.5625H250.56V48.9336H252.952L253.148 50.9648ZM259.935 54.1094V54.3145C259.935 55.0827 259.844 55.7956 259.661 56.4531C259.486 57.1042 259.225 57.6738 258.88 58.1621C258.535 58.6439 258.105 59.0215 257.591 59.2949C257.083 59.5618 256.497 59.6953 255.833 59.6953C255.182 59.6953 254.616 59.5716 254.134 59.3242C253.652 59.0703 253.245 58.7122 252.913 58.25C252.581 57.7878 252.314 57.2507 252.113 56.6387C251.917 56.0202 251.771 55.3464 251.673 54.6172V53.9629C251.771 53.1882 251.917 52.485 252.113 51.8535C252.314 51.2155 252.581 50.6654 252.913 50.2031C253.245 49.7344 253.649 49.373 254.124 49.1191C254.606 48.8652 255.169 48.7383 255.814 48.7383C256.484 48.7383 257.074 48.8652 257.581 49.1191C258.096 49.373 258.529 49.7376 258.88 50.2129C259.232 50.6882 259.495 51.2546 259.671 51.9121C259.847 52.5697 259.935 53.3021 259.935 54.1094ZM257.347 54.3145V54.1094C257.347 53.6406 257.305 53.2077 257.22 52.8105C257.135 52.4069 257.005 52.0553 256.829 51.7559C256.654 51.4499 256.426 51.2122 256.146 51.043C255.866 50.8737 255.527 50.7891 255.13 50.7891C254.733 50.7891 254.391 50.8542 254.105 50.9844C253.818 51.1146 253.584 51.3001 253.402 51.541C253.219 51.7819 253.076 52.0684 252.972 52.4004C252.874 52.7259 252.809 53.0872 252.777 53.4844V55.1055C252.835 55.5872 252.949 56.0202 253.118 56.4043C253.288 56.7884 253.535 57.0944 253.861 57.3223C254.193 57.5501 254.622 57.6641 255.15 57.6641C255.547 57.6641 255.885 57.5762 256.165 57.4004C256.445 57.2246 256.673 56.9837 256.849 56.6777C257.025 56.3652 257.152 56.0072 257.23 55.6035C257.308 55.1999 257.347 54.7702 257.347 54.3145ZM264.388 51.1016V59.5H261.81V48.9336H264.242L264.388 51.1016ZM264.007 53.8359H263.216C263.216 53.1003 263.304 52.4232 263.48 51.8047C263.662 51.1862 263.929 50.6491 264.281 50.1934C264.632 49.7311 265.065 49.373 265.579 49.1191C266.1 48.8652 266.702 48.7383 267.386 48.7383C267.861 48.7383 268.298 48.8099 268.695 48.9531C269.092 49.0898 269.434 49.3079 269.72 49.6074C270.013 49.9004 270.238 50.2845 270.394 50.7598C270.55 51.2285 270.628 51.7917 270.628 52.4492V59.5H268.05V52.7129C268.05 52.2181 267.978 51.8307 267.835 51.5508C267.699 51.2708 267.5 51.0755 267.24 50.9648C266.979 50.8477 266.667 50.7891 266.302 50.7891C265.898 50.7891 265.55 50.8704 265.257 51.0332C264.971 51.1895 264.733 51.4076 264.544 51.6875C264.362 51.9674 264.225 52.2897 264.134 52.6543C264.049 53.0189 264.007 53.4128 264.007 53.8359ZM270.433 53.3574L269.368 53.5527C269.375 52.8887 269.466 52.2669 269.642 51.6875C269.818 51.1016 270.075 50.5905 270.413 50.1543C270.758 49.7116 271.185 49.3665 271.693 49.1191C272.207 48.8652 272.799 48.7383 273.47 48.7383C273.991 48.7383 274.46 48.8132 274.876 48.9629C275.299 49.1061 275.661 49.3372 275.96 49.6562C276.26 49.9688 276.488 50.3757 276.644 50.877C276.807 51.3783 276.888 51.9902 276.888 52.7129V59.5H274.29V52.7031C274.29 52.1888 274.219 51.7949 274.076 51.5215C273.939 51.248 273.74 51.0592 273.48 50.9551C273.219 50.8444 272.913 50.7891 272.562 50.7891C272.204 50.7891 271.891 50.8574 271.624 50.9941C271.364 51.1243 271.143 51.3066 270.96 51.541C270.784 51.7754 270.651 52.0488 270.56 52.3613C270.475 52.6673 270.433 52.9993 270.433 53.3574ZM283.949 59.6953C283.148 59.6953 282.428 59.5651 281.79 59.3047C281.152 59.0443 280.609 58.6829 280.159 58.2207C279.717 57.752 279.375 57.2083 279.134 56.5898C278.9 55.9648 278.783 55.2943 278.783 54.5781V54.1875C278.783 53.3737 278.9 52.6348 279.134 51.9707C279.368 51.3001 279.701 50.724 280.13 50.2422C280.56 49.7604 281.074 49.3893 281.673 49.1289C282.272 48.8685 282.933 48.7383 283.656 48.7383C284.404 48.7383 285.065 48.8652 285.638 49.1191C286.211 49.3665 286.689 49.7181 287.074 50.1738C287.458 50.6296 287.747 51.1764 287.943 51.8145C288.138 52.446 288.236 53.1458 288.236 53.9141V54.998H279.954V53.2207H285.697V53.0254C285.684 52.6152 285.605 52.2409 285.462 51.9023C285.319 51.5573 285.098 51.2839 284.798 51.082C284.499 50.8737 284.111 50.7695 283.636 50.7695C283.252 50.7695 282.917 50.8542 282.63 51.0234C282.35 51.1862 282.116 51.4206 281.927 51.7266C281.745 52.026 281.608 52.3841 281.517 52.8008C281.426 53.2174 281.38 53.6797 281.38 54.1875V54.5781C281.38 55.0208 281.439 55.431 281.556 55.8086C281.68 56.1862 281.859 56.515 282.093 56.7949C282.334 57.0684 282.62 57.2832 282.952 57.4395C283.291 57.5892 283.675 57.6641 284.105 57.6641C284.645 57.6641 285.133 57.5599 285.57 57.3516C286.012 57.1367 286.396 56.821 286.722 56.4043L288.021 57.752C287.799 58.0775 287.5 58.39 287.122 58.6895C286.751 58.9889 286.302 59.2331 285.775 59.4219C285.247 59.6042 284.639 59.6953 283.949 59.6953ZM292.493 51.1895V59.5H289.915V48.9336H292.337L292.493 51.1895ZM292.083 53.8359H291.322C291.328 53.0677 291.432 52.3711 291.634 51.7461C291.836 51.1211 292.119 50.584 292.484 50.1348C292.855 49.6855 293.294 49.3405 293.802 49.0996C294.31 48.8587 294.876 48.7383 295.501 48.7383C296.009 48.7383 296.468 48.8099 296.878 48.9531C297.288 49.0964 297.64 49.3242 297.933 49.6367C298.232 49.9492 298.46 50.3594 298.617 50.8672C298.779 51.3685 298.861 51.987 298.861 52.7227V59.5H296.263V52.7031C296.263 52.2214 296.191 51.8405 296.048 51.5605C295.911 51.2806 295.71 51.082 295.443 50.9648C295.182 50.8477 294.86 50.7891 294.476 50.7891C294.079 50.7891 293.73 50.8704 293.431 51.0332C293.138 51.1895 292.891 51.4076 292.689 51.6875C292.493 51.9674 292.344 52.2897 292.24 52.6543C292.135 53.0189 292.083 53.4128 292.083 53.8359ZM306.136 48.9336V50.7891H300.081V48.9336H306.136ZM301.702 46.3359H304.29V56.4531C304.29 56.7656 304.333 57.0065 304.417 57.1758C304.502 57.3451 304.629 57.459 304.798 57.5176C304.967 57.5762 305.169 57.6055 305.404 57.6055C305.573 57.6055 305.729 57.5957 305.872 57.5762C306.016 57.5566 306.136 57.5371 306.234 57.5176L306.243 59.4512C306.029 59.5228 305.784 59.5814 305.511 59.627C305.244 59.6725 304.941 59.6953 304.603 59.6953C304.023 59.6953 303.516 59.5977 303.079 59.4023C302.643 59.2005 302.305 58.8783 302.064 58.4355C301.823 57.9863 301.702 57.3939 301.702 56.6582V46.3359Z" fill="black"/>
<path d="M151.453 81.4092L150.153 81.0752L150.794 74.7031H157.36V76.2061H152.174L151.787 79.6865C152.022 79.5518 152.318 79.4258 152.675 79.3086C153.038 79.1914 153.454 79.1328 153.923 79.1328C154.515 79.1328 155.045 79.2354 155.514 79.4404C155.983 79.6396 156.381 79.9268 156.709 80.3018C157.043 80.6768 157.298 81.1279 157.474 81.6553C157.65 82.1826 157.738 82.7715 157.738 83.4219C157.738 84.0371 157.653 84.6025 157.483 85.1182C157.319 85.6338 157.07 86.085 156.736 86.4717C156.402 86.8525 155.98 87.1484 155.47 87.3594C154.966 87.5703 154.371 87.6758 153.686 87.6758C153.17 87.6758 152.681 87.6055 152.218 87.4648C151.761 87.3184 151.351 87.0986 150.988 86.8057C150.63 86.5068 150.337 86.1377 150.109 85.6982C149.886 85.2529 149.745 84.7314 149.687 84.1338H151.234C151.304 84.6143 151.445 85.0186 151.656 85.3467C151.867 85.6748 152.142 85.9238 152.482 86.0938C152.827 86.2578 153.229 86.3398 153.686 86.3398C154.073 86.3398 154.415 86.2725 154.714 86.1377C155.013 86.0029 155.265 85.8096 155.47 85.5576C155.675 85.3057 155.83 85.001 155.936 84.6436C156.047 84.2861 156.103 83.8848 156.103 83.4395C156.103 83.0352 156.047 82.6602 155.936 82.3145C155.825 81.9688 155.658 81.667 155.435 81.4092C155.218 81.1514 154.951 80.9521 154.635 80.8115C154.319 80.665 153.955 80.5918 153.545 80.5918C153 80.5918 152.587 80.665 152.306 80.8115C152.031 80.958 151.746 81.1572 151.453 81.4092ZM167.555 80.082V82.0332C167.555 83.082 167.461 83.9668 167.274 84.6875C167.086 85.4082 166.817 85.9883 166.465 86.4277C166.114 86.8672 165.689 87.1865 165.191 87.3857C164.699 87.5791 164.142 87.6758 163.521 87.6758C163.029 87.6758 162.575 87.6143 162.159 87.4912C161.742 87.3682 161.367 87.1719 161.034 86.9023C160.705 86.627 160.424 86.2695 160.19 85.8301C159.955 85.3906 159.777 84.8574 159.654 84.2305C159.531 83.6035 159.469 82.8711 159.469 82.0332V80.082C159.469 79.0332 159.563 78.1543 159.75 77.4453C159.944 76.7363 160.216 76.168 160.568 75.7402C160.919 75.3066 161.341 74.9961 161.833 74.8086C162.331 74.6211 162.888 74.5273 163.503 74.5273C164.001 74.5273 164.458 74.5889 164.874 74.7119C165.296 74.8291 165.671 75.0195 165.999 75.2832C166.327 75.541 166.606 75.8867 166.834 76.3203C167.069 76.748 167.247 77.2725 167.37 77.8936C167.493 78.5146 167.555 79.2441 167.555 80.082ZM165.92 82.2969V79.8096C165.92 79.2354 165.885 78.7314 165.815 78.2979C165.75 77.8584 165.654 77.4834 165.525 77.1729C165.396 76.8623 165.232 76.6104 165.033 76.417C164.839 76.2236 164.614 76.083 164.356 75.9951C164.104 75.9014 163.82 75.8545 163.503 75.8545C163.117 75.8545 162.774 75.9277 162.475 76.0742C162.176 76.2148 161.924 76.4404 161.719 76.751C161.52 77.0615 161.367 77.4688 161.262 77.9727C161.157 78.4766 161.104 79.0889 161.104 79.8096V82.2969C161.104 82.8711 161.136 83.3779 161.201 83.8174C161.271 84.2568 161.373 84.6377 161.508 84.96C161.643 85.2764 161.807 85.5371 162 85.7422C162.194 85.9473 162.416 86.0996 162.668 86.1992C162.926 86.293 163.21 86.3398 163.521 86.3398C163.919 86.3398 164.268 86.2637 164.567 86.1113C164.866 85.959 165.115 85.7217 165.314 85.3994C165.519 85.0713 165.671 84.6523 165.771 84.1426C165.87 83.627 165.92 83.0117 165.92 82.2969ZM178.04 80.6357V82.165H169.269V80.6357H178.04ZM174.472 76.9004V86.2168H172.846V76.9004H174.472ZM192.472 83.4307H194.159C194.072 84.2393 193.84 84.9629 193.465 85.6016C193.09 86.2402 192.56 86.7471 191.874 87.1221C191.189 87.4912 190.333 87.6758 189.308 87.6758C188.558 87.6758 187.875 87.5352 187.26 87.2539C186.651 86.9727 186.126 86.5742 185.687 86.0586C185.247 85.5371 184.908 84.9131 184.667 84.1865C184.433 83.4541 184.316 82.6396 184.316 81.7432V80.4688C184.316 79.5723 184.433 78.7607 184.667 78.0342C184.908 77.3018 185.25 76.6748 185.696 76.1533C186.147 75.6318 186.689 75.2305 187.322 74.9492C187.954 74.668 188.666 74.5273 189.457 74.5273C190.424 74.5273 191.242 74.709 191.909 75.0723C192.577 75.4355 193.096 75.9395 193.465 76.584C193.84 77.2227 194.072 77.9639 194.159 78.8076H192.472C192.39 78.21 192.238 77.6973 192.015 77.2695C191.792 76.8359 191.476 76.502 191.066 76.2676C190.656 76.0332 190.119 75.916 189.457 75.916C188.889 75.916 188.388 76.0244 187.954 76.2412C187.527 76.458 187.166 76.7656 186.873 77.1641C186.586 77.5625 186.369 78.04 186.223 78.5967C186.076 79.1533 186.003 79.7715 186.003 80.4512V81.7432C186.003 82.3701 186.068 82.959 186.197 83.5098C186.331 84.0605 186.534 84.5439 186.803 84.96C187.073 85.376 187.415 85.7041 187.831 85.9443C188.247 86.1787 188.74 86.2959 189.308 86.2959C190.029 86.2959 190.603 86.1816 191.031 85.9531C191.458 85.7246 191.781 85.3965 191.997 84.9688C192.22 84.541 192.378 84.0283 192.472 83.4307ZM195.794 82.8506V82.6484C195.794 81.9629 195.894 81.3271 196.093 80.7412C196.292 80.1494 196.579 79.6367 196.954 79.2031C197.329 78.7637 197.784 78.4238 198.317 78.1836C198.85 77.9375 199.448 77.8145 200.11 77.8145C200.778 77.8145 201.378 77.9375 201.911 78.1836C202.451 78.4238 202.908 78.7637 203.283 79.2031C203.663 79.6367 203.953 80.1494 204.153 80.7412C204.352 81.3271 204.451 81.9629 204.451 82.6484V82.8506C204.451 83.5361 204.352 84.1719 204.153 84.7578C203.953 85.3438 203.663 85.8564 203.283 86.2959C202.908 86.7295 202.453 87.0693 201.92 87.3154C201.393 87.5557 200.795 87.6758 200.127 87.6758C199.459 87.6758 198.859 87.5557 198.326 87.3154C197.792 87.0693 197.335 86.7295 196.954 86.2959C196.579 85.8564 196.292 85.3438 196.093 84.7578C195.894 84.1719 195.794 83.5361 195.794 82.8506ZM197.42 82.6484V82.8506C197.42 83.3252 197.476 83.7734 197.587 84.1953C197.699 84.6113 197.866 84.9805 198.088 85.3027C198.317 85.625 198.601 85.8799 198.941 86.0674C199.281 86.249 199.676 86.3398 200.127 86.3398C200.573 86.3398 200.962 86.249 201.296 86.0674C201.636 85.8799 201.917 85.625 202.14 85.3027C202.363 84.9805 202.53 84.6113 202.641 84.1953C202.758 83.7734 202.817 83.3252 202.817 82.8506V82.6484C202.817 82.1797 202.758 81.7373 202.641 81.3213C202.53 80.8994 202.36 80.5273 202.131 80.2051C201.909 79.877 201.627 79.6191 201.287 79.4316C200.953 79.2441 200.561 79.1504 200.11 79.1504C199.664 79.1504 199.272 79.2441 198.932 79.4316C198.598 79.6191 198.317 79.877 198.088 80.2051C197.866 80.5273 197.699 80.8994 197.587 81.3213C197.476 81.7373 197.42 82.1797 197.42 82.6484ZM212.309 85.3027V77.9902H213.944V87.5H212.388L212.309 85.3027ZM212.617 83.2988L213.293 83.2812C213.293 83.9141 213.226 84.5 213.091 85.0391C212.962 85.5723 212.751 86.0352 212.458 86.4277C212.165 86.8203 211.782 87.1279 211.307 87.3506C210.832 87.5674 210.255 87.6758 209.576 87.6758C209.113 87.6758 208.688 87.6084 208.301 87.4736C207.92 87.3389 207.592 87.1309 207.317 86.8496C207.041 86.5684 206.827 86.2021 206.675 85.751C206.529 85.2998 206.455 84.7578 206.455 84.125V77.9902H208.081V84.1426C208.081 84.5703 208.128 84.9248 208.222 85.2061C208.322 85.4814 208.453 85.7012 208.617 85.8652C208.787 86.0234 208.975 86.1348 209.18 86.1992C209.391 86.2637 209.608 86.2959 209.83 86.2959C210.522 86.2959 211.07 86.1641 211.474 85.9004C211.878 85.6309 212.168 85.2705 212.344 84.8193C212.526 84.3623 212.617 83.8555 212.617 83.2988ZM218.048 79.4844V87.5H216.422V77.9902H218.004L218.048 79.4844ZM221.019 77.9375L221.01 79.4492C220.875 79.4199 220.746 79.4023 220.623 79.3965C220.506 79.3848 220.371 79.3789 220.219 79.3789C219.844 79.3789 219.513 79.4375 219.226 79.5547C218.939 79.6719 218.696 79.8359 218.496 80.0469C218.297 80.2578 218.139 80.5098 218.022 80.8027C217.91 81.0898 217.837 81.4062 217.802 81.752L217.345 82.0156C217.345 81.4414 217.401 80.9023 217.512 80.3984C217.629 79.8945 217.808 79.4492 218.048 79.0625C218.288 78.6699 218.593 78.3652 218.962 78.1484C219.337 77.9258 219.783 77.8145 220.298 77.8145C220.415 77.8145 220.55 77.8291 220.702 77.8584C220.855 77.8818 220.96 77.9082 221.019 77.9375ZM228.059 84.9775C228.059 84.7432 228.006 84.5264 227.901 84.3271C227.801 84.1221 227.593 83.9375 227.277 83.7734C226.966 83.6035 226.497 83.457 225.87 83.334C225.343 83.2227 224.866 83.0908 224.438 82.9385C224.016 82.7861 223.656 82.6016 223.357 82.3848C223.064 82.168 222.838 81.9131 222.68 81.6201C222.522 81.3271 222.443 80.9844 222.443 80.5918C222.443 80.2168 222.525 79.8623 222.689 79.5283C222.859 79.1943 223.096 78.8984 223.401 78.6406C223.711 78.3828 224.083 78.1807 224.517 78.0342C224.951 77.8877 225.434 77.8145 225.967 77.8145C226.729 77.8145 227.379 77.9492 227.918 78.2188C228.457 78.4883 228.87 78.8486 229.158 79.2998C229.445 79.7451 229.588 80.2402 229.588 80.7852H227.962C227.962 80.5215 227.883 80.2666 227.725 80.0205C227.573 79.7686 227.347 79.5605 227.048 79.3965C226.755 79.2324 226.395 79.1504 225.967 79.1504C225.516 79.1504 225.15 79.2207 224.868 79.3613C224.593 79.4961 224.391 79.6689 224.262 79.8799C224.139 80.0908 224.077 80.3135 224.077 80.5479C224.077 80.7236 224.107 80.8818 224.165 81.0225C224.23 81.1572 224.341 81.2832 224.499 81.4004C224.658 81.5117 224.88 81.6172 225.167 81.7168C225.454 81.8164 225.821 81.916 226.266 82.0156C227.045 82.1914 227.687 82.4023 228.191 82.6484C228.695 82.8945 229.07 83.1963 229.316 83.5537C229.562 83.9111 229.685 84.3447 229.685 84.8545C229.685 85.2705 229.597 85.6514 229.421 85.9971C229.251 86.3428 229.002 86.6416 228.674 86.8936C228.352 87.1396 227.965 87.333 227.514 87.4736C227.069 87.6084 226.568 87.6758 226.011 87.6758C225.173 87.6758 224.464 87.5264 223.884 87.2275C223.304 86.9287 222.865 86.542 222.566 86.0674C222.267 85.5928 222.117 85.0918 222.117 84.5645H223.752C223.776 85.0098 223.905 85.3643 224.139 85.6279C224.373 85.8857 224.66 86.0703 225 86.1816C225.34 86.2871 225.677 86.3398 226.011 86.3398C226.456 86.3398 226.828 86.2812 227.127 86.1641C227.432 86.0469 227.663 85.8857 227.822 85.6807C227.98 85.4756 228.059 85.2412 228.059 84.9775ZM235.767 87.6758C235.105 87.6758 234.504 87.5645 233.965 87.3418C233.432 87.1133 232.972 86.7939 232.585 86.3838C232.204 85.9736 231.911 85.4873 231.706 84.9248C231.501 84.3623 231.399 83.7471 231.399 83.0791V82.71C231.399 81.9365 231.513 81.248 231.742 80.6445C231.97 80.0352 232.281 79.5195 232.673 79.0977C233.066 78.6758 233.511 78.3564 234.009 78.1396C234.507 77.9229 235.023 77.8145 235.556 77.8145C236.236 77.8145 236.822 77.9316 237.314 78.166C237.812 78.4004 238.219 78.7285 238.535 79.1504C238.852 79.5664 239.086 80.0586 239.239 80.627C239.391 81.1895 239.467 81.8047 239.467 82.4727V83.2021H232.366V81.875H237.841V81.752C237.818 81.3301 237.73 80.9199 237.577 80.5215C237.431 80.123 237.197 79.7949 236.874 79.5371C236.552 79.2793 236.113 79.1504 235.556 79.1504C235.187 79.1504 234.847 79.2295 234.536 79.3877C234.226 79.54 233.959 79.7686 233.737 80.0732C233.514 80.3779 233.341 80.75 233.218 81.1895C233.095 81.6289 233.034 82.1357 233.034 82.71V83.0791C233.034 83.5303 233.095 83.9551 233.218 84.3535C233.347 84.7461 233.532 85.0918 233.772 85.3906C234.018 85.6895 234.314 85.9238 234.659 86.0938C235.011 86.2637 235.409 86.3486 235.855 86.3486C236.429 86.3486 236.915 86.2314 237.314 85.9971C237.712 85.7627 238.061 85.4492 238.36 85.0566L239.344 85.8389C239.139 86.1494 238.878 86.4453 238.562 86.7266C238.245 87.0078 237.856 87.2363 237.393 87.4121C236.936 87.5879 236.394 87.6758 235.767 87.6758ZM246.903 84.9775C246.903 84.7432 246.85 84.5264 246.744 84.3271C246.645 84.1221 246.437 83.9375 246.12 83.7734C245.81 83.6035 245.341 83.457 244.714 83.334C244.187 83.2227 243.709 83.0908 243.282 82.9385C242.86 82.7861 242.499 82.6016 242.201 82.3848C241.908 82.168 241.682 81.9131 241.524 81.6201C241.366 81.3271 241.286 80.9844 241.286 80.5918C241.286 80.2168 241.368 79.8623 241.533 79.5283C241.702 79.1943 241.94 78.8984 242.244 78.6406C242.555 78.3828 242.927 78.1807 243.361 78.0342C243.794 77.8877 244.278 77.8145 244.811 77.8145C245.573 77.8145 246.223 77.9492 246.762 78.2188C247.301 78.4883 247.714 78.8486 248.001 79.2998C248.288 79.7451 248.432 80.2402 248.432 80.7852H246.806C246.806 80.5215 246.727 80.2666 246.569 80.0205C246.416 79.7686 246.191 79.5605 245.892 79.3965C245.599 79.2324 245.239 79.1504 244.811 79.1504C244.36 79.1504 243.993 79.2207 243.712 79.3613C243.437 79.4961 243.235 79.6689 243.106 79.8799C242.983 80.0908 242.921 80.3135 242.921 80.5479C242.921 80.7236 242.951 80.8818 243.009 81.0225C243.074 81.1572 243.185 81.2832 243.343 81.4004C243.501 81.5117 243.724 81.6172 244.011 81.7168C244.298 81.8164 244.664 81.916 245.11 82.0156C245.889 82.1914 246.531 82.4023 247.034 82.6484C247.538 82.8945 247.913 83.1963 248.159 83.5537C248.406 83.9111 248.529 84.3447 248.529 84.8545C248.529 85.2705 248.441 85.6514 248.265 85.9971C248.095 86.3428 247.846 86.6416 247.518 86.8936C247.196 87.1396 246.809 87.333 246.358 87.4736C245.912 87.6084 245.411 87.6758 244.855 87.6758C244.017 87.6758 243.308 87.5264 242.728 87.2275C242.148 86.9287 241.708 86.542 241.409 86.0674C241.111 85.5928 240.961 85.0918 240.961 84.5645H242.596C242.619 85.0098 242.748 85.3643 242.983 85.6279C243.217 85.8857 243.504 86.0703 243.844 86.1816C244.184 86.2871 244.521 86.3398 244.855 86.3398C245.3 86.3398 245.672 86.2812 245.971 86.1641C246.276 86.0469 246.507 85.8857 246.665 85.6807C246.824 85.4756 246.903 85.2412 246.903 84.9775ZM260.113 75.8369L255.876 87.5H254.145L259.023 74.7031H260.139L260.113 75.8369ZM263.663 87.5L259.418 75.8369L259.392 74.7031H260.508L265.404 87.5H263.663ZM263.444 82.7627V84.1514H256.254V82.7627H263.444ZM269.324 86.0322L271.925 77.9902H273.586L270.167 87.5H269.077L269.324 86.0322ZM267.153 77.9902L269.833 86.0762L270.018 87.5H268.928L265.483 77.9902H267.153ZM280.617 85.874V80.9785C280.617 80.6035 280.541 80.2783 280.389 80.0029C280.242 79.7217 280.02 79.5049 279.721 79.3525C279.422 79.2002 279.053 79.124 278.614 79.124C278.203 79.124 277.843 79.1943 277.533 79.335C277.228 79.4756 276.988 79.6602 276.812 79.8887C276.642 80.1172 276.557 80.3633 276.557 80.627H274.931C274.931 80.2871 275.019 79.9502 275.195 79.6162C275.37 79.2822 275.622 78.9805 275.951 78.7109C276.284 78.4355 276.683 78.2188 277.146 78.0605C277.615 77.8965 278.136 77.8145 278.71 77.8145C279.402 77.8145 280.011 77.9316 280.538 78.166C281.072 78.4004 281.488 78.7549 281.786 79.2295C282.091 79.6982 282.243 80.2871 282.243 80.9961V85.4258C282.243 85.7422 282.27 86.0791 282.323 86.4365C282.381 86.7939 282.466 87.1016 282.577 87.3594V87.5H280.881C280.799 87.3125 280.735 87.0635 280.688 86.7529C280.641 86.4365 280.617 86.1436 280.617 85.874ZM280.899 81.7344L280.916 82.877H279.273C278.81 82.877 278.397 82.915 278.034 82.9912C277.67 83.0615 277.366 83.1699 277.119 83.3164C276.873 83.4629 276.686 83.6475 276.557 83.8701C276.428 84.0869 276.364 84.3418 276.364 84.6348C276.364 84.9336 276.431 85.2061 276.566 85.4521C276.701 85.6982 276.903 85.8945 277.172 86.041C277.448 86.1816 277.784 86.252 278.183 86.252C278.681 86.252 279.12 86.1465 279.501 85.9355C279.882 85.7246 280.184 85.4668 280.407 85.1621C280.635 84.8574 280.758 84.5615 280.776 84.2744L281.47 85.0566C281.429 85.3027 281.318 85.5752 281.136 85.874C280.954 86.1729 280.711 86.46 280.407 86.7354C280.108 87.0049 279.75 87.2305 279.334 87.4121C278.924 87.5879 278.461 87.6758 277.946 87.6758C277.301 87.6758 276.736 87.5498 276.249 87.2979C275.769 87.0459 275.394 86.709 275.124 86.2871C274.861 85.8594 274.729 85.3818 274.729 84.8545C274.729 84.3447 274.828 83.8965 275.028 83.5098C275.227 83.1172 275.514 82.792 275.889 82.5342C276.264 82.2705 276.715 82.0713 277.242 81.9365C277.77 81.8018 278.359 81.7344 279.009 81.7344H280.899ZM286.568 77.9902V87.5H284.933V77.9902H286.568ZM284.81 75.4678C284.81 75.2041 284.889 74.9814 285.047 74.7998C285.211 74.6182 285.451 74.5273 285.768 74.5273C286.078 74.5273 286.316 74.6182 286.48 74.7998C286.65 74.9814 286.735 75.2041 286.735 75.4678C286.735 75.7197 286.65 75.9365 286.48 76.1182C286.316 76.2939 286.078 76.3818 285.768 76.3818C285.451 76.3818 285.211 76.2939 285.047 76.1182C284.889 75.9365 284.81 75.7197 284.81 75.4678ZM290.945 74V87.5H289.31V74H290.945ZM299.162 85.874V80.9785C299.162 80.6035 299.086 80.2783 298.934 80.0029C298.787 79.7217 298.565 79.5049 298.266 79.3525C297.967 79.2002 297.598 79.124 297.159 79.124C296.748 79.124 296.388 79.1943 296.077 79.335C295.773 79.4756 295.533 79.6602 295.357 79.8887C295.187 80.1172 295.102 80.3633 295.102 80.627H293.476C293.476 80.2871 293.564 79.9502 293.74 79.6162C293.915 79.2822 294.167 78.9805 294.495 78.7109C294.829 78.4355 295.228 78.2188 295.691 78.0605C296.159 77.8965 296.681 77.8145 297.255 77.8145C297.947 77.8145 298.556 77.9316 299.083 78.166C299.617 78.4004 300.033 78.7549 300.331 79.2295C300.636 79.6982 300.788 80.2871 300.788 80.9961V85.4258C300.788 85.7422 300.815 86.0791 300.867 86.4365C300.926 86.7939 301.011 87.1016 301.122 87.3594V87.5H299.426C299.344 87.3125 299.28 87.0635 299.233 86.7529C299.186 86.4365 299.162 86.1436 299.162 85.874ZM299.444 81.7344L299.461 82.877H297.818C297.355 82.877 296.942 82.915 296.578 82.9912C296.215 83.0615 295.91 83.1699 295.664 83.3164C295.418 83.4629 295.231 83.6475 295.102 83.8701C294.973 84.0869 294.909 84.3418 294.909 84.6348C294.909 84.9336 294.976 85.2061 295.111 85.4521C295.245 85.6982 295.448 85.8945 295.717 86.041C295.992 86.1816 296.329 86.252 296.728 86.252C297.226 86.252 297.665 86.1465 298.046 85.9355C298.427 85.7246 298.729 85.4668 298.951 85.1621C299.18 84.8574 299.303 84.5615 299.321 84.2744L300.015 85.0566C299.974 85.3027 299.863 85.5752 299.681 85.874C299.499 86.1729 299.256 86.46 298.951 86.7354C298.653 87.0049 298.295 87.2305 297.879 87.4121C297.469 87.5879 297.006 87.6758 296.491 87.6758C295.846 87.6758 295.281 87.5498 294.794 87.2979C294.314 87.0459 293.939 86.709 293.669 86.2871C293.406 85.8594 293.274 85.3818 293.274 84.8545C293.274 84.3447 293.373 83.8965 293.573 83.5098C293.772 83.1172 294.059 82.792 294.434 82.5342C294.809 82.2705 295.26 82.0713 295.787 81.9365C296.315 81.8018 296.904 81.7344 297.554 81.7344H299.444ZM303.337 74H304.972V85.6543L304.831 87.5H303.337V74ZM311.397 82.666V82.8506C311.397 83.542 311.315 84.1836 311.151 84.7754C310.987 85.3613 310.746 85.8711 310.43 86.3047C310.114 86.7383 309.727 87.0752 309.27 87.3154C308.813 87.5557 308.288 87.6758 307.697 87.6758C307.093 87.6758 306.563 87.5732 306.106 87.3682C305.655 87.1572 305.274 86.8555 304.963 86.4629C304.653 86.0703 304.404 85.5957 304.216 85.0391C304.034 84.4824 303.909 83.8555 303.838 83.1582V82.3496C303.909 81.6465 304.034 81.0166 304.216 80.46C304.404 79.9033 304.653 79.4287 304.963 79.0361C305.274 78.6377 305.655 78.3359 306.106 78.1309C306.557 77.9199 307.081 77.8145 307.679 77.8145C308.277 77.8145 308.807 77.9316 309.27 78.166C309.733 78.3945 310.119 78.7227 310.43 79.1504C310.746 79.5781 310.987 80.0908 311.151 80.6885C311.315 81.2803 311.397 81.9395 311.397 82.666ZM309.762 82.8506V82.666C309.762 82.1914 309.718 81.7461 309.63 81.3301C309.542 80.9082 309.402 80.5391 309.208 80.2227C309.015 79.9004 308.76 79.6484 308.444 79.4668C308.127 79.2793 307.738 79.1855 307.275 79.1855C306.865 79.1855 306.507 79.2559 306.202 79.3965C305.904 79.5371 305.649 79.7275 305.438 79.9678C305.227 80.2021 305.054 80.4717 304.919 80.7764C304.79 81.0752 304.694 81.3857 304.629 81.708V83.8262C304.723 84.2363 304.875 84.6318 305.086 85.0127C305.303 85.3877 305.59 85.6953 305.948 85.9355C306.311 86.1758 306.759 86.2959 307.292 86.2959C307.732 86.2959 308.107 86.208 308.417 86.0322C308.734 85.8506 308.989 85.6016 309.182 85.2852C309.381 84.9688 309.528 84.6025 309.621 84.1865C309.715 83.7705 309.762 83.3252 309.762 82.8506ZM315.22 74V87.5H313.585V74H315.22ZM321.777 87.6758C321.115 87.6758 320.514 87.5645 319.975 87.3418C319.442 87.1133 318.982 86.7939 318.595 86.3838C318.214 85.9736 317.921 85.4873 317.716 84.9248C317.511 84.3623 317.409 83.7471 317.409 83.0791V82.71C317.409 81.9365 317.523 81.248 317.751 80.6445C317.98 80.0352 318.29 79.5195 318.683 79.0977C319.076 78.6758 319.521 78.3564 320.019 78.1396C320.517 77.9229 321.033 77.8145 321.566 77.8145C322.245 77.8145 322.831 77.9316 323.324 78.166C323.822 78.4004 324.229 78.7285 324.545 79.1504C324.862 79.5664 325.096 80.0586 325.248 80.627C325.401 81.1895 325.477 81.8047 325.477 82.4727V83.2021H318.375V81.875H323.851V81.752C323.827 81.3301 323.74 80.9199 323.587 80.5215C323.441 80.123 323.206 79.7949 322.884 79.5371C322.562 79.2793 322.122 79.1504 321.566 79.1504C321.197 79.1504 320.857 79.2295 320.546 79.3877C320.236 79.54 319.969 79.7686 319.746 80.0732C319.524 80.3779 319.351 80.75 319.228 81.1895C319.105 81.6289 319.043 82.1357 319.043 82.71V83.0791C319.043 83.5303 319.105 83.9551 319.228 84.3535C319.357 84.7461 319.541 85.0918 319.782 85.3906C320.028 85.6895 320.324 85.9238 320.669 86.0938C321.021 86.2637 321.419 86.3486 321.865 86.3486C322.439 86.3486 322.925 86.2314 323.324 85.9971C323.722 85.7627 324.071 85.4492 324.369 85.0566L325.354 85.8389C325.149 86.1494 324.888 86.4453 324.572 86.7266C324.255 87.0078 323.866 87.2363 323.403 87.4121C322.946 87.5879 322.404 87.6758 321.777 87.6758Z" fill="black"/>
</svg>
