<svg width="411" height="132" viewBox="0 0 411 132" fill="none" xmlns="http://www.w3.org/2000/svg">
<rect width="410.667" height="132" rx="5" fill="#F7F7F7"/>
<rect x="16" y="16" width="100" height="100" rx="5" fill="white"/>
<path d="M66 75.3334C70.4133 75.3334 74 71.7467 74 67.3334V60.6667C74 56.2534 70.4133 52.6667 66 52.6667C61.5867 52.6667 58 56.2534 58 60.6667V67.3334C58 71.7467 61.5867 75.3334 66 75.3334Z" stroke="#292D32" stroke-width="1.5" stroke-linecap="round" stroke-linejoin="round"/>
<path d="M54 64.6667V67.3334C54 73.9601 59.3733 79.3334 66 79.3334C72.6267 79.3334 78 73.9601 78 67.3334V64.6667" stroke="#292D32" stroke-width="1.5" stroke-linecap="round" stroke-linejoin="round"/>
<path d="M62.1467 59.9732C64.52 59.1066 67.1067 59.1066 69.48 59.9732" stroke="#292D32" stroke-width="1.5" stroke-linecap="round" stroke-linejoin="round"/>
<path d="M63.3734 63.9733C64.9734 63.5333 66.6667 63.5333 68.2667 63.9733" stroke="#292D32" stroke-width="1.5" stroke-linecap="round" stroke-linejoin="round"/>
<path d="M157.678 54.8223H160.363C160.292 55.7728 160.028 56.6159 159.572 57.3516C159.117 58.0807 158.482 58.6536 157.668 59.0703C156.854 59.487 155.868 59.6953 154.709 59.6953C153.817 59.6953 153.013 59.5391 152.297 59.2266C151.587 58.9076 150.979 58.4551 150.471 57.8691C149.969 57.2767 149.585 56.5671 149.318 55.7402C149.051 54.9069 148.918 53.9727 148.918 52.9375V51.8535C148.918 50.8184 149.055 49.8841 149.328 49.0508C149.602 48.2174 149.992 47.5078 150.5 46.9219C151.014 46.3294 151.63 45.8737 152.346 45.5547C153.068 45.2357 153.876 45.0762 154.768 45.0762C155.926 45.0762 156.906 45.291 157.707 45.7207C158.508 46.1439 159.13 46.7266 159.572 47.4688C160.015 48.2109 160.282 49.0638 160.373 50.0273H157.688C157.635 49.4284 157.505 48.9206 157.297 48.5039C157.095 48.0872 156.789 47.7715 156.379 47.5566C155.975 47.3353 155.438 47.2246 154.768 47.2246C154.247 47.2246 153.788 47.3223 153.391 47.5176C153 47.7129 152.674 48.0059 152.414 48.3965C152.154 48.7806 151.958 49.2624 151.828 49.8418C151.698 50.4147 151.633 51.0788 151.633 51.834V52.9375C151.633 53.6602 151.691 54.3079 151.809 54.8809C151.926 55.4538 152.108 55.9388 152.355 56.3359C152.603 56.7331 152.922 57.0358 153.312 57.2441C153.703 57.4525 154.169 57.5566 154.709 57.5566C155.367 57.5566 155.9 57.4525 156.311 57.2441C156.727 57.0358 157.043 56.7298 157.258 56.3262C157.479 55.9225 157.619 55.4212 157.678 54.8223ZM161.789 54.3242V54.1191C161.789 53.3444 161.9 52.6315 162.121 51.9805C162.342 51.3229 162.665 50.7533 163.088 50.2715C163.511 49.7897 164.029 49.4154 164.641 49.1484C165.253 48.875 165.949 48.7383 166.73 48.7383C167.525 48.7383 168.228 48.875 168.84 49.1484C169.458 49.4154 169.979 49.7897 170.402 50.2715C170.826 50.7533 171.148 51.3229 171.369 51.9805C171.59 52.6315 171.701 53.3444 171.701 54.1191V54.3242C171.701 55.0924 171.59 55.8053 171.369 56.4629C171.148 57.1139 170.826 57.6836 170.402 58.1719C169.979 58.6536 169.462 59.028 168.85 59.2949C168.238 59.5618 167.538 59.6953 166.75 59.6953C165.969 59.6953 165.269 59.5618 164.65 59.2949C164.032 59.028 163.511 58.6536 163.088 58.1719C162.665 57.6836 162.342 57.1139 162.121 56.4629C161.9 55.8053 161.789 55.0924 161.789 54.3242ZM164.367 54.1191V54.3242C164.367 54.7865 164.413 55.2194 164.504 55.623C164.595 56.0267 164.735 56.3815 164.924 56.6875C165.113 56.9935 165.357 57.2344 165.656 57.4102C165.962 57.5794 166.327 57.6641 166.75 57.6641C167.167 57.6641 167.525 57.5794 167.824 57.4102C168.124 57.2344 168.368 56.9935 168.557 56.6875C168.752 56.3815 168.895 56.0267 168.986 55.623C169.077 55.2194 169.123 54.7865 169.123 54.3242V54.1191C169.123 53.6634 169.077 53.237 168.986 52.8398C168.895 52.4362 168.752 52.0814 168.557 51.7754C168.368 51.4629 168.12 51.2188 167.814 51.043C167.515 50.8607 167.154 50.7695 166.73 50.7695C166.314 50.7695 165.956 50.8607 165.656 51.043C165.357 51.2188 165.113 51.4629 164.924 51.7754C164.735 52.0814 164.595 52.4362 164.504 52.8398C164.413 53.237 164.367 53.6634 164.367 54.1191ZM176.145 51.1016V59.5H173.566V48.9336H175.998L176.145 51.1016ZM175.764 53.8359H174.973C174.973 53.1003 175.061 52.4232 175.236 51.8047C175.419 51.1862 175.686 50.6491 176.037 50.1934C176.389 49.7311 176.822 49.373 177.336 49.1191C177.857 48.8652 178.459 48.7383 179.143 48.7383C179.618 48.7383 180.054 48.8099 180.451 48.9531C180.848 49.0898 181.19 49.3079 181.477 49.6074C181.77 49.9004 181.994 50.2845 182.15 50.7598C182.307 51.2285 182.385 51.7917 182.385 52.4492V59.5H179.807V52.7129C179.807 52.2181 179.735 51.8307 179.592 51.5508C179.455 51.2708 179.257 51.0755 178.996 50.9648C178.736 50.8477 178.423 50.7891 178.059 50.7891C177.655 50.7891 177.307 50.8704 177.014 51.0332C176.727 51.1895 176.49 51.4076 176.301 51.6875C176.118 51.9674 175.982 52.2897 175.891 52.6543C175.806 53.0189 175.764 53.4128 175.764 53.8359ZM182.189 53.3574L181.125 53.5527C181.132 52.8887 181.223 52.2669 181.398 51.6875C181.574 51.1016 181.831 50.5905 182.17 50.1543C182.515 49.7116 182.941 49.3665 183.449 49.1191C183.964 48.8652 184.556 48.7383 185.227 48.7383C185.747 48.7383 186.216 48.8132 186.633 48.9629C187.056 49.1061 187.417 49.3372 187.717 49.6562C188.016 49.9688 188.244 50.3757 188.4 50.877C188.563 51.3783 188.645 51.9902 188.645 52.7129V59.5H186.047V52.7031C186.047 52.1888 185.975 51.7949 185.832 51.5215C185.695 51.248 185.497 51.0592 185.236 50.9551C184.976 50.8444 184.67 50.7891 184.318 50.7891C183.96 50.7891 183.648 50.8574 183.381 50.9941C183.12 51.1243 182.899 51.3066 182.717 51.541C182.541 51.7754 182.408 52.0488 182.316 52.3613C182.232 52.6673 182.189 52.9993 182.189 53.3574ZM193.527 51.1016V59.5H190.949V48.9336H193.381L193.527 51.1016ZM193.146 53.8359H192.355C192.355 53.1003 192.443 52.4232 192.619 51.8047C192.801 51.1862 193.068 50.6491 193.42 50.1934C193.771 49.7311 194.204 49.373 194.719 49.1191C195.24 48.8652 195.842 48.7383 196.525 48.7383C197.001 48.7383 197.437 48.8099 197.834 48.9531C198.231 49.0898 198.573 49.3079 198.859 49.6074C199.152 49.9004 199.377 50.2845 199.533 50.7598C199.689 51.2285 199.768 51.7917 199.768 52.4492V59.5H197.189V52.7129C197.189 52.2181 197.118 51.8307 196.975 51.5508C196.838 51.2708 196.639 51.0755 196.379 50.9648C196.118 50.8477 195.806 50.7891 195.441 50.7891C195.038 50.7891 194.689 50.8704 194.396 51.0332C194.11 51.1895 193.872 51.4076 193.684 51.6875C193.501 51.9674 193.365 52.2897 193.273 52.6543C193.189 53.0189 193.146 53.4128 193.146 53.8359ZM199.572 53.3574L198.508 53.5527C198.514 52.8887 198.605 52.2669 198.781 51.6875C198.957 51.1016 199.214 50.5905 199.553 50.1543C199.898 49.7116 200.324 49.3665 200.832 49.1191C201.346 48.8652 201.939 48.7383 202.609 48.7383C203.13 48.7383 203.599 48.8132 204.016 48.9629C204.439 49.1061 204.8 49.3372 205.1 49.6562C205.399 49.9688 205.627 50.3757 205.783 50.877C205.946 51.3783 206.027 51.9902 206.027 52.7129V59.5H203.43V52.7031C203.43 52.1888 203.358 51.7949 203.215 51.5215C203.078 51.248 202.88 51.0592 202.619 50.9551C202.359 50.8444 202.053 50.7891 201.701 50.7891C201.343 50.7891 201.031 50.8574 200.764 50.9941C200.503 51.1243 200.282 51.3066 200.1 51.541C199.924 51.7754 199.79 52.0488 199.699 52.3613C199.615 52.6673 199.572 52.9993 199.572 53.3574ZM214.631 56.9902V48.9336H217.229V59.5H214.787L214.631 56.9902ZM214.963 54.8027L215.764 54.7832C215.764 55.4928 215.686 56.1471 215.529 56.7461C215.373 57.3451 215.129 57.8659 214.797 58.3086C214.471 58.7448 214.058 59.0866 213.557 59.334C213.055 59.5749 212.463 59.6953 211.779 59.6953C211.258 59.6953 210.783 59.6237 210.354 59.4805C209.924 59.3307 209.553 59.0996 209.24 58.7871C208.934 58.4681 208.697 58.0612 208.527 57.5664C208.358 57.0651 208.273 56.4629 208.273 55.7598V48.9336H210.852V55.7793C210.852 56.1309 210.891 56.4238 210.969 56.6582C211.053 56.8926 211.167 57.0846 211.311 57.2344C211.46 57.3776 211.633 57.4818 211.828 57.5469C212.03 57.6055 212.245 57.6348 212.473 57.6348C213.098 57.6348 213.589 57.5111 213.947 57.2637C214.312 57.0098 214.572 56.6712 214.729 56.248C214.885 55.8184 214.963 55.3366 214.963 54.8027ZM222.043 51.1895V59.5H219.465V48.9336H221.887L222.043 51.1895ZM221.633 53.8359H220.871C220.878 53.0677 220.982 52.3711 221.184 51.7461C221.385 51.1211 221.669 50.584 222.033 50.1348C222.404 49.6855 222.844 49.3405 223.352 49.0996C223.859 48.8587 224.426 48.7383 225.051 48.7383C225.559 48.7383 226.018 48.8099 226.428 48.9531C226.838 49.0964 227.189 49.3242 227.482 49.6367C227.782 49.9492 228.01 50.3594 228.166 50.8672C228.329 51.3685 228.41 51.987 228.41 52.7227V59.5H225.812V52.7031C225.812 52.2214 225.741 51.8405 225.598 51.5605C225.461 51.2806 225.259 51.082 224.992 50.9648C224.732 50.8477 224.41 50.7891 224.025 50.7891C223.628 50.7891 223.28 50.8704 222.98 51.0332C222.688 51.1895 222.44 51.4076 222.238 51.6875C222.043 51.9674 221.893 52.2897 221.789 52.6543C221.685 53.0189 221.633 53.4128 221.633 53.8359ZM233.42 48.9336V59.5H230.832V48.9336H233.42ZM230.656 46.1699C230.656 45.7858 230.786 45.4668 231.047 45.2129C231.314 44.959 231.672 44.832 232.121 44.832C232.57 44.832 232.925 44.959 233.186 45.2129C233.452 45.4668 233.586 45.7858 233.586 46.1699C233.586 46.5475 233.452 46.8633 233.186 47.1172C232.925 47.3711 232.57 47.498 232.121 47.498C231.672 47.498 231.314 47.3711 231.047 47.1172C230.786 46.8633 230.656 46.5475 230.656 46.1699ZM240.217 57.6641C240.581 57.6641 240.907 57.5924 241.193 57.4492C241.48 57.306 241.708 57.1042 241.877 56.8438C242.053 56.5833 242.147 56.2806 242.16 55.9355H244.592C244.579 56.6517 244.377 57.293 243.986 57.8594C243.596 58.4258 243.075 58.875 242.424 59.207C241.779 59.5326 241.057 59.6953 240.256 59.6953C239.442 59.6953 238.732 59.5586 238.127 59.2852C237.521 59.0117 237.017 58.6309 236.613 58.1426C236.216 57.6543 235.917 57.0879 235.715 56.4434C235.52 55.7988 235.422 55.1087 235.422 54.373V54.0605C235.422 53.3249 235.52 52.6348 235.715 51.9902C235.917 51.3457 236.216 50.7793 236.613 50.291C237.017 49.8027 237.521 49.4219 238.127 49.1484C238.732 48.875 239.439 48.7383 240.246 48.7383C241.099 48.7383 241.848 48.9043 242.492 49.2363C243.143 49.5684 243.651 50.0371 244.016 50.6426C244.387 51.248 244.579 51.9609 244.592 52.7812H242.16C242.147 52.4036 242.062 52.0651 241.906 51.7656C241.75 51.4661 241.529 51.2253 241.242 51.043C240.956 50.8607 240.607 50.7695 240.197 50.7695C239.761 50.7695 239.396 50.8607 239.104 51.043C238.817 51.2253 238.592 51.4759 238.43 51.7949C238.273 52.1074 238.163 52.459 238.098 52.8496C238.039 53.2337 238.01 53.6374 238.01 54.0605V54.373C238.01 54.8027 238.039 55.2129 238.098 55.6035C238.163 55.9941 238.273 56.3457 238.43 56.6582C238.592 56.9642 238.817 57.2083 239.104 57.3906C239.396 57.5729 239.768 57.6641 240.217 57.6641ZM252.131 57.2539V52.3809C252.131 52.0228 252.069 51.7135 251.945 51.4531C251.822 51.1927 251.633 50.9909 251.379 50.8477C251.125 50.7044 250.803 50.6328 250.412 50.6328C250.067 50.6328 249.764 50.6914 249.504 50.8086C249.25 50.9258 249.055 51.0918 248.918 51.3066C248.781 51.515 248.713 51.7559 248.713 52.0293H246.125C246.125 51.5931 246.229 51.1797 246.438 50.7891C246.646 50.3919 246.942 50.0404 247.326 49.7344C247.717 49.4219 248.182 49.1777 248.723 49.002C249.27 48.8262 249.882 48.7383 250.559 48.7383C251.359 48.7383 252.072 48.875 252.697 49.1484C253.329 49.4154 253.824 49.819 254.182 50.3594C254.546 50.8997 254.729 51.5801 254.729 52.4004V57.0098C254.729 57.5371 254.761 57.9896 254.826 58.3672C254.898 58.7383 255.002 59.0605 255.139 59.334V59.5H252.512C252.388 59.2331 252.294 58.8945 252.229 58.4844C252.163 58.0677 252.131 57.6576 252.131 57.2539ZM252.492 53.0645L252.512 54.5977H250.881C250.477 54.5977 250.122 54.64 249.816 54.7246C249.51 54.8027 249.26 54.9199 249.064 55.0762C248.869 55.2259 248.723 55.4082 248.625 55.623C248.527 55.8314 248.479 56.069 248.479 56.3359C248.479 56.5964 248.537 56.8307 248.654 57.0391C248.778 57.2474 248.954 57.4134 249.182 57.5371C249.416 57.6543 249.689 57.7129 250.002 57.7129C250.458 57.7129 250.855 57.6217 251.193 57.4395C251.532 57.2507 251.796 57.0228 251.984 56.7559C252.173 56.4889 252.274 56.235 252.287 55.9941L253.029 57.1074C252.938 57.3743 252.801 57.6576 252.619 57.957C252.437 58.2565 252.202 58.5365 251.916 58.7969C251.63 59.0573 251.285 59.2721 250.881 59.4414C250.477 59.6107 250.008 59.6953 249.475 59.6953C248.791 59.6953 248.179 59.5586 247.639 59.2852C247.098 59.0117 246.672 58.6374 246.359 58.1621C246.047 57.6868 245.891 57.1465 245.891 56.541C245.891 55.9811 245.995 55.4863 246.203 55.0566C246.411 54.627 246.721 54.2656 247.131 53.9727C247.541 53.6732 248.049 53.4486 248.654 53.2988C249.266 53.1426 249.966 53.0645 250.754 53.0645H252.492ZM262.053 48.9336V50.7891H255.998V48.9336H262.053ZM257.619 46.3359H260.207V56.4531C260.207 56.7656 260.249 57.0065 260.334 57.1758C260.419 57.3451 260.546 57.459 260.715 57.5176C260.884 57.5762 261.086 57.6055 261.32 57.6055C261.49 57.6055 261.646 57.5957 261.789 57.5762C261.932 57.5566 262.053 57.5371 262.15 57.5176L262.16 59.4512C261.945 59.5228 261.701 59.5814 261.428 59.627C261.161 59.6725 260.858 59.6953 260.52 59.6953C259.94 59.6953 259.432 59.5977 258.996 59.4023C258.56 59.2005 258.221 58.8783 257.98 58.4355C257.74 57.9863 257.619 57.3939 257.619 56.6582V46.3359ZM266.506 48.9336V59.5H263.918V48.9336H266.506ZM263.742 46.1699C263.742 45.7858 263.872 45.4668 264.133 45.2129C264.4 44.959 264.758 44.832 265.207 44.832C265.656 44.832 266.011 44.959 266.271 45.2129C266.538 45.4668 266.672 45.7858 266.672 46.1699C266.672 46.5475 266.538 46.8633 266.271 47.1172C266.011 47.3711 265.656 47.498 265.207 47.498C264.758 47.498 264.4 47.3711 264.133 47.1172C263.872 46.8633 263.742 46.5475 263.742 46.1699ZM268.508 54.3242V54.1191C268.508 53.3444 268.618 52.6315 268.84 51.9805C269.061 51.3229 269.383 50.7533 269.807 50.2715C270.23 49.7897 270.747 49.4154 271.359 49.1484C271.971 48.875 272.668 48.7383 273.449 48.7383C274.243 48.7383 274.947 48.875 275.559 49.1484C276.177 49.4154 276.698 49.7897 277.121 50.2715C277.544 50.7533 277.867 51.3229 278.088 51.9805C278.309 52.6315 278.42 53.3444 278.42 54.1191V54.3242C278.42 55.0924 278.309 55.8053 278.088 56.4629C277.867 57.1139 277.544 57.6836 277.121 58.1719C276.698 58.6536 276.18 59.028 275.568 59.2949C274.956 59.5618 274.257 59.6953 273.469 59.6953C272.688 59.6953 271.988 59.5618 271.369 59.2949C270.751 59.028 270.23 58.6536 269.807 58.1719C269.383 57.6836 269.061 57.1139 268.84 56.4629C268.618 55.8053 268.508 55.0924 268.508 54.3242ZM271.086 54.1191V54.3242C271.086 54.7865 271.132 55.2194 271.223 55.623C271.314 56.0267 271.454 56.3815 271.643 56.6875C271.831 56.9935 272.076 57.2344 272.375 57.4102C272.681 57.5794 273.046 57.6641 273.469 57.6641C273.885 57.6641 274.243 57.5794 274.543 57.4102C274.842 57.2344 275.087 56.9935 275.275 56.6875C275.471 56.3815 275.614 56.0267 275.705 55.623C275.796 55.2194 275.842 54.7865 275.842 54.3242V54.1191C275.842 53.6634 275.796 53.237 275.705 52.8398C275.614 52.4362 275.471 52.0814 275.275 51.7754C275.087 51.4629 274.839 51.2188 274.533 51.043C274.234 50.8607 273.872 50.7695 273.449 50.7695C273.033 50.7695 272.674 50.8607 272.375 51.043C272.076 51.2188 271.831 51.4629 271.643 51.7754C271.454 52.0814 271.314 52.4362 271.223 52.8398C271.132 53.237 271.086 53.6634 271.086 54.1191ZM282.824 51.1895V59.5H280.246V48.9336H282.668L282.824 51.1895ZM282.414 53.8359H281.652C281.659 53.0677 281.763 52.3711 281.965 51.7461C282.167 51.1211 282.45 50.584 282.814 50.1348C283.186 49.6855 283.625 49.3405 284.133 49.0996C284.641 48.8587 285.207 48.7383 285.832 48.7383C286.34 48.7383 286.799 48.8099 287.209 48.9531C287.619 49.0964 287.971 49.3242 288.264 49.6367C288.563 49.9492 288.791 50.3594 288.947 50.8672C289.11 51.3685 289.191 51.987 289.191 52.7227V59.5H286.594V52.7031C286.594 52.2214 286.522 51.8405 286.379 51.5605C286.242 51.2806 286.04 51.082 285.773 50.9648C285.513 50.8477 285.191 50.7891 284.807 50.7891C284.41 50.7891 284.061 50.8704 283.762 51.0332C283.469 51.1895 283.221 51.4076 283.02 51.6875C282.824 51.9674 282.674 52.2897 282.57 52.6543C282.466 53.0189 282.414 53.4128 282.414 53.8359Z" fill="black"/>
<path d="M151.12 81.4092L149.819 81.0752L150.461 74.7031H157.026V76.2061H151.841L151.454 79.6865C151.688 79.5518 151.984 79.4258 152.342 79.3086C152.705 79.1914 153.121 79.1328 153.59 79.1328C154.182 79.1328 154.712 79.2354 155.181 79.4404C155.649 79.6396 156.048 79.9268 156.376 80.3018C156.71 80.6768 156.965 81.1279 157.141 81.6553C157.316 82.1826 157.404 82.7715 157.404 83.4219C157.404 84.0371 157.319 84.6025 157.149 85.1182C156.985 85.6338 156.736 86.085 156.402 86.4717C156.068 86.8525 155.646 87.1484 155.137 87.3594C154.633 87.5703 154.038 87.6758 153.353 87.6758C152.837 87.6758 152.348 87.6055 151.885 87.4648C151.428 87.3184 151.018 87.0986 150.654 86.8057C150.297 86.5068 150.004 86.1377 149.775 85.6982C149.553 85.2529 149.412 84.7314 149.354 84.1338H150.9C150.971 84.6143 151.111 85.0186 151.322 85.3467C151.533 85.6748 151.809 85.9238 152.148 86.0938C152.494 86.2578 152.896 86.3398 153.353 86.3398C153.739 86.3398 154.082 86.2725 154.381 86.1377C154.68 86.0029 154.932 85.8096 155.137 85.5576C155.342 85.3057 155.497 85.001 155.603 84.6436C155.714 84.2861 155.77 83.8848 155.77 83.4395C155.77 83.0352 155.714 82.6602 155.603 82.3145C155.491 81.9688 155.324 81.667 155.102 81.4092C154.885 81.1514 154.618 80.9521 154.302 80.8115C153.985 80.665 153.622 80.5918 153.212 80.5918C152.667 80.5918 152.254 80.665 151.973 80.8115C151.697 80.958 151.413 81.1572 151.12 81.4092ZM167.222 80.082V82.0332C167.222 83.082 167.128 83.9668 166.94 84.6875C166.753 85.4082 166.483 85.9883 166.132 86.4277C165.78 86.8672 165.355 87.1865 164.857 87.3857C164.365 87.5791 163.809 87.6758 163.188 87.6758C162.695 87.6758 162.241 87.6143 161.825 87.4912C161.409 87.3682 161.034 87.1719 160.7 86.9023C160.372 86.627 160.091 86.2695 159.856 85.8301C159.622 85.3906 159.443 84.8574 159.32 84.2305C159.197 83.6035 159.136 82.8711 159.136 82.0332V80.082C159.136 79.0332 159.229 78.1543 159.417 77.4453C159.61 76.7363 159.883 76.168 160.234 75.7402C160.586 75.3066 161.008 74.9961 161.5 74.8086C161.998 74.6211 162.555 74.5273 163.17 74.5273C163.668 74.5273 164.125 74.5889 164.541 74.7119C164.963 74.8291 165.338 75.0195 165.666 75.2832C165.994 75.541 166.272 75.8867 166.501 76.3203C166.735 76.748 166.914 77.2725 167.037 77.8936C167.16 78.5146 167.222 79.2441 167.222 80.082ZM165.587 82.2969V79.8096C165.587 79.2354 165.552 78.7314 165.481 78.2979C165.417 77.8584 165.32 77.4834 165.191 77.1729C165.062 76.8623 164.898 76.6104 164.699 76.417C164.506 76.2236 164.28 76.083 164.022 75.9951C163.771 75.9014 163.486 75.8545 163.17 75.8545C162.783 75.8545 162.44 75.9277 162.142 76.0742C161.843 76.2148 161.591 76.4404 161.386 76.751C161.187 77.0615 161.034 77.4688 160.929 77.9727C160.823 78.4766 160.771 79.0889 160.771 79.8096V82.2969C160.771 82.8711 160.803 83.3779 160.867 83.8174C160.938 84.2568 161.04 84.6377 161.175 84.96C161.31 85.2764 161.474 85.5371 161.667 85.7422C161.86 85.9473 162.083 86.0996 162.335 86.1992C162.593 86.293 162.877 86.3398 163.188 86.3398C163.586 86.3398 163.935 86.2637 164.233 86.1113C164.532 85.959 164.781 85.7217 164.98 85.3994C165.186 85.0713 165.338 84.6523 165.438 84.1426C165.537 83.627 165.587 83.0117 165.587 82.2969ZM177.707 80.6357V82.165H168.936V80.6357H177.707ZM174.139 76.9004V86.2168H172.513V76.9004H174.139ZM192.139 83.4307H193.826C193.738 84.2393 193.507 84.9629 193.132 85.6016C192.757 86.2402 192.227 86.7471 191.541 87.1221C190.855 87.4912 190 87.6758 188.975 87.6758C188.225 87.6758 187.542 87.5352 186.927 87.2539C186.317 86.9727 185.793 86.5742 185.354 86.0586C184.914 85.5371 184.574 84.9131 184.334 84.1865C184.1 83.4541 183.982 82.6396 183.982 81.7432V80.4688C183.982 79.5723 184.1 78.7607 184.334 78.0342C184.574 77.3018 184.917 76.6748 185.362 76.1533C185.813 75.6318 186.355 75.2305 186.988 74.9492C187.621 74.668 188.333 74.5273 189.124 74.5273C190.091 74.5273 190.908 74.709 191.576 75.0723C192.244 75.4355 192.763 75.9395 193.132 76.584C193.507 77.2227 193.738 77.9639 193.826 78.8076H192.139C192.057 78.21 191.904 77.6973 191.682 77.2695C191.459 76.8359 191.143 76.502 190.732 76.2676C190.322 76.0332 189.786 75.916 189.124 75.916C188.556 75.916 188.055 76.0244 187.621 76.2412C187.193 76.458 186.833 76.7656 186.54 77.1641C186.253 77.5625 186.036 78.04 185.89 78.5967C185.743 79.1533 185.67 79.7715 185.67 80.4512V81.7432C185.67 82.3701 185.734 82.959 185.863 83.5098C185.998 84.0605 186.2 84.5439 186.47 84.96C186.739 85.376 187.082 85.7041 187.498 85.9443C187.914 86.1787 188.406 86.2959 188.975 86.2959C189.695 86.2959 190.27 86.1816 190.697 85.9531C191.125 85.7246 191.447 85.3965 191.664 84.9688C191.887 84.541 192.045 84.0283 192.139 83.4307ZM195.461 82.8506V82.6484C195.461 81.9629 195.561 81.3271 195.76 80.7412C195.959 80.1494 196.246 79.6367 196.621 79.2031C196.996 78.7637 197.45 78.4238 197.983 78.1836C198.517 77.9375 199.114 77.8145 199.776 77.8145C200.444 77.8145 201.045 77.9375 201.578 78.1836C202.117 78.4238 202.574 78.7637 202.949 79.2031C203.33 79.6367 203.62 80.1494 203.819 80.7412C204.019 81.3271 204.118 81.9629 204.118 82.6484V82.8506C204.118 83.5361 204.019 84.1719 203.819 84.7578C203.62 85.3438 203.33 85.8564 202.949 86.2959C202.574 86.7295 202.12 87.0693 201.587 87.3154C201.06 87.5557 200.462 87.6758 199.794 87.6758C199.126 87.6758 198.525 87.5557 197.992 87.3154C197.459 87.0693 197.002 86.7295 196.621 86.2959C196.246 85.8564 195.959 85.3438 195.76 84.7578C195.561 84.1719 195.461 83.5361 195.461 82.8506ZM197.087 82.6484V82.8506C197.087 83.3252 197.143 83.7734 197.254 84.1953C197.365 84.6113 197.532 84.9805 197.755 85.3027C197.983 85.625 198.268 85.8799 198.607 86.0674C198.947 86.249 199.343 86.3398 199.794 86.3398C200.239 86.3398 200.629 86.249 200.963 86.0674C201.303 85.8799 201.584 85.625 201.807 85.3027C202.029 84.9805 202.196 84.6113 202.308 84.1953C202.425 83.7734 202.483 83.3252 202.483 82.8506V82.6484C202.483 82.1797 202.425 81.7373 202.308 81.3213C202.196 80.8994 202.026 80.5273 201.798 80.2051C201.575 79.877 201.294 79.6191 200.954 79.4316C200.62 79.2441 200.228 79.1504 199.776 79.1504C199.331 79.1504 198.938 79.2441 198.599 79.4316C198.265 79.6191 197.983 79.877 197.755 80.2051C197.532 80.5273 197.365 80.8994 197.254 81.3213C197.143 81.7373 197.087 82.1797 197.087 82.6484ZM211.976 85.3027V77.9902H213.61V87.5H212.055L211.976 85.3027ZM212.283 83.2988L212.96 83.2812C212.96 83.9141 212.893 84.5 212.758 85.0391C212.629 85.5723 212.418 86.0352 212.125 86.4277C211.832 86.8203 211.448 87.1279 210.974 87.3506C210.499 87.5674 209.922 87.6758 209.242 87.6758C208.779 87.6758 208.354 87.6084 207.968 87.4736C207.587 87.3389 207.259 87.1309 206.983 86.8496C206.708 86.5684 206.494 86.2021 206.342 85.751C206.195 85.2998 206.122 84.7578 206.122 84.125V77.9902H207.748V84.1426C207.748 84.5703 207.795 84.9248 207.889 85.2061C207.988 85.4814 208.12 85.7012 208.284 85.8652C208.454 86.0234 208.642 86.1348 208.847 86.1992C209.058 86.2637 209.274 86.2959 209.497 86.2959C210.188 86.2959 210.736 86.1641 211.141 85.9004C211.545 85.6309 211.835 85.2705 212.011 84.8193C212.192 84.3623 212.283 83.8555 212.283 83.2988ZM217.715 79.4844V87.5H216.089V77.9902H217.671L217.715 79.4844ZM220.686 77.9375L220.677 79.4492C220.542 79.4199 220.413 79.4023 220.29 79.3965C220.173 79.3848 220.038 79.3789 219.886 79.3789C219.511 79.3789 219.18 79.4375 218.893 79.5547C218.605 79.6719 218.362 79.8359 218.163 80.0469C217.964 80.2578 217.806 80.5098 217.688 80.8027C217.577 81.0898 217.504 81.4062 217.469 81.752L217.012 82.0156C217.012 81.4414 217.067 80.9023 217.179 80.3984C217.296 79.8945 217.475 79.4492 217.715 79.0625C217.955 78.6699 218.26 78.3652 218.629 78.1484C219.004 77.9258 219.449 77.8145 219.965 77.8145C220.082 77.8145 220.217 77.8291 220.369 77.8584C220.521 77.8818 220.627 77.9082 220.686 77.9375ZM227.726 84.9775C227.726 84.7432 227.673 84.5264 227.567 84.3271C227.468 84.1221 227.26 83.9375 226.943 83.7734C226.633 83.6035 226.164 83.457 225.537 83.334C225.01 83.2227 224.532 83.0908 224.104 82.9385C223.683 82.7861 223.322 82.6016 223.023 82.3848C222.73 82.168 222.505 81.9131 222.347 81.6201C222.188 81.3271 222.109 80.9844 222.109 80.5918C222.109 80.2168 222.191 79.8623 222.355 79.5283C222.525 79.1943 222.763 78.8984 223.067 78.6406C223.378 78.3828 223.75 78.1807 224.184 78.0342C224.617 77.8877 225.101 77.8145 225.634 77.8145C226.396 77.8145 227.046 77.9492 227.585 78.2188C228.124 78.4883 228.537 78.8486 228.824 79.2998C229.111 79.7451 229.255 80.2402 229.255 80.7852H227.629C227.629 80.5215 227.55 80.2666 227.392 80.0205C227.239 79.7686 227.014 79.5605 226.715 79.3965C226.422 79.2324 226.062 79.1504 225.634 79.1504C225.183 79.1504 224.816 79.2207 224.535 79.3613C224.26 79.4961 224.058 79.6689 223.929 79.8799C223.806 80.0908 223.744 80.3135 223.744 80.5479C223.744 80.7236 223.773 80.8818 223.832 81.0225C223.896 81.1572 224.008 81.2832 224.166 81.4004C224.324 81.5117 224.547 81.6172 224.834 81.7168C225.121 81.8164 225.487 81.916 225.933 82.0156C226.712 82.1914 227.354 82.4023 227.857 82.6484C228.361 82.8945 228.736 83.1963 228.982 83.5537C229.229 83.9111 229.352 84.3447 229.352 84.8545C229.352 85.2705 229.264 85.6514 229.088 85.9971C228.918 86.3428 228.669 86.6416 228.341 86.8936C228.019 87.1396 227.632 87.333 227.181 87.4736C226.735 87.6084 226.234 87.6758 225.678 87.6758C224.84 87.6758 224.131 87.5264 223.551 87.2275C222.971 86.9287 222.531 86.542 222.232 86.0674C221.934 85.5928 221.784 85.0918 221.784 84.5645H223.419C223.442 85.0098 223.571 85.3643 223.806 85.6279C224.04 85.8857 224.327 86.0703 224.667 86.1816C225.007 86.2871 225.344 86.3398 225.678 86.3398C226.123 86.3398 226.495 86.2812 226.794 86.1641C227.099 86.0469 227.33 85.8857 227.488 85.6807C227.646 85.4756 227.726 85.2412 227.726 84.9775ZM235.434 87.6758C234.771 87.6758 234.171 87.5645 233.632 87.3418C233.099 87.1133 232.639 86.7939 232.252 86.3838C231.871 85.9736 231.578 85.4873 231.373 84.9248C231.168 84.3623 231.065 83.7471 231.065 83.0791V82.71C231.065 81.9365 231.18 81.248 231.408 80.6445C231.637 80.0352 231.947 79.5195 232.34 79.0977C232.732 78.6758 233.178 78.3564 233.676 78.1396C234.174 77.9229 234.689 77.8145 235.223 77.8145C235.902 77.8145 236.488 77.9316 236.98 78.166C237.479 78.4004 237.886 78.7285 238.202 79.1504C238.519 79.5664 238.753 80.0586 238.905 80.627C239.058 81.1895 239.134 81.8047 239.134 82.4727V83.2021H232.032V81.875H237.508V81.752C237.484 81.3301 237.396 80.9199 237.244 80.5215C237.098 80.123 236.863 79.7949 236.541 79.5371C236.219 79.2793 235.779 79.1504 235.223 79.1504C234.854 79.1504 234.514 79.2295 234.203 79.3877C233.893 79.54 233.626 79.7686 233.403 80.0732C233.181 80.3779 233.008 80.75 232.885 81.1895C232.762 81.6289 232.7 82.1357 232.7 82.71V83.0791C232.7 83.5303 232.762 83.9551 232.885 84.3535C233.014 84.7461 233.198 85.0918 233.438 85.3906C233.685 85.6895 233.98 85.9238 234.326 86.0938C234.678 86.2637 235.076 86.3486 235.521 86.3486C236.096 86.3486 236.582 86.2314 236.98 85.9971C237.379 85.7627 237.728 85.4492 238.026 85.0566L239.011 85.8389C238.806 86.1494 238.545 86.4453 238.229 86.7266C237.912 87.0078 237.522 87.2363 237.06 87.4121C236.603 87.5879 236.061 87.6758 235.434 87.6758ZM246.569 84.9775C246.569 84.7432 246.517 84.5264 246.411 84.3271C246.312 84.1221 246.104 83.9375 245.787 83.7734C245.477 83.6035 245.008 83.457 244.381 83.334C243.854 83.2227 243.376 83.0908 242.948 82.9385C242.526 82.7861 242.166 82.6016 241.867 82.3848C241.574 82.168 241.349 81.9131 241.19 81.6201C241.032 81.3271 240.953 80.9844 240.953 80.5918C240.953 80.2168 241.035 79.8623 241.199 79.5283C241.369 79.1943 241.606 78.8984 241.911 78.6406C242.222 78.3828 242.594 78.1807 243.027 78.0342C243.461 77.8877 243.944 77.8145 244.478 77.8145C245.239 77.8145 245.89 77.9492 246.429 78.2188C246.968 78.4883 247.381 78.8486 247.668 79.2998C247.955 79.7451 248.099 80.2402 248.099 80.7852H246.473C246.473 80.5215 246.394 80.2666 246.235 80.0205C246.083 79.7686 245.857 79.5605 245.559 79.3965C245.266 79.2324 244.905 79.1504 244.478 79.1504C244.026 79.1504 243.66 79.2207 243.379 79.3613C243.104 79.4961 242.901 79.6689 242.772 79.8799C242.649 80.0908 242.588 80.3135 242.588 80.5479C242.588 80.7236 242.617 80.8818 242.676 81.0225C242.74 81.1572 242.852 81.2832 243.01 81.4004C243.168 81.5117 243.391 81.6172 243.678 81.7168C243.965 81.8164 244.331 81.916 244.776 82.0156C245.556 82.1914 246.197 82.4023 246.701 82.6484C247.205 82.8945 247.58 83.1963 247.826 83.5537C248.072 83.9111 248.195 84.3447 248.195 84.8545C248.195 85.2705 248.107 85.6514 247.932 85.9971C247.762 86.3428 247.513 86.6416 247.185 86.8936C246.862 87.1396 246.476 87.333 246.024 87.4736C245.579 87.6084 245.078 87.6758 244.521 87.6758C243.684 87.6758 242.975 87.5264 242.395 87.2275C241.814 86.9287 241.375 86.542 241.076 86.0674C240.777 85.5928 240.628 85.0918 240.628 84.5645H242.263C242.286 85.0098 242.415 85.3643 242.649 85.6279C242.884 85.8857 243.171 86.0703 243.511 86.1816C243.851 86.2871 244.188 86.3398 244.521 86.3398C244.967 86.3398 245.339 86.2812 245.638 86.1641C245.942 86.0469 246.174 85.8857 246.332 85.6807C246.49 85.4756 246.569 85.2412 246.569 84.9775ZM259.779 75.8369L255.543 87.5H253.812L258.689 74.7031H259.806L259.779 75.8369ZM263.33 87.5L259.085 75.8369L259.059 74.7031H260.175L265.07 87.5H263.33ZM263.11 82.7627V84.1514H255.921V82.7627H263.11ZM268.99 86.0322L271.592 77.9902H273.253L269.834 87.5H268.744L268.99 86.0322ZM266.819 77.9902L269.5 86.0762L269.685 87.5H268.595L265.149 77.9902H266.819ZM280.284 85.874V80.9785C280.284 80.6035 280.208 80.2783 280.056 80.0029C279.909 79.7217 279.687 79.5049 279.388 79.3525C279.089 79.2002 278.72 79.124 278.28 79.124C277.87 79.124 277.51 79.1943 277.199 79.335C276.895 79.4756 276.654 79.6602 276.479 79.8887C276.309 80.1172 276.224 80.3633 276.224 80.627H274.598C274.598 80.2871 274.686 79.9502 274.861 79.6162C275.037 79.2822 275.289 78.9805 275.617 78.7109C275.951 78.4355 276.35 78.2188 276.812 78.0605C277.281 77.8965 277.803 77.8145 278.377 77.8145C279.068 77.8145 279.678 77.9316 280.205 78.166C280.738 78.4004 281.154 78.7549 281.453 79.2295C281.758 79.6982 281.91 80.2871 281.91 80.9961V85.4258C281.91 85.7422 281.937 86.0791 281.989 86.4365C282.048 86.7939 282.133 87.1016 282.244 87.3594V87.5H280.548C280.466 87.3125 280.401 87.0635 280.354 86.7529C280.308 86.4365 280.284 86.1436 280.284 85.874ZM280.565 81.7344L280.583 82.877H278.939C278.477 82.877 278.063 82.915 277.7 82.9912C277.337 83.0615 277.032 83.1699 276.786 83.3164C276.54 83.4629 276.353 83.6475 276.224 83.8701C276.095 84.0869 276.03 84.3418 276.03 84.6348C276.03 84.9336 276.098 85.2061 276.232 85.4521C276.367 85.6982 276.569 85.8945 276.839 86.041C277.114 86.1816 277.451 86.252 277.85 86.252C278.348 86.252 278.787 86.1465 279.168 85.9355C279.549 85.7246 279.851 85.4668 280.073 85.1621C280.302 84.8574 280.425 84.5615 280.442 84.2744L281.137 85.0566C281.096 85.3027 280.984 85.5752 280.803 85.874C280.621 86.1729 280.378 86.46 280.073 86.7354C279.774 87.0049 279.417 87.2305 279.001 87.4121C278.591 87.5879 278.128 87.6758 277.612 87.6758C276.968 87.6758 276.402 87.5498 275.916 87.2979C275.436 87.0459 275.061 86.709 274.791 86.2871C274.527 85.8594 274.396 85.3818 274.396 84.8545C274.396 84.3447 274.495 83.8965 274.694 83.5098C274.894 83.1172 275.181 82.792 275.556 82.5342C275.931 82.2705 276.382 82.0713 276.909 81.9365C277.437 81.8018 278.025 81.7344 278.676 81.7344H280.565ZM286.234 77.9902V87.5H284.6V77.9902H286.234ZM284.477 75.4678C284.477 75.2041 284.556 74.9814 284.714 74.7998C284.878 74.6182 285.118 74.5273 285.435 74.5273C285.745 74.5273 285.982 74.6182 286.146 74.7998C286.316 74.9814 286.401 75.2041 286.401 75.4678C286.401 75.7197 286.316 75.9365 286.146 76.1182C285.982 76.2939 285.745 76.3818 285.435 76.3818C285.118 76.3818 284.878 76.2939 284.714 76.1182C284.556 75.9365 284.477 75.7197 284.477 75.4678ZM290.611 74V87.5H288.977V74H290.611ZM298.829 85.874V80.9785C298.829 80.6035 298.753 80.2783 298.601 80.0029C298.454 79.7217 298.231 79.5049 297.933 79.3525C297.634 79.2002 297.265 79.124 296.825 79.124C296.415 79.124 296.055 79.1943 295.744 79.335C295.439 79.4756 295.199 79.6602 295.023 79.8887C294.854 80.1172 294.769 80.3633 294.769 80.627H293.143C293.143 80.2871 293.23 79.9502 293.406 79.6162C293.582 79.2822 293.834 78.9805 294.162 78.7109C294.496 78.4355 294.895 78.2188 295.357 78.0605C295.826 77.8965 296.348 77.8145 296.922 77.8145C297.613 77.8145 298.223 77.9316 298.75 78.166C299.283 78.4004 299.699 78.7549 299.998 79.2295C300.303 79.6982 300.455 80.2871 300.455 80.9961V85.4258C300.455 85.7422 300.481 86.0791 300.534 86.4365C300.593 86.7939 300.678 87.1016 300.789 87.3594V87.5H299.093C299.011 87.3125 298.946 87.0635 298.899 86.7529C298.853 86.4365 298.829 86.1436 298.829 85.874ZM299.11 81.7344L299.128 82.877H297.484C297.021 82.877 296.608 82.915 296.245 82.9912C295.882 83.0615 295.577 83.1699 295.331 83.3164C295.085 83.4629 294.897 83.6475 294.769 83.8701C294.64 84.0869 294.575 84.3418 294.575 84.6348C294.575 84.9336 294.643 85.2061 294.777 85.4521C294.912 85.6982 295.114 85.8945 295.384 86.041C295.659 86.1816 295.996 86.252 296.395 86.252C296.893 86.252 297.332 86.1465 297.713 85.9355C298.094 85.7246 298.396 85.4668 298.618 85.1621C298.847 84.8574 298.97 84.5615 298.987 84.2744L299.682 85.0566C299.641 85.3027 299.529 85.5752 299.348 85.874C299.166 86.1729 298.923 86.46 298.618 86.7354C298.319 87.0049 297.962 87.2305 297.546 87.4121C297.136 87.5879 296.673 87.6758 296.157 87.6758C295.513 87.6758 294.947 87.5498 294.461 87.2979C293.98 87.0459 293.605 86.709 293.336 86.2871C293.072 85.8594 292.94 85.3818 292.94 84.8545C292.94 84.3447 293.04 83.8965 293.239 83.5098C293.438 83.1172 293.726 82.792 294.101 82.5342C294.476 82.2705 294.927 82.0713 295.454 81.9365C295.981 81.8018 296.57 81.7344 297.221 81.7344H299.11ZM303.004 74H304.639V85.6543L304.498 87.5H303.004V74ZM311.063 82.666V82.8506C311.063 83.542 310.981 84.1836 310.817 84.7754C310.653 85.3613 310.413 85.8711 310.097 86.3047C309.78 86.7383 309.394 87.0752 308.937 87.3154C308.479 87.5557 307.955 87.6758 307.363 87.6758C306.76 87.6758 306.229 87.5732 305.772 87.3682C305.321 87.1572 304.94 86.8555 304.63 86.4629C304.319 86.0703 304.07 85.5957 303.883 85.0391C303.701 84.4824 303.575 83.8555 303.505 83.1582V82.3496C303.575 81.6465 303.701 81.0166 303.883 80.46C304.07 79.9033 304.319 79.4287 304.63 79.0361C304.94 78.6377 305.321 78.3359 305.772 78.1309C306.224 77.9199 306.748 77.8145 307.346 77.8145C307.943 77.8145 308.474 77.9316 308.937 78.166C309.399 78.3945 309.786 78.7227 310.097 79.1504C310.413 79.5781 310.653 80.0908 310.817 80.6885C310.981 81.2803 311.063 81.9395 311.063 82.666ZM309.429 82.8506V82.666C309.429 82.1914 309.385 81.7461 309.297 81.3301C309.209 80.9082 309.068 80.5391 308.875 80.2227C308.682 79.9004 308.427 79.6484 308.11 79.4668C307.794 79.2793 307.404 79.1855 306.941 79.1855C306.531 79.1855 306.174 79.2559 305.869 79.3965C305.57 79.5371 305.315 79.7275 305.104 79.9678C304.894 80.2021 304.721 80.4717 304.586 80.7764C304.457 81.0752 304.36 81.3857 304.296 81.708V83.8262C304.39 84.2363 304.542 84.6318 304.753 85.0127C304.97 85.3877 305.257 85.6953 305.614 85.9355C305.978 86.1758 306.426 86.2959 306.959 86.2959C307.398 86.2959 307.773 86.208 308.084 86.0322C308.4 85.8506 308.655 85.6016 308.849 85.2852C309.048 84.9688 309.194 84.6025 309.288 84.1865C309.382 83.7705 309.429 83.3252 309.429 82.8506ZM314.887 74V87.5H313.252V74H314.887ZM321.443 87.6758C320.781 87.6758 320.181 87.5645 319.642 87.3418C319.108 87.1133 318.648 86.7939 318.262 86.3838C317.881 85.9736 317.588 85.4873 317.383 84.9248C317.178 84.3623 317.075 83.7471 317.075 83.0791V82.71C317.075 81.9365 317.189 81.248 317.418 80.6445C317.646 80.0352 317.957 79.5195 318.35 79.0977C318.742 78.6758 319.188 78.3564 319.686 78.1396C320.184 77.9229 320.699 77.8145 321.232 77.8145C321.912 77.8145 322.498 77.9316 322.99 78.166C323.488 78.4004 323.896 78.7285 324.212 79.1504C324.528 79.5664 324.763 80.0586 324.915 80.627C325.067 81.1895 325.144 81.8047 325.144 82.4727V83.2021H318.042V81.875H323.518V81.752C323.494 81.3301 323.406 80.9199 323.254 80.5215C323.107 80.123 322.873 79.7949 322.551 79.5371C322.229 79.2793 321.789 79.1504 321.232 79.1504C320.863 79.1504 320.523 79.2295 320.213 79.3877C319.902 79.54 319.636 79.7686 319.413 80.0732C319.19 80.3779 319.018 80.75 318.895 81.1895C318.771 81.6289 318.71 82.1357 318.71 82.71V83.0791C318.71 83.5303 318.771 83.9551 318.895 84.3535C319.023 84.7461 319.208 85.0918 319.448 85.3906C319.694 85.6895 319.99 85.9238 320.336 86.0938C320.688 86.2637 321.086 86.3486 321.531 86.3486C322.105 86.3486 322.592 86.2314 322.99 85.9971C323.389 85.7627 323.737 85.4492 324.036 85.0566L325.021 85.8389C324.815 86.1494 324.555 86.4453 324.238 86.7266C323.922 87.0078 323.532 87.2363 323.069 87.4121C322.612 87.5879 322.07 87.6758 321.443 87.6758Z" fill="black"/>
</svg>
