<svg width="411" height="132" viewBox="0 0 411 132" fill="none" xmlns="http://www.w3.org/2000/svg">
<rect width="410.667" height="132" rx="5" fill="#F7F7F7"/>
<rect x="16" y="16" width="100" height="100" rx="5" fill="white"/>
<path d="M60.6666 79.3333H71.3333C76.6933 79.3333 77.6533 77.1867 77.9333 74.5733L78.9333 63.9067C79.2933 60.6533 78.36 58 72.6666 58H59.3333C53.64 58 52.7066 60.6533 53.0666 63.9067L54.0666 74.5733C54.3466 77.1867 55.3066 79.3333 60.6666 79.3333Z" stroke="#292D32" stroke-width="1.5" stroke-miterlimit="10" stroke-linecap="round" stroke-linejoin="round"/>
<path d="M60.6667 58V56.9333C60.6667 54.5733 60.6667 52.6666 64.9334 52.6666H67.0667C71.3334 52.6666 71.3334 54.5733 71.3334 56.9333V58" stroke="#292D32" stroke-width="1.5" stroke-miterlimit="10" stroke-linecap="round" stroke-linejoin="round"/>
<path d="M68.6666 67.3333V68.6667C68.6666 68.68 68.6666 68.68 68.6666 68.6933C68.6666 70.1467 68.6533 71.3333 66 71.3333C63.36 71.3333 63.3333 70.16 63.3333 68.7067V67.3333C63.3333 66 63.3333 66 64.6666 66H67.3333C68.6666 66 68.6666 66 68.6666 67.3333Z" stroke="#292D32" stroke-width="1.5" stroke-miterlimit="10" stroke-linecap="round" stroke-linejoin="round"/>
<path d="M78.8667 64.6666C75.7867 66.9066 72.2667 68.24 68.6667 68.6933" stroke="#292D32" stroke-width="1.5" stroke-miterlimit="10" stroke-linecap="round" stroke-linejoin="round"/>
<path d="M53.4933 65.0266C56.4933 67.0799 59.88 68.3199 63.3333 68.7066" stroke="#292D32" stroke-width="1.5" stroke-miterlimit="10" stroke-linecap="round" stroke-linejoin="round"/>
<path d="M154.807 53.1621H151.174L151.154 51.2676H154.27C154.803 51.2676 155.249 51.1927 155.607 51.043C155.965 50.8932 156.236 50.6751 156.418 50.3887C156.607 50.1022 156.701 49.7539 156.701 49.3438C156.701 48.888 156.613 48.5169 156.438 48.2305C156.268 47.944 156.001 47.7357 155.637 47.6055C155.272 47.4688 154.81 47.4004 154.25 47.4004H152.043V59.5H149.357V45.2812H154.25C155.057 45.2812 155.777 45.3594 156.408 45.5156C157.046 45.6654 157.587 45.8997 158.029 46.2188C158.472 46.5378 158.807 46.9382 159.035 47.4199C159.27 47.9017 159.387 48.4746 159.387 49.1387C159.387 49.7246 159.25 50.265 158.977 50.7598C158.71 51.248 158.296 51.6452 157.736 51.9512C157.183 52.2572 156.48 52.4329 155.627 52.4785L154.807 53.1621ZM154.689 59.5H150.383L151.506 57.3906H154.689C155.223 57.3906 155.663 57.3027 156.008 57.127C156.359 56.9512 156.62 56.7103 156.789 56.4043C156.965 56.0918 157.053 55.7337 157.053 55.3301C157.053 54.8874 156.975 54.5033 156.818 54.1777C156.669 53.8522 156.428 53.6016 156.096 53.4258C155.77 53.25 155.34 53.1621 154.807 53.1621H152.014L152.033 51.2676H155.588L156.203 52C157.023 52.0065 157.691 52.1693 158.205 52.4883C158.726 52.8073 159.11 53.2174 159.357 53.7188C159.605 54.2201 159.729 54.7604 159.729 55.3398C159.729 56.2513 159.53 57.0163 159.133 57.6348C158.742 58.2533 158.169 58.7188 157.414 59.0312C156.665 59.3438 155.757 59.5 154.689 59.5ZM168.146 56.9902V48.9336H170.744V59.5H168.303L168.146 56.9902ZM168.479 54.8027L169.279 54.7832C169.279 55.4928 169.201 56.1471 169.045 56.7461C168.889 57.3451 168.645 57.8659 168.312 58.3086C167.987 58.7448 167.574 59.0866 167.072 59.334C166.571 59.5749 165.979 59.6953 165.295 59.6953C164.774 59.6953 164.299 59.6237 163.869 59.4805C163.439 59.3307 163.068 59.0996 162.756 58.7871C162.45 58.4681 162.212 58.0612 162.043 57.5664C161.874 57.0651 161.789 56.4629 161.789 55.7598V48.9336H164.367V55.7793C164.367 56.1309 164.406 56.4238 164.484 56.6582C164.569 56.8926 164.683 57.0846 164.826 57.2344C164.976 57.3776 165.148 57.4818 165.344 57.5469C165.546 57.6055 165.76 57.6348 165.988 57.6348C166.613 57.6348 167.105 57.5111 167.463 57.2637C167.827 57.0098 168.088 56.6712 168.244 56.248C168.4 55.8184 168.479 55.3366 168.479 54.8027ZM178.84 56.6094C178.84 56.388 178.781 56.1895 178.664 56.0137C178.547 55.8379 178.326 55.6784 178 55.5352C177.681 55.3854 177.212 55.2454 176.594 55.1152C176.047 54.998 175.542 54.8516 175.08 54.6758C174.618 54.5 174.221 54.2884 173.889 54.041C173.557 53.7871 173.296 53.4909 173.107 53.1523C172.925 52.8073 172.834 52.4102 172.834 51.9609C172.834 51.5247 172.928 51.1146 173.117 50.7305C173.306 50.3398 173.579 49.998 173.938 49.7051C174.296 49.4056 174.732 49.1712 175.246 49.002C175.76 48.8262 176.34 48.7383 176.984 48.7383C177.883 48.7383 178.654 48.8848 179.299 49.1777C179.95 49.4707 180.448 49.8743 180.793 50.3887C181.138 50.8965 181.311 51.4694 181.311 52.1074H178.732C178.732 51.8275 178.667 51.5736 178.537 51.3457C178.413 51.1178 178.221 50.9355 177.961 50.7988C177.701 50.6556 177.372 50.584 176.975 50.584C176.617 50.584 176.314 50.6426 176.066 50.7598C175.826 50.877 175.643 51.0299 175.52 51.2188C175.396 51.4076 175.334 51.6159 175.334 51.8438C175.334 52.013 175.367 52.166 175.432 52.3027C175.503 52.4329 175.617 52.5534 175.773 52.6641C175.93 52.7747 176.141 52.8757 176.408 52.9668C176.682 53.0579 177.017 53.1458 177.414 53.2305C178.202 53.3867 178.889 53.5951 179.475 53.8555C180.067 54.1094 180.529 54.4479 180.861 54.8711C181.193 55.2943 181.359 55.8346 181.359 56.4922C181.359 56.9609 181.258 57.3906 181.057 57.7812C180.855 58.1654 180.562 58.5007 180.178 58.7871C179.794 59.0736 179.335 59.2982 178.801 59.4609C178.267 59.6172 177.665 59.6953 176.994 59.6953C176.024 59.6953 175.204 59.5228 174.533 59.1777C173.863 58.8262 173.355 58.3835 173.01 57.8496C172.665 57.3092 172.492 56.7493 172.492 56.1699H174.963C174.982 56.5801 175.093 56.9089 175.295 57.1562C175.497 57.4036 175.751 57.5827 176.057 57.6934C176.369 57.7975 176.698 57.8496 177.043 57.8496C177.434 57.8496 177.762 57.7975 178.029 57.6934C178.296 57.5827 178.498 57.4362 178.635 57.2539C178.771 57.0651 178.84 56.8503 178.84 56.6094ZM186.057 48.9336V59.5H183.469V48.9336H186.057ZM183.293 46.1699C183.293 45.7858 183.423 45.4668 183.684 45.2129C183.951 44.959 184.309 44.832 184.758 44.832C185.207 44.832 185.562 44.959 185.822 45.2129C186.089 45.4668 186.223 45.7858 186.223 46.1699C186.223 46.5475 186.089 46.8633 185.822 47.1172C185.562 47.3711 185.207 47.498 184.758 47.498C184.309 47.498 183.951 47.3711 183.684 47.1172C183.423 46.8633 183.293 46.5475 183.293 46.1699ZM191.047 51.1895V59.5H188.469V48.9336H190.891L191.047 51.1895ZM190.637 53.8359H189.875C189.882 53.0677 189.986 52.3711 190.188 51.7461C190.389 51.1211 190.673 50.584 191.037 50.1348C191.408 49.6855 191.848 49.3405 192.355 49.0996C192.863 48.8587 193.43 48.7383 194.055 48.7383C194.562 48.7383 195.021 48.8099 195.432 48.9531C195.842 49.0964 196.193 49.3242 196.486 49.6367C196.786 49.9492 197.014 50.3594 197.17 50.8672C197.333 51.3685 197.414 51.987 197.414 52.7227V59.5H194.816V52.7031C194.816 52.2214 194.745 51.8405 194.602 51.5605C194.465 51.2806 194.263 51.082 193.996 50.9648C193.736 50.8477 193.413 50.7891 193.029 50.7891C192.632 50.7891 192.284 50.8704 191.984 51.0332C191.691 51.1895 191.444 51.4076 191.242 51.6875C191.047 51.9674 190.897 52.2897 190.793 52.6543C190.689 53.0189 190.637 53.4128 190.637 53.8359ZM204.436 59.6953C203.635 59.6953 202.915 59.5651 202.277 59.3047C201.639 59.0443 201.096 58.6829 200.646 58.2207C200.204 57.752 199.862 57.2083 199.621 56.5898C199.387 55.9648 199.27 55.2943 199.27 54.5781V54.1875C199.27 53.3737 199.387 52.6348 199.621 51.9707C199.855 51.3001 200.188 50.724 200.617 50.2422C201.047 49.7604 201.561 49.3893 202.16 49.1289C202.759 48.8685 203.42 48.7383 204.143 48.7383C204.891 48.7383 205.552 48.8652 206.125 49.1191C206.698 49.3665 207.176 49.7181 207.561 50.1738C207.945 50.6296 208.234 51.1764 208.43 51.8145C208.625 52.446 208.723 53.1458 208.723 53.9141V54.998H200.441V53.2207H206.184V53.0254C206.171 52.6152 206.092 52.2409 205.949 51.9023C205.806 51.5573 205.585 51.2839 205.285 51.082C204.986 50.8737 204.598 50.7695 204.123 50.7695C203.739 50.7695 203.404 50.8542 203.117 51.0234C202.837 51.1862 202.603 51.4206 202.414 51.7266C202.232 52.026 202.095 52.3841 202.004 52.8008C201.913 53.2174 201.867 53.6797 201.867 54.1875V54.5781C201.867 55.0208 201.926 55.431 202.043 55.8086C202.167 56.1862 202.346 56.515 202.58 56.7949C202.821 57.0684 203.107 57.2832 203.439 57.4395C203.778 57.5892 204.162 57.6641 204.592 57.6641C205.132 57.6641 205.62 57.5599 206.057 57.3516C206.499 57.1367 206.883 56.821 207.209 56.4043L208.508 57.752C208.286 58.0775 207.987 58.39 207.609 58.6895C207.238 58.9889 206.789 59.2331 206.262 59.4219C205.734 59.6042 205.126 59.6953 204.436 59.6953ZM216.262 56.6094C216.262 56.388 216.203 56.1895 216.086 56.0137C215.969 55.8379 215.747 55.6784 215.422 55.5352C215.103 55.3854 214.634 55.2454 214.016 55.1152C213.469 54.998 212.964 54.8516 212.502 54.6758C212.04 54.5 211.643 54.2884 211.311 54.041C210.979 53.7871 210.718 53.4909 210.529 53.1523C210.347 52.8073 210.256 52.4102 210.256 51.9609C210.256 51.5247 210.35 51.1146 210.539 50.7305C210.728 50.3398 211.001 49.998 211.359 49.7051C211.717 49.4056 212.154 49.1712 212.668 49.002C213.182 48.8262 213.762 48.7383 214.406 48.7383C215.305 48.7383 216.076 48.8848 216.721 49.1777C217.372 49.4707 217.87 49.8743 218.215 50.3887C218.56 50.8965 218.732 51.4694 218.732 52.1074H216.154C216.154 51.8275 216.089 51.5736 215.959 51.3457C215.835 51.1178 215.643 50.9355 215.383 50.7988C215.122 50.6556 214.794 50.584 214.396 50.584C214.038 50.584 213.736 50.6426 213.488 50.7598C213.247 50.877 213.065 51.0299 212.941 51.2188C212.818 51.4076 212.756 51.6159 212.756 51.8438C212.756 52.013 212.788 52.166 212.854 52.3027C212.925 52.4329 213.039 52.5534 213.195 52.6641C213.352 52.7747 213.563 52.8757 213.83 52.9668C214.104 53.0579 214.439 53.1458 214.836 53.2305C215.624 53.3867 216.311 53.5951 216.896 53.8555C217.489 54.1094 217.951 54.4479 218.283 54.8711C218.615 55.2943 218.781 55.8346 218.781 56.4922C218.781 56.9609 218.68 57.3906 218.479 57.7812C218.277 58.1654 217.984 58.5007 217.6 58.7871C217.215 59.0736 216.757 59.2982 216.223 59.4609C215.689 59.6172 215.087 59.6953 214.416 59.6953C213.446 59.6953 212.626 59.5228 211.955 59.1777C211.285 58.8262 210.777 58.3835 210.432 57.8496C210.087 57.3092 209.914 56.7493 209.914 56.1699H212.385C212.404 56.5801 212.515 56.9089 212.717 57.1562C212.919 57.4036 213.173 57.5827 213.479 57.6934C213.791 57.7975 214.12 57.8496 214.465 57.8496C214.855 57.8496 215.184 57.7975 215.451 57.6934C215.718 57.5827 215.92 57.4362 216.057 57.2539C216.193 57.0651 216.262 56.8503 216.262 56.6094ZM226.555 56.6094C226.555 56.388 226.496 56.1895 226.379 56.0137C226.262 55.8379 226.04 55.6784 225.715 55.5352C225.396 55.3854 224.927 55.2454 224.309 55.1152C223.762 54.998 223.257 54.8516 222.795 54.6758C222.333 54.5 221.936 54.2884 221.604 54.041C221.271 53.7871 221.011 53.4909 220.822 53.1523C220.64 52.8073 220.549 52.4102 220.549 51.9609C220.549 51.5247 220.643 51.1146 220.832 50.7305C221.021 50.3398 221.294 49.998 221.652 49.7051C222.01 49.4056 222.447 49.1712 222.961 49.002C223.475 48.8262 224.055 48.7383 224.699 48.7383C225.598 48.7383 226.369 48.8848 227.014 49.1777C227.665 49.4707 228.163 49.8743 228.508 50.3887C228.853 50.8965 229.025 51.4694 229.025 52.1074H226.447C226.447 51.8275 226.382 51.5736 226.252 51.3457C226.128 51.1178 225.936 50.9355 225.676 50.7988C225.415 50.6556 225.087 50.584 224.689 50.584C224.331 50.584 224.029 50.6426 223.781 50.7598C223.54 50.877 223.358 51.0299 223.234 51.2188C223.111 51.4076 223.049 51.6159 223.049 51.8438C223.049 52.013 223.081 52.166 223.146 52.3027C223.218 52.4329 223.332 52.5534 223.488 52.6641C223.645 52.7747 223.856 52.8757 224.123 52.9668C224.396 53.0579 224.732 53.1458 225.129 53.2305C225.917 53.3867 226.604 53.5951 227.189 53.8555C227.782 54.1094 228.244 54.4479 228.576 54.8711C228.908 55.2943 229.074 55.8346 229.074 56.4922C229.074 56.9609 228.973 57.3906 228.771 57.7812C228.57 58.1654 228.277 58.5007 227.893 58.7871C227.508 59.0736 227.049 59.2982 226.516 59.4609C225.982 59.6172 225.38 59.6953 224.709 59.6953C223.739 59.6953 222.919 59.5228 222.248 59.1777C221.577 58.8262 221.07 58.3835 220.725 57.8496C220.38 57.3092 220.207 56.7493 220.207 56.1699H222.678C222.697 56.5801 222.808 56.9089 223.01 57.1562C223.212 57.4036 223.465 57.5827 223.771 57.6934C224.084 57.7975 224.413 57.8496 224.758 57.8496C225.148 57.8496 225.477 57.7975 225.744 57.6934C226.011 57.5827 226.213 57.4362 226.35 57.2539C226.486 57.0651 226.555 56.8503 226.555 56.6094Z" fill="black"/>
<path d="M151.12 81.4092L149.819 81.0752L150.461 74.7031H157.026V76.2061H151.841L151.454 79.6865C151.688 79.5518 151.984 79.4258 152.342 79.3086C152.705 79.1914 153.121 79.1328 153.59 79.1328C154.182 79.1328 154.712 79.2354 155.181 79.4404C155.649 79.6396 156.048 79.9268 156.376 80.3018C156.71 80.6768 156.965 81.1279 157.141 81.6553C157.316 82.1826 157.404 82.7715 157.404 83.4219C157.404 84.0371 157.319 84.6025 157.149 85.1182C156.985 85.6338 156.736 86.085 156.402 86.4717C156.068 86.8525 155.646 87.1484 155.137 87.3594C154.633 87.5703 154.038 87.6758 153.353 87.6758C152.837 87.6758 152.348 87.6055 151.885 87.4648C151.428 87.3184 151.018 87.0986 150.654 86.8057C150.297 86.5068 150.004 86.1377 149.775 85.6982C149.553 85.2529 149.412 84.7314 149.354 84.1338H150.9C150.971 84.6143 151.111 85.0186 151.322 85.3467C151.533 85.6748 151.809 85.9238 152.148 86.0938C152.494 86.2578 152.896 86.3398 153.353 86.3398C153.739 86.3398 154.082 86.2725 154.381 86.1377C154.68 86.0029 154.932 85.8096 155.137 85.5576C155.342 85.3057 155.497 85.001 155.603 84.6436C155.714 84.2861 155.77 83.8848 155.77 83.4395C155.77 83.0352 155.714 82.6602 155.603 82.3145C155.491 81.9688 155.324 81.667 155.102 81.4092C154.885 81.1514 154.618 80.9521 154.302 80.8115C153.985 80.665 153.622 80.5918 153.212 80.5918C152.667 80.5918 152.254 80.665 151.973 80.8115C151.697 80.958 151.413 81.1572 151.12 81.4092ZM167.222 80.082V82.0332C167.222 83.082 167.128 83.9668 166.94 84.6875C166.753 85.4082 166.483 85.9883 166.132 86.4277C165.78 86.8672 165.355 87.1865 164.857 87.3857C164.365 87.5791 163.809 87.6758 163.188 87.6758C162.695 87.6758 162.241 87.6143 161.825 87.4912C161.409 87.3682 161.034 87.1719 160.7 86.9023C160.372 86.627 160.091 86.2695 159.856 85.8301C159.622 85.3906 159.443 84.8574 159.32 84.2305C159.197 83.6035 159.136 82.8711 159.136 82.0332V80.082C159.136 79.0332 159.229 78.1543 159.417 77.4453C159.61 76.7363 159.883 76.168 160.234 75.7402C160.586 75.3066 161.008 74.9961 161.5 74.8086C161.998 74.6211 162.555 74.5273 163.17 74.5273C163.668 74.5273 164.125 74.5889 164.541 74.7119C164.963 74.8291 165.338 75.0195 165.666 75.2832C165.994 75.541 166.272 75.8867 166.501 76.3203C166.735 76.748 166.914 77.2725 167.037 77.8936C167.16 78.5146 167.222 79.2441 167.222 80.082ZM165.587 82.2969V79.8096C165.587 79.2354 165.552 78.7314 165.481 78.2979C165.417 77.8584 165.32 77.4834 165.191 77.1729C165.062 76.8623 164.898 76.6104 164.699 76.417C164.506 76.2236 164.28 76.083 164.022 75.9951C163.771 75.9014 163.486 75.8545 163.17 75.8545C162.783 75.8545 162.44 75.9277 162.142 76.0742C161.843 76.2148 161.591 76.4404 161.386 76.751C161.187 77.0615 161.034 77.4688 160.929 77.9727C160.823 78.4766 160.771 79.0889 160.771 79.8096V82.2969C160.771 82.8711 160.803 83.3779 160.867 83.8174C160.938 84.2568 161.04 84.6377 161.175 84.96C161.31 85.2764 161.474 85.5371 161.667 85.7422C161.86 85.9473 162.083 86.0996 162.335 86.1992C162.593 86.293 162.877 86.3398 163.188 86.3398C163.586 86.3398 163.935 86.2637 164.233 86.1113C164.532 85.959 164.781 85.7217 164.98 85.3994C165.186 85.0713 165.338 84.6523 165.438 84.1426C165.537 83.627 165.587 83.0117 165.587 82.2969ZM177.707 80.6357V82.165H168.936V80.6357H177.707ZM174.139 76.9004V86.2168H172.513V76.9004H174.139ZM192.139 83.4307H193.826C193.738 84.2393 193.507 84.9629 193.132 85.6016C192.757 86.2402 192.227 86.7471 191.541 87.1221C190.855 87.4912 190 87.6758 188.975 87.6758C188.225 87.6758 187.542 87.5352 186.927 87.2539C186.317 86.9727 185.793 86.5742 185.354 86.0586C184.914 85.5371 184.574 84.9131 184.334 84.1865C184.1 83.4541 183.982 82.6396 183.982 81.7432V80.4688C183.982 79.5723 184.1 78.7607 184.334 78.0342C184.574 77.3018 184.917 76.6748 185.362 76.1533C185.813 75.6318 186.355 75.2305 186.988 74.9492C187.621 74.668 188.333 74.5273 189.124 74.5273C190.091 74.5273 190.908 74.709 191.576 75.0723C192.244 75.4355 192.763 75.9395 193.132 76.584C193.507 77.2227 193.738 77.9639 193.826 78.8076H192.139C192.057 78.21 191.904 77.6973 191.682 77.2695C191.459 76.8359 191.143 76.502 190.732 76.2676C190.322 76.0332 189.786 75.916 189.124 75.916C188.556 75.916 188.055 76.0244 187.621 76.2412C187.193 76.458 186.833 76.7656 186.54 77.1641C186.253 77.5625 186.036 78.04 185.89 78.5967C185.743 79.1533 185.67 79.7715 185.67 80.4512V81.7432C185.67 82.3701 185.734 82.959 185.863 83.5098C185.998 84.0605 186.2 84.5439 186.47 84.96C186.739 85.376 187.082 85.7041 187.498 85.9443C187.914 86.1787 188.406 86.2959 188.975 86.2959C189.695 86.2959 190.27 86.1816 190.697 85.9531C191.125 85.7246 191.447 85.3965 191.664 84.9688C191.887 84.541 192.045 84.0283 192.139 83.4307ZM195.461 82.8506V82.6484C195.461 81.9629 195.561 81.3271 195.76 80.7412C195.959 80.1494 196.246 79.6367 196.621 79.2031C196.996 78.7637 197.45 78.4238 197.983 78.1836C198.517 77.9375 199.114 77.8145 199.776 77.8145C200.444 77.8145 201.045 77.9375 201.578 78.1836C202.117 78.4238 202.574 78.7637 202.949 79.2031C203.33 79.6367 203.62 80.1494 203.819 80.7412C204.019 81.3271 204.118 81.9629 204.118 82.6484V82.8506C204.118 83.5361 204.019 84.1719 203.819 84.7578C203.62 85.3438 203.33 85.8564 202.949 86.2959C202.574 86.7295 202.12 87.0693 201.587 87.3154C201.06 87.5557 200.462 87.6758 199.794 87.6758C199.126 87.6758 198.525 87.5557 197.992 87.3154C197.459 87.0693 197.002 86.7295 196.621 86.2959C196.246 85.8564 195.959 85.3438 195.76 84.7578C195.561 84.1719 195.461 83.5361 195.461 82.8506ZM197.087 82.6484V82.8506C197.087 83.3252 197.143 83.7734 197.254 84.1953C197.365 84.6113 197.532 84.9805 197.755 85.3027C197.983 85.625 198.268 85.8799 198.607 86.0674C198.947 86.249 199.343 86.3398 199.794 86.3398C200.239 86.3398 200.629 86.249 200.963 86.0674C201.303 85.8799 201.584 85.625 201.807 85.3027C202.029 84.9805 202.196 84.6113 202.308 84.1953C202.425 83.7734 202.483 83.3252 202.483 82.8506V82.6484C202.483 82.1797 202.425 81.7373 202.308 81.3213C202.196 80.8994 202.026 80.5273 201.798 80.2051C201.575 79.877 201.294 79.6191 200.954 79.4316C200.62 79.2441 200.228 79.1504 199.776 79.1504C199.331 79.1504 198.938 79.2441 198.599 79.4316C198.265 79.6191 197.983 79.877 197.755 80.2051C197.532 80.5273 197.365 80.8994 197.254 81.3213C197.143 81.7373 197.087 82.1797 197.087 82.6484ZM211.976 85.3027V77.9902H213.61V87.5H212.055L211.976 85.3027ZM212.283 83.2988L212.96 83.2812C212.96 83.9141 212.893 84.5 212.758 85.0391C212.629 85.5723 212.418 86.0352 212.125 86.4277C211.832 86.8203 211.448 87.1279 210.974 87.3506C210.499 87.5674 209.922 87.6758 209.242 87.6758C208.779 87.6758 208.354 87.6084 207.968 87.4736C207.587 87.3389 207.259 87.1309 206.983 86.8496C206.708 86.5684 206.494 86.2021 206.342 85.751C206.195 85.2998 206.122 84.7578 206.122 84.125V77.9902H207.748V84.1426C207.748 84.5703 207.795 84.9248 207.889 85.2061C207.988 85.4814 208.12 85.7012 208.284 85.8652C208.454 86.0234 208.642 86.1348 208.847 86.1992C209.058 86.2637 209.274 86.2959 209.497 86.2959C210.188 86.2959 210.736 86.1641 211.141 85.9004C211.545 85.6309 211.835 85.2705 212.011 84.8193C212.192 84.3623 212.283 83.8555 212.283 83.2988ZM217.715 79.4844V87.5H216.089V77.9902H217.671L217.715 79.4844ZM220.686 77.9375L220.677 79.4492C220.542 79.4199 220.413 79.4023 220.29 79.3965C220.173 79.3848 220.038 79.3789 219.886 79.3789C219.511 79.3789 219.18 79.4375 218.893 79.5547C218.605 79.6719 218.362 79.8359 218.163 80.0469C217.964 80.2578 217.806 80.5098 217.688 80.8027C217.577 81.0898 217.504 81.4062 217.469 81.752L217.012 82.0156C217.012 81.4414 217.067 80.9023 217.179 80.3984C217.296 79.8945 217.475 79.4492 217.715 79.0625C217.955 78.6699 218.26 78.3652 218.629 78.1484C219.004 77.9258 219.449 77.8145 219.965 77.8145C220.082 77.8145 220.217 77.8291 220.369 77.8584C220.521 77.8818 220.627 77.9082 220.686 77.9375ZM227.726 84.9775C227.726 84.7432 227.673 84.5264 227.567 84.3271C227.468 84.1221 227.26 83.9375 226.943 83.7734C226.633 83.6035 226.164 83.457 225.537 83.334C225.01 83.2227 224.532 83.0908 224.104 82.9385C223.683 82.7861 223.322 82.6016 223.023 82.3848C222.73 82.168 222.505 81.9131 222.347 81.6201C222.188 81.3271 222.109 80.9844 222.109 80.5918C222.109 80.2168 222.191 79.8623 222.355 79.5283C222.525 79.1943 222.763 78.8984 223.067 78.6406C223.378 78.3828 223.75 78.1807 224.184 78.0342C224.617 77.8877 225.101 77.8145 225.634 77.8145C226.396 77.8145 227.046 77.9492 227.585 78.2188C228.124 78.4883 228.537 78.8486 228.824 79.2998C229.111 79.7451 229.255 80.2402 229.255 80.7852H227.629C227.629 80.5215 227.55 80.2666 227.392 80.0205C227.239 79.7686 227.014 79.5605 226.715 79.3965C226.422 79.2324 226.062 79.1504 225.634 79.1504C225.183 79.1504 224.816 79.2207 224.535 79.3613C224.26 79.4961 224.058 79.6689 223.929 79.8799C223.806 80.0908 223.744 80.3135 223.744 80.5479C223.744 80.7236 223.773 80.8818 223.832 81.0225C223.896 81.1572 224.008 81.2832 224.166 81.4004C224.324 81.5117 224.547 81.6172 224.834 81.7168C225.121 81.8164 225.487 81.916 225.933 82.0156C226.712 82.1914 227.354 82.4023 227.857 82.6484C228.361 82.8945 228.736 83.1963 228.982 83.5537C229.229 83.9111 229.352 84.3447 229.352 84.8545C229.352 85.2705 229.264 85.6514 229.088 85.9971C228.918 86.3428 228.669 86.6416 228.341 86.8936C228.019 87.1396 227.632 87.333 227.181 87.4736C226.735 87.6084 226.234 87.6758 225.678 87.6758C224.84 87.6758 224.131 87.5264 223.551 87.2275C222.971 86.9287 222.531 86.542 222.232 86.0674C221.934 85.5928 221.784 85.0918 221.784 84.5645H223.419C223.442 85.0098 223.571 85.3643 223.806 85.6279C224.04 85.8857 224.327 86.0703 224.667 86.1816C225.007 86.2871 225.344 86.3398 225.678 86.3398C226.123 86.3398 226.495 86.2812 226.794 86.1641C227.099 86.0469 227.33 85.8857 227.488 85.6807C227.646 85.4756 227.726 85.2412 227.726 84.9775ZM235.434 87.6758C234.771 87.6758 234.171 87.5645 233.632 87.3418C233.099 87.1133 232.639 86.7939 232.252 86.3838C231.871 85.9736 231.578 85.4873 231.373 84.9248C231.168 84.3623 231.065 83.7471 231.065 83.0791V82.71C231.065 81.9365 231.18 81.248 231.408 80.6445C231.637 80.0352 231.947 79.5195 232.34 79.0977C232.732 78.6758 233.178 78.3564 233.676 78.1396C234.174 77.9229 234.689 77.8145 235.223 77.8145C235.902 77.8145 236.488 77.9316 236.98 78.166C237.479 78.4004 237.886 78.7285 238.202 79.1504C238.519 79.5664 238.753 80.0586 238.905 80.627C239.058 81.1895 239.134 81.8047 239.134 82.4727V83.2021H232.032V81.875H237.508V81.752C237.484 81.3301 237.396 80.9199 237.244 80.5215C237.098 80.123 236.863 79.7949 236.541 79.5371C236.219 79.2793 235.779 79.1504 235.223 79.1504C234.854 79.1504 234.514 79.2295 234.203 79.3877C233.893 79.54 233.626 79.7686 233.403 80.0732C233.181 80.3779 233.008 80.75 232.885 81.1895C232.762 81.6289 232.7 82.1357 232.7 82.71V83.0791C232.7 83.5303 232.762 83.9551 232.885 84.3535C233.014 84.7461 233.198 85.0918 233.438 85.3906C233.685 85.6895 233.98 85.9238 234.326 86.0938C234.678 86.2637 235.076 86.3486 235.521 86.3486C236.096 86.3486 236.582 86.2314 236.98 85.9971C237.379 85.7627 237.728 85.4492 238.026 85.0566L239.011 85.8389C238.806 86.1494 238.545 86.4453 238.229 86.7266C237.912 87.0078 237.522 87.2363 237.06 87.4121C236.603 87.5879 236.061 87.6758 235.434 87.6758ZM246.569 84.9775C246.569 84.7432 246.517 84.5264 246.411 84.3271C246.312 84.1221 246.104 83.9375 245.787 83.7734C245.477 83.6035 245.008 83.457 244.381 83.334C243.854 83.2227 243.376 83.0908 242.948 82.9385C242.526 82.7861 242.166 82.6016 241.867 82.3848C241.574 82.168 241.349 81.9131 241.19 81.6201C241.032 81.3271 240.953 80.9844 240.953 80.5918C240.953 80.2168 241.035 79.8623 241.199 79.5283C241.369 79.1943 241.606 78.8984 241.911 78.6406C242.222 78.3828 242.594 78.1807 243.027 78.0342C243.461 77.8877 243.944 77.8145 244.478 77.8145C245.239 77.8145 245.89 77.9492 246.429 78.2188C246.968 78.4883 247.381 78.8486 247.668 79.2998C247.955 79.7451 248.099 80.2402 248.099 80.7852H246.473C246.473 80.5215 246.394 80.2666 246.235 80.0205C246.083 79.7686 245.857 79.5605 245.559 79.3965C245.266 79.2324 244.905 79.1504 244.478 79.1504C244.026 79.1504 243.66 79.2207 243.379 79.3613C243.104 79.4961 242.901 79.6689 242.772 79.8799C242.649 80.0908 242.588 80.3135 242.588 80.5479C242.588 80.7236 242.617 80.8818 242.676 81.0225C242.74 81.1572 242.852 81.2832 243.01 81.4004C243.168 81.5117 243.391 81.6172 243.678 81.7168C243.965 81.8164 244.331 81.916 244.776 82.0156C245.556 82.1914 246.197 82.4023 246.701 82.6484C247.205 82.8945 247.58 83.1963 247.826 83.5537C248.072 83.9111 248.195 84.3447 248.195 84.8545C248.195 85.2705 248.107 85.6514 247.932 85.9971C247.762 86.3428 247.513 86.6416 247.185 86.8936C246.862 87.1396 246.476 87.333 246.024 87.4736C245.579 87.6084 245.078 87.6758 244.521 87.6758C243.684 87.6758 242.975 87.5264 242.395 87.2275C241.814 86.9287 241.375 86.542 241.076 86.0674C240.777 85.5928 240.628 85.0918 240.628 84.5645H242.263C242.286 85.0098 242.415 85.3643 242.649 85.6279C242.884 85.8857 243.171 86.0703 243.511 86.1816C243.851 86.2871 244.188 86.3398 244.521 86.3398C244.967 86.3398 245.339 86.2812 245.638 86.1641C245.942 86.0469 246.174 85.8857 246.332 85.6807C246.49 85.4756 246.569 85.2412 246.569 84.9775ZM259.779 75.8369L255.543 87.5H253.812L258.689 74.7031H259.806L259.779 75.8369ZM263.33 87.5L259.085 75.8369L259.059 74.7031H260.175L265.07 87.5H263.33ZM263.11 82.7627V84.1514H255.921V82.7627H263.11ZM268.99 86.0322L271.592 77.9902H273.253L269.834 87.5H268.744L268.99 86.0322ZM266.819 77.9902L269.5 86.0762L269.685 87.5H268.595L265.149 77.9902H266.819ZM280.284 85.874V80.9785C280.284 80.6035 280.208 80.2783 280.056 80.0029C279.909 79.7217 279.687 79.5049 279.388 79.3525C279.089 79.2002 278.72 79.124 278.28 79.124C277.87 79.124 277.51 79.1943 277.199 79.335C276.895 79.4756 276.654 79.6602 276.479 79.8887C276.309 80.1172 276.224 80.3633 276.224 80.627H274.598C274.598 80.2871 274.686 79.9502 274.861 79.6162C275.037 79.2822 275.289 78.9805 275.617 78.7109C275.951 78.4355 276.35 78.2188 276.812 78.0605C277.281 77.8965 277.803 77.8145 278.377 77.8145C279.068 77.8145 279.678 77.9316 280.205 78.166C280.738 78.4004 281.154 78.7549 281.453 79.2295C281.758 79.6982 281.91 80.2871 281.91 80.9961V85.4258C281.91 85.7422 281.937 86.0791 281.989 86.4365C282.048 86.7939 282.133 87.1016 282.244 87.3594V87.5H280.548C280.466 87.3125 280.401 87.0635 280.354 86.7529C280.308 86.4365 280.284 86.1436 280.284 85.874ZM280.565 81.7344L280.583 82.877H278.939C278.477 82.877 278.063 82.915 277.7 82.9912C277.337 83.0615 277.032 83.1699 276.786 83.3164C276.54 83.4629 276.353 83.6475 276.224 83.8701C276.095 84.0869 276.03 84.3418 276.03 84.6348C276.03 84.9336 276.098 85.2061 276.232 85.4521C276.367 85.6982 276.569 85.8945 276.839 86.041C277.114 86.1816 277.451 86.252 277.85 86.252C278.348 86.252 278.787 86.1465 279.168 85.9355C279.549 85.7246 279.851 85.4668 280.073 85.1621C280.302 84.8574 280.425 84.5615 280.442 84.2744L281.137 85.0566C281.096 85.3027 280.984 85.5752 280.803 85.874C280.621 86.1729 280.378 86.46 280.073 86.7354C279.774 87.0049 279.417 87.2305 279.001 87.4121C278.591 87.5879 278.128 87.6758 277.612 87.6758C276.968 87.6758 276.402 87.5498 275.916 87.2979C275.436 87.0459 275.061 86.709 274.791 86.2871C274.527 85.8594 274.396 85.3818 274.396 84.8545C274.396 84.3447 274.495 83.8965 274.694 83.5098C274.894 83.1172 275.181 82.792 275.556 82.5342C275.931 82.2705 276.382 82.0713 276.909 81.9365C277.437 81.8018 278.025 81.7344 278.676 81.7344H280.565ZM286.234 77.9902V87.5H284.6V77.9902H286.234ZM284.477 75.4678C284.477 75.2041 284.556 74.9814 284.714 74.7998C284.878 74.6182 285.118 74.5273 285.435 74.5273C285.745 74.5273 285.982 74.6182 286.146 74.7998C286.316 74.9814 286.401 75.2041 286.401 75.4678C286.401 75.7197 286.316 75.9365 286.146 76.1182C285.982 76.2939 285.745 76.3818 285.435 76.3818C285.118 76.3818 284.878 76.2939 284.714 76.1182C284.556 75.9365 284.477 75.7197 284.477 75.4678ZM290.611 74V87.5H288.977V74H290.611ZM298.829 85.874V80.9785C298.829 80.6035 298.753 80.2783 298.601 80.0029C298.454 79.7217 298.231 79.5049 297.933 79.3525C297.634 79.2002 297.265 79.124 296.825 79.124C296.415 79.124 296.055 79.1943 295.744 79.335C295.439 79.4756 295.199 79.6602 295.023 79.8887C294.854 80.1172 294.769 80.3633 294.769 80.627H293.143C293.143 80.2871 293.23 79.9502 293.406 79.6162C293.582 79.2822 293.834 78.9805 294.162 78.7109C294.496 78.4355 294.895 78.2188 295.357 78.0605C295.826 77.8965 296.348 77.8145 296.922 77.8145C297.613 77.8145 298.223 77.9316 298.75 78.166C299.283 78.4004 299.699 78.7549 299.998 79.2295C300.303 79.6982 300.455 80.2871 300.455 80.9961V85.4258C300.455 85.7422 300.481 86.0791 300.534 86.4365C300.593 86.7939 300.678 87.1016 300.789 87.3594V87.5H299.093C299.011 87.3125 298.946 87.0635 298.899 86.7529C298.853 86.4365 298.829 86.1436 298.829 85.874ZM299.11 81.7344L299.128 82.877H297.484C297.021 82.877 296.608 82.915 296.245 82.9912C295.882 83.0615 295.577 83.1699 295.331 83.3164C295.085 83.4629 294.897 83.6475 294.769 83.8701C294.64 84.0869 294.575 84.3418 294.575 84.6348C294.575 84.9336 294.643 85.2061 294.777 85.4521C294.912 85.6982 295.114 85.8945 295.384 86.041C295.659 86.1816 295.996 86.252 296.395 86.252C296.893 86.252 297.332 86.1465 297.713 85.9355C298.094 85.7246 298.396 85.4668 298.618 85.1621C298.847 84.8574 298.97 84.5615 298.987 84.2744L299.682 85.0566C299.641 85.3027 299.529 85.5752 299.348 85.874C299.166 86.1729 298.923 86.46 298.618 86.7354C298.319 87.0049 297.962 87.2305 297.546 87.4121C297.136 87.5879 296.673 87.6758 296.157 87.6758C295.513 87.6758 294.947 87.5498 294.461 87.2979C293.98 87.0459 293.605 86.709 293.336 86.2871C293.072 85.8594 292.94 85.3818 292.94 84.8545C292.94 84.3447 293.04 83.8965 293.239 83.5098C293.438 83.1172 293.726 82.792 294.101 82.5342C294.476 82.2705 294.927 82.0713 295.454 81.9365C295.981 81.8018 296.57 81.7344 297.221 81.7344H299.11ZM303.004 74H304.639V85.6543L304.498 87.5H303.004V74ZM311.063 82.666V82.8506C311.063 83.542 310.981 84.1836 310.817 84.7754C310.653 85.3613 310.413 85.8711 310.097 86.3047C309.78 86.7383 309.394 87.0752 308.937 87.3154C308.479 87.5557 307.955 87.6758 307.363 87.6758C306.76 87.6758 306.229 87.5732 305.772 87.3682C305.321 87.1572 304.94 86.8555 304.63 86.4629C304.319 86.0703 304.07 85.5957 303.883 85.0391C303.701 84.4824 303.575 83.8555 303.505 83.1582V82.3496C303.575 81.6465 303.701 81.0166 303.883 80.46C304.07 79.9033 304.319 79.4287 304.63 79.0361C304.94 78.6377 305.321 78.3359 305.772 78.1309C306.224 77.9199 306.748 77.8145 307.346 77.8145C307.943 77.8145 308.474 77.9316 308.937 78.166C309.399 78.3945 309.786 78.7227 310.097 79.1504C310.413 79.5781 310.653 80.0908 310.817 80.6885C310.981 81.2803 311.063 81.9395 311.063 82.666ZM309.429 82.8506V82.666C309.429 82.1914 309.385 81.7461 309.297 81.3301C309.209 80.9082 309.068 80.5391 308.875 80.2227C308.682 79.9004 308.427 79.6484 308.11 79.4668C307.794 79.2793 307.404 79.1855 306.941 79.1855C306.531 79.1855 306.174 79.2559 305.869 79.3965C305.57 79.5371 305.315 79.7275 305.104 79.9678C304.894 80.2021 304.721 80.4717 304.586 80.7764C304.457 81.0752 304.36 81.3857 304.296 81.708V83.8262C304.39 84.2363 304.542 84.6318 304.753 85.0127C304.97 85.3877 305.257 85.6953 305.614 85.9355C305.978 86.1758 306.426 86.2959 306.959 86.2959C307.398 86.2959 307.773 86.208 308.084 86.0322C308.4 85.8506 308.655 85.6016 308.849 85.2852C309.048 84.9688 309.194 84.6025 309.288 84.1865C309.382 83.7705 309.429 83.3252 309.429 82.8506ZM314.887 74V87.5H313.252V74H314.887ZM321.443 87.6758C320.781 87.6758 320.181 87.5645 319.642 87.3418C319.108 87.1133 318.648 86.7939 318.262 86.3838C317.881 85.9736 317.588 85.4873 317.383 84.9248C317.178 84.3623 317.075 83.7471 317.075 83.0791V82.71C317.075 81.9365 317.189 81.248 317.418 80.6445C317.646 80.0352 317.957 79.5195 318.35 79.0977C318.742 78.6758 319.188 78.3564 319.686 78.1396C320.184 77.9229 320.699 77.8145 321.232 77.8145C321.912 77.8145 322.498 77.9316 322.99 78.166C323.488 78.4004 323.896 78.7285 324.212 79.1504C324.528 79.5664 324.763 80.0586 324.915 80.627C325.067 81.1895 325.144 81.8047 325.144 82.4727V83.2021H318.042V81.875H323.518V81.752C323.494 81.3301 323.406 80.9199 323.254 80.5215C323.107 80.123 322.873 79.7949 322.551 79.5371C322.229 79.2793 321.789 79.1504 321.232 79.1504C320.863 79.1504 320.523 79.2295 320.213 79.3877C319.902 79.54 319.636 79.7686 319.413 80.0732C319.19 80.3779 319.018 80.75 318.895 81.1895C318.771 81.6289 318.71 82.1357 318.71 82.71V83.0791C318.71 83.5303 318.771 83.9551 318.895 84.3535C319.023 84.7461 319.208 85.0918 319.448 85.3906C319.694 85.6895 319.99 85.9238 320.336 86.0938C320.688 86.2637 321.086 86.3486 321.531 86.3486C322.105 86.3486 322.592 86.2314 322.99 85.9971C323.389 85.7627 323.737 85.4492 324.036 85.0566L325.021 85.8389C324.815 86.1494 324.555 86.4453 324.238 86.7266C323.922 87.0078 323.532 87.2363 323.069 87.4121C322.612 87.5879 322.07 87.6758 321.443 87.6758Z" fill="black"/>
</svg>
